%TF.GenerationSoftware,KiCad,Pcbnew,(5.1.10-1-10_14)*%
%TF.CreationDate,2021-10-22T00:21:01+02:00*%
%TF.ProjectId,breadboard-psu,62726561-6462-46f6-9172-642d7073752e,a*%
%TF.SameCoordinates,Original*%
%TF.FileFunction,Legend,Top*%
%TF.FilePolarity,Positive*%
%FSLAX46Y46*%
G04 Gerber Fmt 4.6, Leading zero omitted, Abs format (unit mm)*
G04 Created by KiCad (PCBNEW (5.1.10-1-10_14)) date 2021-10-22 00:21:01*
%MOMM*%
%LPD*%
G01*
G04 APERTURE LIST*
%ADD10C,0.300000*%
%ADD11C,0.100000*%
%ADD12C,0.120000*%
%ADD13C,0.150000*%
G04 APERTURE END LIST*
D10*
X110839285Y-109668571D02*
X110125000Y-109668571D01*
X110053571Y-110382857D01*
X110125000Y-110311428D01*
X110267857Y-110240000D01*
X110625000Y-110240000D01*
X110767857Y-110311428D01*
X110839285Y-110382857D01*
X110910714Y-110525714D01*
X110910714Y-110882857D01*
X110839285Y-111025714D01*
X110767857Y-111097142D01*
X110625000Y-111168571D01*
X110267857Y-111168571D01*
X110125000Y-111097142D01*
X110053571Y-111025714D01*
X111339285Y-109668571D02*
X111839285Y-111168571D01*
X112339285Y-109668571D01*
X110839285Y-64583571D02*
X110125000Y-64583571D01*
X110053571Y-65297857D01*
X110125000Y-65226428D01*
X110267857Y-65155000D01*
X110625000Y-65155000D01*
X110767857Y-65226428D01*
X110839285Y-65297857D01*
X110910714Y-65440714D01*
X110910714Y-65797857D01*
X110839285Y-65940714D01*
X110767857Y-66012142D01*
X110625000Y-66083571D01*
X110267857Y-66083571D01*
X110125000Y-66012142D01*
X110053571Y-65940714D01*
X111339285Y-64583571D02*
X111839285Y-66083571D01*
X112339285Y-64583571D01*
X90297571Y-65091571D02*
X91297571Y-65091571D01*
X90297571Y-66591571D01*
X91297571Y-66591571D01*
X92440428Y-66520142D02*
X92297571Y-66591571D01*
X92011857Y-66591571D01*
X91869000Y-66520142D01*
X91797571Y-66377285D01*
X91797571Y-65805857D01*
X91869000Y-65663000D01*
X92011857Y-65591571D01*
X92297571Y-65591571D01*
X92440428Y-65663000D01*
X92511857Y-65805857D01*
X92511857Y-65948714D01*
X91797571Y-66091571D01*
X93154714Y-66591571D02*
X93154714Y-65091571D01*
X93297571Y-66020142D02*
X93726142Y-66591571D01*
X93726142Y-65591571D02*
X93154714Y-66163000D01*
X94583285Y-66591571D02*
X94440428Y-66520142D01*
X94369000Y-66448714D01*
X94297571Y-66305857D01*
X94297571Y-65877285D01*
X94369000Y-65734428D01*
X94440428Y-65663000D01*
X94583285Y-65591571D01*
X94797571Y-65591571D01*
X94940428Y-65663000D01*
X95011857Y-65734428D01*
X95083285Y-65877285D01*
X95083285Y-66305857D01*
X95011857Y-66448714D01*
X94940428Y-66520142D01*
X94797571Y-66591571D01*
X94583285Y-66591571D01*
X95583285Y-65091571D02*
X96511857Y-65091571D01*
X96011857Y-65663000D01*
X96226142Y-65663000D01*
X96369000Y-65734428D01*
X96440428Y-65805857D01*
X96511857Y-65948714D01*
X96511857Y-66305857D01*
X96440428Y-66448714D01*
X96369000Y-66520142D01*
X96226142Y-66591571D01*
X95797571Y-66591571D01*
X95654714Y-66520142D01*
X95583285Y-66448714D01*
X97797571Y-65091571D02*
X97511857Y-65091571D01*
X97369000Y-65163000D01*
X97297571Y-65234428D01*
X97154714Y-65448714D01*
X97083285Y-65734428D01*
X97083285Y-66305857D01*
X97154714Y-66448714D01*
X97226142Y-66520142D01*
X97369000Y-66591571D01*
X97654714Y-66591571D01*
X97797571Y-66520142D01*
X97869000Y-66448714D01*
X97940428Y-66305857D01*
X97940428Y-65948714D01*
X97869000Y-65805857D01*
X97797571Y-65734428D01*
X97654714Y-65663000D01*
X97369000Y-65663000D01*
X97226142Y-65734428D01*
X97154714Y-65805857D01*
X97083285Y-65948714D01*
X98654714Y-66591571D02*
X98940428Y-66591571D01*
X99083285Y-66520142D01*
X99154714Y-66448714D01*
X99297571Y-66234428D01*
X99369000Y-65948714D01*
X99369000Y-65377285D01*
X99297571Y-65234428D01*
X99226142Y-65163000D01*
X99083285Y-65091571D01*
X98797571Y-65091571D01*
X98654714Y-65163000D01*
X98583285Y-65234428D01*
X98511857Y-65377285D01*
X98511857Y-65734428D01*
X98583285Y-65877285D01*
X98654714Y-65948714D01*
X98797571Y-66020142D01*
X99083285Y-66020142D01*
X99226142Y-65948714D01*
X99297571Y-65877285D01*
X99369000Y-65734428D01*
D11*
%TO.C,SW1*%
X112082000Y-95295000D02*
X112082000Y-94795000D01*
X112082000Y-95295000D02*
X111582000Y-95295000D01*
X112082000Y-83395000D02*
X111582000Y-83395000D01*
X112082000Y-83395000D02*
X112082000Y-83895000D01*
X107882000Y-83395000D02*
X108382000Y-83395000D01*
X107882000Y-83395000D02*
X107882000Y-83895000D01*
X107882000Y-95295000D02*
X108382000Y-95295000D01*
X107882000Y-95295000D02*
X107882000Y-94795000D01*
D12*
%TO.C,C1*%
X99949000Y-81661000D02*
G75*
G03*
X99949000Y-81661000I-5120000J0D01*
G01*
X94829000Y-76581000D02*
X94829000Y-86741000D01*
X94869000Y-76581000D02*
X94869000Y-86741000D01*
X94909000Y-76581000D02*
X94909000Y-86741000D01*
X94949000Y-76582000D02*
X94949000Y-86740000D01*
X94989000Y-76583000D02*
X94989000Y-86739000D01*
X95029000Y-76584000D02*
X95029000Y-86738000D01*
X95069000Y-76586000D02*
X95069000Y-86736000D01*
X95109000Y-76588000D02*
X95109000Y-86734000D01*
X95149000Y-76591000D02*
X95149000Y-86731000D01*
X95189000Y-76593000D02*
X95189000Y-86729000D01*
X95229000Y-76596000D02*
X95229000Y-86726000D01*
X95269000Y-76599000D02*
X95269000Y-86723000D01*
X95309000Y-76603000D02*
X95309000Y-86719000D01*
X95349000Y-76607000D02*
X95349000Y-86715000D01*
X95389000Y-76611000D02*
X95389000Y-86711000D01*
X95429000Y-76616000D02*
X95429000Y-86706000D01*
X95469000Y-76621000D02*
X95469000Y-86701000D01*
X95509000Y-76626000D02*
X95509000Y-86696000D01*
X95550000Y-76631000D02*
X95550000Y-86691000D01*
X95590000Y-76637000D02*
X95590000Y-86685000D01*
X95630000Y-76643000D02*
X95630000Y-86679000D01*
X95670000Y-76650000D02*
X95670000Y-86672000D01*
X95710000Y-76657000D02*
X95710000Y-86665000D01*
X95750000Y-76664000D02*
X95750000Y-86658000D01*
X95790000Y-76671000D02*
X95790000Y-86651000D01*
X95830000Y-76679000D02*
X95830000Y-86643000D01*
X95870000Y-76687000D02*
X95870000Y-86635000D01*
X95910000Y-76696000D02*
X95910000Y-86626000D01*
X95950000Y-76705000D02*
X95950000Y-86617000D01*
X95990000Y-76714000D02*
X95990000Y-86608000D01*
X96030000Y-76723000D02*
X96030000Y-86599000D01*
X96070000Y-76733000D02*
X96070000Y-86589000D01*
X96110000Y-76743000D02*
X96110000Y-80420000D01*
X96110000Y-82902000D02*
X96110000Y-86579000D01*
X96150000Y-76754000D02*
X96150000Y-80420000D01*
X96150000Y-82902000D02*
X96150000Y-86568000D01*
X96190000Y-76764000D02*
X96190000Y-80420000D01*
X96190000Y-82902000D02*
X96190000Y-86558000D01*
X96230000Y-76776000D02*
X96230000Y-80420000D01*
X96230000Y-82902000D02*
X96230000Y-86546000D01*
X96270000Y-76787000D02*
X96270000Y-80420000D01*
X96270000Y-82902000D02*
X96270000Y-86535000D01*
X96310000Y-76799000D02*
X96310000Y-80420000D01*
X96310000Y-82902000D02*
X96310000Y-86523000D01*
X96350000Y-76811000D02*
X96350000Y-80420000D01*
X96350000Y-82902000D02*
X96350000Y-86511000D01*
X96390000Y-76824000D02*
X96390000Y-80420000D01*
X96390000Y-82902000D02*
X96390000Y-86498000D01*
X96430000Y-76837000D02*
X96430000Y-80420000D01*
X96430000Y-82902000D02*
X96430000Y-86485000D01*
X96470000Y-76850000D02*
X96470000Y-80420000D01*
X96470000Y-82902000D02*
X96470000Y-86472000D01*
X96510000Y-76864000D02*
X96510000Y-80420000D01*
X96510000Y-82902000D02*
X96510000Y-86458000D01*
X96550000Y-76878000D02*
X96550000Y-80420000D01*
X96550000Y-82902000D02*
X96550000Y-86444000D01*
X96590000Y-76893000D02*
X96590000Y-80420000D01*
X96590000Y-82902000D02*
X96590000Y-86429000D01*
X96630000Y-76907000D02*
X96630000Y-80420000D01*
X96630000Y-82902000D02*
X96630000Y-86415000D01*
X96670000Y-76923000D02*
X96670000Y-80420000D01*
X96670000Y-82902000D02*
X96670000Y-86399000D01*
X96710000Y-76938000D02*
X96710000Y-80420000D01*
X96710000Y-82902000D02*
X96710000Y-86384000D01*
X96750000Y-76954000D02*
X96750000Y-80420000D01*
X96750000Y-82902000D02*
X96750000Y-86368000D01*
X96790000Y-76971000D02*
X96790000Y-80420000D01*
X96790000Y-82902000D02*
X96790000Y-86351000D01*
X96830000Y-76987000D02*
X96830000Y-80420000D01*
X96830000Y-82902000D02*
X96830000Y-86335000D01*
X96870000Y-77004000D02*
X96870000Y-80420000D01*
X96870000Y-82902000D02*
X96870000Y-86318000D01*
X96910000Y-77022000D02*
X96910000Y-80420000D01*
X96910000Y-82902000D02*
X96910000Y-86300000D01*
X96950000Y-77040000D02*
X96950000Y-80420000D01*
X96950000Y-82902000D02*
X96950000Y-86282000D01*
X96990000Y-77058000D02*
X96990000Y-80420000D01*
X96990000Y-82902000D02*
X96990000Y-86264000D01*
X97030000Y-77077000D02*
X97030000Y-80420000D01*
X97030000Y-82902000D02*
X97030000Y-86245000D01*
X97070000Y-77097000D02*
X97070000Y-80420000D01*
X97070000Y-82902000D02*
X97070000Y-86225000D01*
X97110000Y-77116000D02*
X97110000Y-80420000D01*
X97110000Y-82902000D02*
X97110000Y-86206000D01*
X97150000Y-77136000D02*
X97150000Y-80420000D01*
X97150000Y-82902000D02*
X97150000Y-86186000D01*
X97190000Y-77157000D02*
X97190000Y-80420000D01*
X97190000Y-82902000D02*
X97190000Y-86165000D01*
X97230000Y-77178000D02*
X97230000Y-80420000D01*
X97230000Y-82902000D02*
X97230000Y-86144000D01*
X97270000Y-77199000D02*
X97270000Y-80420000D01*
X97270000Y-82902000D02*
X97270000Y-86123000D01*
X97310000Y-77221000D02*
X97310000Y-80420000D01*
X97310000Y-82902000D02*
X97310000Y-86101000D01*
X97350000Y-77244000D02*
X97350000Y-80420000D01*
X97350000Y-82902000D02*
X97350000Y-86078000D01*
X97390000Y-77266000D02*
X97390000Y-80420000D01*
X97390000Y-82902000D02*
X97390000Y-86056000D01*
X97430000Y-77290000D02*
X97430000Y-80420000D01*
X97430000Y-82902000D02*
X97430000Y-86032000D01*
X97470000Y-77314000D02*
X97470000Y-80420000D01*
X97470000Y-82902000D02*
X97470000Y-86008000D01*
X97510000Y-77338000D02*
X97510000Y-80420000D01*
X97510000Y-82902000D02*
X97510000Y-85984000D01*
X97550000Y-77363000D02*
X97550000Y-80420000D01*
X97550000Y-82902000D02*
X97550000Y-85959000D01*
X97590000Y-77388000D02*
X97590000Y-80420000D01*
X97590000Y-82902000D02*
X97590000Y-85934000D01*
X97630000Y-77414000D02*
X97630000Y-80420000D01*
X97630000Y-82902000D02*
X97630000Y-85908000D01*
X97670000Y-77440000D02*
X97670000Y-80420000D01*
X97670000Y-82902000D02*
X97670000Y-85882000D01*
X97710000Y-77467000D02*
X97710000Y-80420000D01*
X97710000Y-82902000D02*
X97710000Y-85855000D01*
X97750000Y-77495000D02*
X97750000Y-80420000D01*
X97750000Y-82902000D02*
X97750000Y-85827000D01*
X97790000Y-77523000D02*
X97790000Y-80420000D01*
X97790000Y-82902000D02*
X97790000Y-85799000D01*
X97830000Y-77551000D02*
X97830000Y-80420000D01*
X97830000Y-82902000D02*
X97830000Y-85771000D01*
X97870000Y-77581000D02*
X97870000Y-80420000D01*
X97870000Y-82902000D02*
X97870000Y-85741000D01*
X97910000Y-77611000D02*
X97910000Y-80420000D01*
X97910000Y-82902000D02*
X97910000Y-85711000D01*
X97950000Y-77641000D02*
X97950000Y-80420000D01*
X97950000Y-82902000D02*
X97950000Y-85681000D01*
X97990000Y-77672000D02*
X97990000Y-80420000D01*
X97990000Y-82902000D02*
X97990000Y-85650000D01*
X98030000Y-77704000D02*
X98030000Y-80420000D01*
X98030000Y-82902000D02*
X98030000Y-85618000D01*
X98070000Y-77736000D02*
X98070000Y-80420000D01*
X98070000Y-82902000D02*
X98070000Y-85586000D01*
X98110000Y-77769000D02*
X98110000Y-80420000D01*
X98110000Y-82902000D02*
X98110000Y-85553000D01*
X98150000Y-77803000D02*
X98150000Y-80420000D01*
X98150000Y-82902000D02*
X98150000Y-85519000D01*
X98190000Y-77837000D02*
X98190000Y-80420000D01*
X98190000Y-82902000D02*
X98190000Y-85485000D01*
X98230000Y-77872000D02*
X98230000Y-80420000D01*
X98230000Y-82902000D02*
X98230000Y-85450000D01*
X98270000Y-77908000D02*
X98270000Y-80420000D01*
X98270000Y-82902000D02*
X98270000Y-85414000D01*
X98310000Y-77945000D02*
X98310000Y-80420000D01*
X98310000Y-82902000D02*
X98310000Y-85377000D01*
X98350000Y-77982000D02*
X98350000Y-80420000D01*
X98350000Y-82902000D02*
X98350000Y-85340000D01*
X98390000Y-78021000D02*
X98390000Y-80420000D01*
X98390000Y-82902000D02*
X98390000Y-85301000D01*
X98430000Y-78060000D02*
X98430000Y-80420000D01*
X98430000Y-82902000D02*
X98430000Y-85262000D01*
X98470000Y-78100000D02*
X98470000Y-80420000D01*
X98470000Y-82902000D02*
X98470000Y-85222000D01*
X98510000Y-78141000D02*
X98510000Y-80420000D01*
X98510000Y-82902000D02*
X98510000Y-85181000D01*
X98550000Y-78183000D02*
X98550000Y-80420000D01*
X98550000Y-82902000D02*
X98550000Y-85139000D01*
X98590000Y-78225000D02*
X98590000Y-85097000D01*
X98630000Y-78269000D02*
X98630000Y-85053000D01*
X98670000Y-78314000D02*
X98670000Y-85008000D01*
X98710000Y-78360000D02*
X98710000Y-84962000D01*
X98750000Y-78407000D02*
X98750000Y-84915000D01*
X98790000Y-78455000D02*
X98790000Y-84867000D01*
X98830000Y-78505000D02*
X98830000Y-84817000D01*
X98870000Y-78555000D02*
X98870000Y-84767000D01*
X98910000Y-78607000D02*
X98910000Y-84715000D01*
X98950000Y-78661000D02*
X98950000Y-84661000D01*
X98990000Y-78716000D02*
X98990000Y-84606000D01*
X99030000Y-78772000D02*
X99030000Y-84550000D01*
X99070000Y-78831000D02*
X99070000Y-84491000D01*
X99110000Y-78891000D02*
X99110000Y-84431000D01*
X99150000Y-78952000D02*
X99150000Y-84370000D01*
X99190000Y-79016000D02*
X99190000Y-84306000D01*
X99230000Y-79082000D02*
X99230000Y-84240000D01*
X99270000Y-79151000D02*
X99270000Y-84171000D01*
X99310000Y-79222000D02*
X99310000Y-84100000D01*
X99350000Y-79296000D02*
X99350000Y-84026000D01*
X99390000Y-79372000D02*
X99390000Y-83950000D01*
X99430000Y-79452000D02*
X99430000Y-83870000D01*
X99470000Y-79536000D02*
X99470000Y-83786000D01*
X99510000Y-79624000D02*
X99510000Y-83698000D01*
X99550000Y-79717000D02*
X99550000Y-83605000D01*
X99590000Y-79815000D02*
X99590000Y-83507000D01*
X99630000Y-79919000D02*
X99630000Y-83403000D01*
X99670000Y-80031000D02*
X99670000Y-83291000D01*
X99710000Y-80151000D02*
X99710000Y-83171000D01*
X99750000Y-80283000D02*
X99750000Y-83039000D01*
X99790000Y-80431000D02*
X99790000Y-82891000D01*
X99830000Y-80599000D02*
X99830000Y-82723000D01*
X99870000Y-80799000D02*
X99870000Y-82523000D01*
X99910000Y-81062000D02*
X99910000Y-82260000D01*
X89349354Y-78786000D02*
X90349354Y-78786000D01*
X89849354Y-78286000D02*
X89849354Y-79286000D01*
%TO.C,C2*%
X107771000Y-68834000D02*
G75*
G03*
X107771000Y-68834000I-3270000J0D01*
G01*
X104501000Y-65604000D02*
X104501000Y-72064000D01*
X104541000Y-65604000D02*
X104541000Y-72064000D01*
X104581000Y-65604000D02*
X104581000Y-72064000D01*
X104621000Y-65606000D02*
X104621000Y-72062000D01*
X104661000Y-65607000D02*
X104661000Y-72061000D01*
X104701000Y-65610000D02*
X104701000Y-72058000D01*
X104741000Y-65612000D02*
X104741000Y-67794000D01*
X104741000Y-69874000D02*
X104741000Y-72056000D01*
X104781000Y-65616000D02*
X104781000Y-67794000D01*
X104781000Y-69874000D02*
X104781000Y-72052000D01*
X104821000Y-65619000D02*
X104821000Y-67794000D01*
X104821000Y-69874000D02*
X104821000Y-72049000D01*
X104861000Y-65623000D02*
X104861000Y-67794000D01*
X104861000Y-69874000D02*
X104861000Y-72045000D01*
X104901000Y-65628000D02*
X104901000Y-67794000D01*
X104901000Y-69874000D02*
X104901000Y-72040000D01*
X104941000Y-65633000D02*
X104941000Y-67794000D01*
X104941000Y-69874000D02*
X104941000Y-72035000D01*
X104981000Y-65639000D02*
X104981000Y-67794000D01*
X104981000Y-69874000D02*
X104981000Y-72029000D01*
X105021000Y-65645000D02*
X105021000Y-67794000D01*
X105021000Y-69874000D02*
X105021000Y-72023000D01*
X105061000Y-65652000D02*
X105061000Y-67794000D01*
X105061000Y-69874000D02*
X105061000Y-72016000D01*
X105101000Y-65659000D02*
X105101000Y-67794000D01*
X105101000Y-69874000D02*
X105101000Y-72009000D01*
X105141000Y-65667000D02*
X105141000Y-67794000D01*
X105141000Y-69874000D02*
X105141000Y-72001000D01*
X105181000Y-65675000D02*
X105181000Y-67794000D01*
X105181000Y-69874000D02*
X105181000Y-71993000D01*
X105222000Y-65684000D02*
X105222000Y-67794000D01*
X105222000Y-69874000D02*
X105222000Y-71984000D01*
X105262000Y-65693000D02*
X105262000Y-67794000D01*
X105262000Y-69874000D02*
X105262000Y-71975000D01*
X105302000Y-65703000D02*
X105302000Y-67794000D01*
X105302000Y-69874000D02*
X105302000Y-71965000D01*
X105342000Y-65713000D02*
X105342000Y-67794000D01*
X105342000Y-69874000D02*
X105342000Y-71955000D01*
X105382000Y-65724000D02*
X105382000Y-67794000D01*
X105382000Y-69874000D02*
X105382000Y-71944000D01*
X105422000Y-65736000D02*
X105422000Y-67794000D01*
X105422000Y-69874000D02*
X105422000Y-71932000D01*
X105462000Y-65748000D02*
X105462000Y-67794000D01*
X105462000Y-69874000D02*
X105462000Y-71920000D01*
X105502000Y-65760000D02*
X105502000Y-67794000D01*
X105502000Y-69874000D02*
X105502000Y-71908000D01*
X105542000Y-65773000D02*
X105542000Y-67794000D01*
X105542000Y-69874000D02*
X105542000Y-71895000D01*
X105582000Y-65787000D02*
X105582000Y-67794000D01*
X105582000Y-69874000D02*
X105582000Y-71881000D01*
X105622000Y-65801000D02*
X105622000Y-67794000D01*
X105622000Y-69874000D02*
X105622000Y-71867000D01*
X105662000Y-65816000D02*
X105662000Y-67794000D01*
X105662000Y-69874000D02*
X105662000Y-71852000D01*
X105702000Y-65832000D02*
X105702000Y-67794000D01*
X105702000Y-69874000D02*
X105702000Y-71836000D01*
X105742000Y-65848000D02*
X105742000Y-67794000D01*
X105742000Y-69874000D02*
X105742000Y-71820000D01*
X105782000Y-65864000D02*
X105782000Y-67794000D01*
X105782000Y-69874000D02*
X105782000Y-71804000D01*
X105822000Y-65882000D02*
X105822000Y-67794000D01*
X105822000Y-69874000D02*
X105822000Y-71786000D01*
X105862000Y-65900000D02*
X105862000Y-67794000D01*
X105862000Y-69874000D02*
X105862000Y-71768000D01*
X105902000Y-65918000D02*
X105902000Y-67794000D01*
X105902000Y-69874000D02*
X105902000Y-71750000D01*
X105942000Y-65938000D02*
X105942000Y-67794000D01*
X105942000Y-69874000D02*
X105942000Y-71730000D01*
X105982000Y-65958000D02*
X105982000Y-67794000D01*
X105982000Y-69874000D02*
X105982000Y-71710000D01*
X106022000Y-65978000D02*
X106022000Y-67794000D01*
X106022000Y-69874000D02*
X106022000Y-71690000D01*
X106062000Y-66000000D02*
X106062000Y-67794000D01*
X106062000Y-69874000D02*
X106062000Y-71668000D01*
X106102000Y-66022000D02*
X106102000Y-67794000D01*
X106102000Y-69874000D02*
X106102000Y-71646000D01*
X106142000Y-66044000D02*
X106142000Y-67794000D01*
X106142000Y-69874000D02*
X106142000Y-71624000D01*
X106182000Y-66068000D02*
X106182000Y-67794000D01*
X106182000Y-69874000D02*
X106182000Y-71600000D01*
X106222000Y-66092000D02*
X106222000Y-67794000D01*
X106222000Y-69874000D02*
X106222000Y-71576000D01*
X106262000Y-66118000D02*
X106262000Y-67794000D01*
X106262000Y-69874000D02*
X106262000Y-71550000D01*
X106302000Y-66144000D02*
X106302000Y-67794000D01*
X106302000Y-69874000D02*
X106302000Y-71524000D01*
X106342000Y-66170000D02*
X106342000Y-67794000D01*
X106342000Y-69874000D02*
X106342000Y-71498000D01*
X106382000Y-66198000D02*
X106382000Y-67794000D01*
X106382000Y-69874000D02*
X106382000Y-71470000D01*
X106422000Y-66227000D02*
X106422000Y-67794000D01*
X106422000Y-69874000D02*
X106422000Y-71441000D01*
X106462000Y-66256000D02*
X106462000Y-67794000D01*
X106462000Y-69874000D02*
X106462000Y-71412000D01*
X106502000Y-66286000D02*
X106502000Y-67794000D01*
X106502000Y-69874000D02*
X106502000Y-71382000D01*
X106542000Y-66318000D02*
X106542000Y-67794000D01*
X106542000Y-69874000D02*
X106542000Y-71350000D01*
X106582000Y-66350000D02*
X106582000Y-67794000D01*
X106582000Y-69874000D02*
X106582000Y-71318000D01*
X106622000Y-66384000D02*
X106622000Y-67794000D01*
X106622000Y-69874000D02*
X106622000Y-71284000D01*
X106662000Y-66418000D02*
X106662000Y-67794000D01*
X106662000Y-69874000D02*
X106662000Y-71250000D01*
X106702000Y-66454000D02*
X106702000Y-67794000D01*
X106702000Y-69874000D02*
X106702000Y-71214000D01*
X106742000Y-66491000D02*
X106742000Y-67794000D01*
X106742000Y-69874000D02*
X106742000Y-71177000D01*
X106782000Y-66529000D02*
X106782000Y-67794000D01*
X106782000Y-69874000D02*
X106782000Y-71139000D01*
X106822000Y-66569000D02*
X106822000Y-71099000D01*
X106862000Y-66610000D02*
X106862000Y-71058000D01*
X106902000Y-66652000D02*
X106902000Y-71016000D01*
X106942000Y-66697000D02*
X106942000Y-70971000D01*
X106982000Y-66742000D02*
X106982000Y-70926000D01*
X107022000Y-66790000D02*
X107022000Y-70878000D01*
X107062000Y-66839000D02*
X107062000Y-70829000D01*
X107102000Y-66890000D02*
X107102000Y-70778000D01*
X107142000Y-66944000D02*
X107142000Y-70724000D01*
X107182000Y-67000000D02*
X107182000Y-70668000D01*
X107222000Y-67058000D02*
X107222000Y-70610000D01*
X107262000Y-67120000D02*
X107262000Y-70548000D01*
X107302000Y-67184000D02*
X107302000Y-70484000D01*
X107342000Y-67253000D02*
X107342000Y-70415000D01*
X107382000Y-67325000D02*
X107382000Y-70343000D01*
X107422000Y-67402000D02*
X107422000Y-70266000D01*
X107462000Y-67484000D02*
X107462000Y-70184000D01*
X107502000Y-67572000D02*
X107502000Y-70096000D01*
X107542000Y-67669000D02*
X107542000Y-69999000D01*
X107582000Y-67775000D02*
X107582000Y-69893000D01*
X107622000Y-67894000D02*
X107622000Y-69774000D01*
X107662000Y-68032000D02*
X107662000Y-69636000D01*
X107702000Y-68201000D02*
X107702000Y-69467000D01*
X107742000Y-68432000D02*
X107742000Y-69236000D01*
X101000759Y-66995000D02*
X101630759Y-66995000D01*
X101315759Y-66680000D02*
X101315759Y-67310000D01*
%TO.C,D1*%
X93546000Y-91367000D02*
X93546000Y-94307000D01*
X93546000Y-94307000D02*
X98986000Y-94307000D01*
X98986000Y-94307000D02*
X98986000Y-91367000D01*
X98986000Y-91367000D02*
X93546000Y-91367000D01*
X92526000Y-92837000D02*
X93546000Y-92837000D01*
X100006000Y-92837000D02*
X98986000Y-92837000D01*
X94446000Y-91367000D02*
X94446000Y-94307000D01*
X94566000Y-91367000D02*
X94566000Y-94307000D01*
X94326000Y-91367000D02*
X94326000Y-94307000D01*
%TO.C,D2*%
X109420000Y-105439001D02*
X106480000Y-105439001D01*
X106480000Y-105439001D02*
X106480000Y-110879001D01*
X106480000Y-110879001D02*
X109420000Y-110879001D01*
X109420000Y-110879001D02*
X109420000Y-105439001D01*
X107950000Y-104419001D02*
X107950000Y-105439001D01*
X107950000Y-111899001D02*
X107950000Y-110879001D01*
X109420000Y-106339001D02*
X106480000Y-106339001D01*
X109420000Y-106459001D02*
X106480000Y-106459001D01*
X109420000Y-106219001D02*
X106480000Y-106219001D01*
%TO.C,D3*%
X94304001Y-96639001D02*
X94304001Y-99579001D01*
X94544001Y-96639001D02*
X94544001Y-99579001D01*
X94424001Y-96639001D02*
X94424001Y-99579001D01*
X99984001Y-98109001D02*
X98964001Y-98109001D01*
X92504001Y-98109001D02*
X93524001Y-98109001D01*
X98964001Y-96639001D02*
X93524001Y-96639001D01*
X98964001Y-99579001D02*
X98964001Y-96639001D01*
X93524001Y-99579001D02*
X98964001Y-99579001D01*
X93524001Y-96639001D02*
X93524001Y-99579001D01*
%TO.C,D4*%
X105102000Y-106264000D02*
X102162000Y-106264000D01*
X105102000Y-106504000D02*
X102162000Y-106504000D01*
X105102000Y-106384000D02*
X102162000Y-106384000D01*
X103632000Y-111944000D02*
X103632000Y-110924000D01*
X103632000Y-104464000D02*
X103632000Y-105484000D01*
X105102000Y-110924000D02*
X105102000Y-105484000D01*
X102162000Y-110924000D02*
X105102000Y-110924000D01*
X102162000Y-105484000D02*
X102162000Y-110924000D01*
X105102000Y-105484000D02*
X102162000Y-105484000D01*
%TO.C,D5*%
X105558001Y-77657999D02*
X105558001Y-80342999D01*
X105558001Y-80342999D02*
X107478001Y-80342999D01*
X107478001Y-80342999D02*
X107478001Y-77657999D01*
%TO.C,D6*%
X107517001Y-75760999D02*
X107517001Y-73075999D01*
X105597001Y-75760999D02*
X107517001Y-75760999D01*
X105597001Y-73075999D02*
X105597001Y-75760999D01*
%TO.C,J1*%
X94260000Y-112804000D02*
X85260000Y-112804000D01*
X85260000Y-112804000D02*
X85260000Y-103604000D01*
X85260000Y-103604000D02*
X99860000Y-103604000D01*
X99860000Y-103604000D02*
X99860000Y-106404000D01*
X99860000Y-110004000D02*
X99860000Y-112804000D01*
X99860000Y-112804000D02*
X97860000Y-112804000D01*
X98360000Y-103364000D02*
X100100000Y-103364000D01*
X100100000Y-103364000D02*
X100100000Y-105104000D01*
%TO.C,J2*%
X113224000Y-114995000D02*
X118424000Y-114995000D01*
X113224000Y-112395000D02*
X113224000Y-114995000D01*
X118424000Y-109795000D02*
X118424000Y-114995000D01*
X113224000Y-112395000D02*
X115824000Y-112395000D01*
X115824000Y-112395000D02*
X115824000Y-109795000D01*
X115824000Y-109795000D02*
X118424000Y-109795000D01*
X113224000Y-111125000D02*
X113224000Y-109795000D01*
X113224000Y-109795000D02*
X114554000Y-109795000D01*
%TO.C,J3*%
X113224000Y-64075000D02*
X114554000Y-64075000D01*
X113224000Y-65405000D02*
X113224000Y-64075000D01*
X115824000Y-64075000D02*
X118424000Y-64075000D01*
X115824000Y-66675000D02*
X115824000Y-64075000D01*
X113224000Y-66675000D02*
X115824000Y-66675000D01*
X118424000Y-64075000D02*
X118424000Y-69275000D01*
X113224000Y-66675000D02*
X113224000Y-69275000D01*
X113224000Y-69275000D02*
X118424000Y-69275000D01*
%TO.C,R1*%
X109120000Y-78863564D02*
X109120000Y-78409436D01*
X110590000Y-78863564D02*
X110590000Y-78409436D01*
%TO.C,R2*%
X110590000Y-74268064D02*
X110590000Y-73813936D01*
X109120000Y-74268064D02*
X109120000Y-73813936D01*
%TO.C,U1*%
X89495000Y-68358000D02*
X99735000Y-68358000D01*
X89495000Y-72999000D02*
X99735000Y-72999000D01*
X89495000Y-68358000D02*
X89495000Y-72999000D01*
X99735000Y-68358000D02*
X99735000Y-72999000D01*
X89495000Y-69868000D02*
X99735000Y-69868000D01*
X92765000Y-68358000D02*
X92765000Y-69868000D01*
X96466000Y-68358000D02*
X96466000Y-69868000D01*
%TO.C,SW1*%
D13*
X105814761Y-90487333D02*
X105862380Y-90344476D01*
X105862380Y-90106380D01*
X105814761Y-90011142D01*
X105767142Y-89963523D01*
X105671904Y-89915904D01*
X105576666Y-89915904D01*
X105481428Y-89963523D01*
X105433809Y-90011142D01*
X105386190Y-90106380D01*
X105338571Y-90296857D01*
X105290952Y-90392095D01*
X105243333Y-90439714D01*
X105148095Y-90487333D01*
X105052857Y-90487333D01*
X104957619Y-90439714D01*
X104910000Y-90392095D01*
X104862380Y-90296857D01*
X104862380Y-90058761D01*
X104910000Y-89915904D01*
X104862380Y-89582571D02*
X105862380Y-89344476D01*
X105148095Y-89154000D01*
X105862380Y-88963523D01*
X104862380Y-88725428D01*
X105862380Y-87820666D02*
X105862380Y-88392095D01*
X105862380Y-88106380D02*
X104862380Y-88106380D01*
X105005238Y-88201619D01*
X105100476Y-88296857D01*
X105148095Y-88392095D01*
%TO.C,C1*%
X94662333Y-75768142D02*
X94614714Y-75815761D01*
X94471857Y-75863380D01*
X94376619Y-75863380D01*
X94233761Y-75815761D01*
X94138523Y-75720523D01*
X94090904Y-75625285D01*
X94043285Y-75434809D01*
X94043285Y-75291952D01*
X94090904Y-75101476D01*
X94138523Y-75006238D01*
X94233761Y-74911000D01*
X94376619Y-74863380D01*
X94471857Y-74863380D01*
X94614714Y-74911000D01*
X94662333Y-74958619D01*
X95614714Y-75863380D02*
X95043285Y-75863380D01*
X95329000Y-75863380D02*
X95329000Y-74863380D01*
X95233761Y-75006238D01*
X95138523Y-75101476D01*
X95043285Y-75149095D01*
X93186142Y-87696714D02*
X93186142Y-88363380D01*
X92948047Y-87315761D02*
X92709952Y-88030047D01*
X93329000Y-88030047D01*
X93614714Y-87363380D02*
X94281380Y-87363380D01*
X93852809Y-88363380D01*
X94852809Y-87363380D02*
X94948047Y-87363380D01*
X95043285Y-87411000D01*
X95090904Y-87458619D01*
X95138523Y-87553857D01*
X95186142Y-87744333D01*
X95186142Y-87982428D01*
X95138523Y-88172904D01*
X95090904Y-88268142D01*
X95043285Y-88315761D01*
X94948047Y-88363380D01*
X94852809Y-88363380D01*
X94757571Y-88315761D01*
X94709952Y-88268142D01*
X94662333Y-88172904D01*
X94614714Y-87982428D01*
X94614714Y-87744333D01*
X94662333Y-87553857D01*
X94709952Y-87458619D01*
X94757571Y-87411000D01*
X94852809Y-87363380D01*
X96043285Y-87696714D02*
X96043285Y-88363380D01*
X95614714Y-87696714D02*
X95614714Y-88220523D01*
X95662333Y-88315761D01*
X95757571Y-88363380D01*
X95900428Y-88363380D01*
X95995666Y-88315761D01*
X96043285Y-88268142D01*
X96852809Y-87839571D02*
X96519476Y-87839571D01*
X96519476Y-88363380D02*
X96519476Y-87363380D01*
X96995666Y-87363380D01*
%TO.C,C2*%
X104334333Y-64791142D02*
X104286714Y-64838761D01*
X104143857Y-64886380D01*
X104048619Y-64886380D01*
X103905761Y-64838761D01*
X103810523Y-64743523D01*
X103762904Y-64648285D01*
X103715285Y-64457809D01*
X103715285Y-64314952D01*
X103762904Y-64124476D01*
X103810523Y-64029238D01*
X103905761Y-63934000D01*
X104048619Y-63886380D01*
X104143857Y-63886380D01*
X104286714Y-63934000D01*
X104334333Y-63981619D01*
X104715285Y-63981619D02*
X104762904Y-63934000D01*
X104858142Y-63886380D01*
X105096238Y-63886380D01*
X105191476Y-63934000D01*
X105239095Y-63981619D01*
X105286714Y-64076857D01*
X105286714Y-64172095D01*
X105239095Y-64314952D01*
X104667666Y-64886380D01*
X105286714Y-64886380D01*
X101576333Y-72683714D02*
X101576333Y-73350380D01*
X101338238Y-72302761D02*
X101100142Y-73017047D01*
X101719190Y-73017047D01*
X102004904Y-72350380D02*
X102671571Y-72350380D01*
X102243000Y-73350380D01*
X103481095Y-72683714D02*
X103481095Y-73350380D01*
X103052523Y-72683714D02*
X103052523Y-73207523D01*
X103100142Y-73302761D01*
X103195380Y-73350380D01*
X103338238Y-73350380D01*
X103433476Y-73302761D01*
X103481095Y-73255142D01*
X104290619Y-72826571D02*
X103957285Y-72826571D01*
X103957285Y-73350380D02*
X103957285Y-72350380D01*
X104433476Y-72350380D01*
%TO.C,D1*%
X95527904Y-90819380D02*
X95527904Y-89819380D01*
X95766000Y-89819380D01*
X95908857Y-89867000D01*
X96004095Y-89962238D01*
X96051714Y-90057476D01*
X96099333Y-90247952D01*
X96099333Y-90390809D01*
X96051714Y-90581285D01*
X96004095Y-90676523D01*
X95908857Y-90771761D01*
X95766000Y-90819380D01*
X95527904Y-90819380D01*
X97051714Y-90819380D02*
X96480285Y-90819380D01*
X96766000Y-90819380D02*
X96766000Y-89819380D01*
X96670761Y-89962238D01*
X96575523Y-90057476D01*
X96480285Y-90105095D01*
X90924095Y-91189380D02*
X90924095Y-90189380D01*
X91495523Y-91189380D02*
X91066952Y-90617952D01*
X91495523Y-90189380D02*
X90924095Y-90760809D01*
%TO.C,D2*%
X108503381Y-100433095D02*
X107503381Y-100433095D01*
X107503381Y-100195000D01*
X107551001Y-100052142D01*
X107646239Y-99956904D01*
X107741477Y-99909285D01*
X107931953Y-99861666D01*
X108074810Y-99861666D01*
X108265286Y-99909285D01*
X108360524Y-99956904D01*
X108455762Y-100052142D01*
X108503381Y-100195000D01*
X108503381Y-100433095D01*
X107598620Y-99480714D02*
X107551001Y-99433095D01*
X107503381Y-99337857D01*
X107503381Y-99099761D01*
X107551001Y-99004523D01*
X107598620Y-98956904D01*
X107693858Y-98909285D01*
X107789096Y-98909285D01*
X107931953Y-98956904D01*
X108503381Y-99528333D01*
X108503381Y-98909285D01*
X110502380Y-103340905D02*
X109502380Y-103340905D01*
X110502380Y-102769477D02*
X109930952Y-103198048D01*
X109502380Y-102769477D02*
X110073809Y-103340905D01*
%TO.C,D3*%
X95505905Y-96091381D02*
X95505905Y-95091381D01*
X95744001Y-95091381D01*
X95886858Y-95139001D01*
X95982096Y-95234239D01*
X96029715Y-95329477D01*
X96077334Y-95519953D01*
X96077334Y-95662810D01*
X96029715Y-95853286D01*
X95982096Y-95948524D01*
X95886858Y-96043762D01*
X95744001Y-96091381D01*
X95505905Y-96091381D01*
X96410667Y-95091381D02*
X97029715Y-95091381D01*
X96696381Y-95472334D01*
X96839239Y-95472334D01*
X96934477Y-95519953D01*
X96982096Y-95567572D01*
X97029715Y-95662810D01*
X97029715Y-95900905D01*
X96982096Y-95996143D01*
X96934477Y-96043762D01*
X96839239Y-96091381D01*
X96553524Y-96091381D01*
X96458286Y-96043762D01*
X96410667Y-95996143D01*
X90902096Y-96461381D02*
X90902096Y-95461381D01*
X91473524Y-96461381D02*
X91044953Y-95889953D01*
X91473524Y-95461381D02*
X90902096Y-96032810D01*
%TO.C,D4*%
X104117381Y-101240094D02*
X103117381Y-101240094D01*
X103117381Y-101001999D01*
X103165001Y-100859141D01*
X103260239Y-100763903D01*
X103355477Y-100716284D01*
X103545953Y-100668665D01*
X103688810Y-100668665D01*
X103879286Y-100716284D01*
X103974524Y-100763903D01*
X104069762Y-100859141D01*
X104117381Y-101001999D01*
X104117381Y-101240094D01*
X103450715Y-99811522D02*
X104117381Y-99811522D01*
X103069762Y-100049618D02*
X103784048Y-100287713D01*
X103784048Y-99668665D01*
X106184380Y-103385904D02*
X105184380Y-103385904D01*
X106184380Y-102814476D02*
X105612952Y-103243047D01*
X105184380Y-102814476D02*
X105755809Y-103385904D01*
%TO.C,D5*%
X105320381Y-79396094D02*
X104320381Y-79396094D01*
X104320381Y-79157999D01*
X104368001Y-79015141D01*
X104463239Y-78919903D01*
X104558477Y-78872284D01*
X104748953Y-78824665D01*
X104891810Y-78824665D01*
X105082286Y-78872284D01*
X105177524Y-78919903D01*
X105272762Y-79015141D01*
X105320381Y-79157999D01*
X105320381Y-79396094D01*
X104320381Y-77919903D02*
X104320381Y-78396094D01*
X104796572Y-78443713D01*
X104748953Y-78396094D01*
X104701334Y-78300856D01*
X104701334Y-78062760D01*
X104748953Y-77967522D01*
X104796572Y-77919903D01*
X104891810Y-77872284D01*
X105129905Y-77872284D01*
X105225143Y-77919903D01*
X105272762Y-77967522D01*
X105320381Y-78062760D01*
X105320381Y-78300856D01*
X105272762Y-78396094D01*
X105225143Y-78443713D01*
%TO.C,D6*%
X105359381Y-74814094D02*
X104359381Y-74814094D01*
X104359381Y-74575999D01*
X104407001Y-74433141D01*
X104502239Y-74337903D01*
X104597477Y-74290284D01*
X104787953Y-74242665D01*
X104930810Y-74242665D01*
X105121286Y-74290284D01*
X105216524Y-74337903D01*
X105311762Y-74433141D01*
X105359381Y-74575999D01*
X105359381Y-74814094D01*
X104359381Y-73385522D02*
X104359381Y-73575999D01*
X104407001Y-73671237D01*
X104454620Y-73718856D01*
X104597477Y-73814094D01*
X104787953Y-73861713D01*
X105168905Y-73861713D01*
X105264143Y-73814094D01*
X105311762Y-73766475D01*
X105359381Y-73671237D01*
X105359381Y-73480760D01*
X105311762Y-73385522D01*
X105264143Y-73337903D01*
X105168905Y-73290284D01*
X104930810Y-73290284D01*
X104835572Y-73337903D01*
X104787953Y-73385522D01*
X104740334Y-73480760D01*
X104740334Y-73671237D01*
X104787953Y-73766475D01*
X104835572Y-73814094D01*
X104930810Y-73861713D01*
%TO.C,J1*%
X90276666Y-113406380D02*
X90276666Y-114120666D01*
X90229047Y-114263523D01*
X90133809Y-114358761D01*
X89990952Y-114406380D01*
X89895714Y-114406380D01*
X91276666Y-114406380D02*
X90705238Y-114406380D01*
X90990952Y-114406380D02*
X90990952Y-113406380D01*
X90895714Y-113549238D01*
X90800476Y-113644476D01*
X90705238Y-113692095D01*
%TO.C,J2*%
X111720380Y-114252333D02*
X112434666Y-114252333D01*
X112577523Y-114299952D01*
X112672761Y-114395190D01*
X112720380Y-114538047D01*
X112720380Y-114633285D01*
X111815619Y-113823761D02*
X111768000Y-113776142D01*
X111720380Y-113680904D01*
X111720380Y-113442809D01*
X111768000Y-113347571D01*
X111815619Y-113299952D01*
X111910857Y-113252333D01*
X112006095Y-113252333D01*
X112148952Y-113299952D01*
X112720380Y-113871380D01*
X112720380Y-113252333D01*
%TO.C,J3*%
X111466380Y-68786333D02*
X112180666Y-68786333D01*
X112323523Y-68833952D01*
X112418761Y-68929190D01*
X112466380Y-69072047D01*
X112466380Y-69167285D01*
X111466380Y-68405380D02*
X111466380Y-67786333D01*
X111847333Y-68119666D01*
X111847333Y-67976809D01*
X111894952Y-67881571D01*
X111942571Y-67833952D01*
X112037809Y-67786333D01*
X112275904Y-67786333D01*
X112371142Y-67833952D01*
X112418761Y-67881571D01*
X112466380Y-67976809D01*
X112466380Y-68262523D01*
X112418761Y-68357761D01*
X112371142Y-68405380D01*
%TO.C,R1*%
X108657380Y-78803166D02*
X108181190Y-79136500D01*
X108657380Y-79374595D02*
X107657380Y-79374595D01*
X107657380Y-78993642D01*
X107705000Y-78898404D01*
X107752619Y-78850785D01*
X107847857Y-78803166D01*
X107990714Y-78803166D01*
X108085952Y-78850785D01*
X108133571Y-78898404D01*
X108181190Y-78993642D01*
X108181190Y-79374595D01*
X108657380Y-77850785D02*
X108657380Y-78422214D01*
X108657380Y-78136500D02*
X107657380Y-78136500D01*
X107800238Y-78231738D01*
X107895476Y-78326976D01*
X107943095Y-78422214D01*
X110957380Y-79850785D02*
X110957380Y-80326976D01*
X111433571Y-80374595D01*
X111385952Y-80326976D01*
X111338333Y-80231738D01*
X111338333Y-79993642D01*
X111385952Y-79898404D01*
X111433571Y-79850785D01*
X111528809Y-79803166D01*
X111766904Y-79803166D01*
X111862142Y-79850785D01*
X111909761Y-79898404D01*
X111957380Y-79993642D01*
X111957380Y-80231738D01*
X111909761Y-80326976D01*
X111862142Y-80374595D01*
X110957380Y-78946023D02*
X110957380Y-79136500D01*
X111005000Y-79231738D01*
X111052619Y-79279357D01*
X111195476Y-79374595D01*
X111385952Y-79422214D01*
X111766904Y-79422214D01*
X111862142Y-79374595D01*
X111909761Y-79326976D01*
X111957380Y-79231738D01*
X111957380Y-79041261D01*
X111909761Y-78946023D01*
X111862142Y-78898404D01*
X111766904Y-78850785D01*
X111528809Y-78850785D01*
X111433571Y-78898404D01*
X111385952Y-78946023D01*
X111338333Y-79041261D01*
X111338333Y-79231738D01*
X111385952Y-79326976D01*
X111433571Y-79374595D01*
X111528809Y-79422214D01*
X110957380Y-78231738D02*
X110957380Y-78136500D01*
X111005000Y-78041261D01*
X111052619Y-77993642D01*
X111147857Y-77946023D01*
X111338333Y-77898404D01*
X111576428Y-77898404D01*
X111766904Y-77946023D01*
X111862142Y-77993642D01*
X111909761Y-78041261D01*
X111957380Y-78136500D01*
X111957380Y-78231738D01*
X111909761Y-78326976D01*
X111862142Y-78374595D01*
X111766904Y-78422214D01*
X111576428Y-78469833D01*
X111338333Y-78469833D01*
X111147857Y-78422214D01*
X111052619Y-78374595D01*
X111005000Y-78326976D01*
X110957380Y-78231738D01*
X111957380Y-76898404D02*
X111481190Y-77231738D01*
X111957380Y-77469833D02*
X110957380Y-77469833D01*
X110957380Y-77088880D01*
X111005000Y-76993642D01*
X111052619Y-76946023D01*
X111147857Y-76898404D01*
X111290714Y-76898404D01*
X111385952Y-76946023D01*
X111433571Y-76993642D01*
X111481190Y-77088880D01*
X111481190Y-77469833D01*
%TO.C,R2*%
X108657380Y-74207666D02*
X108181190Y-74541000D01*
X108657380Y-74779095D02*
X107657380Y-74779095D01*
X107657380Y-74398142D01*
X107705000Y-74302904D01*
X107752619Y-74255285D01*
X107847857Y-74207666D01*
X107990714Y-74207666D01*
X108085952Y-74255285D01*
X108133571Y-74302904D01*
X108181190Y-74398142D01*
X108181190Y-74779095D01*
X107752619Y-73826714D02*
X107705000Y-73779095D01*
X107657380Y-73683857D01*
X107657380Y-73445761D01*
X107705000Y-73350523D01*
X107752619Y-73302904D01*
X107847857Y-73255285D01*
X107943095Y-73255285D01*
X108085952Y-73302904D01*
X108657380Y-73874333D01*
X108657380Y-73255285D01*
X110957380Y-75255285D02*
X110957380Y-75731476D01*
X111433571Y-75779095D01*
X111385952Y-75731476D01*
X111338333Y-75636238D01*
X111338333Y-75398142D01*
X111385952Y-75302904D01*
X111433571Y-75255285D01*
X111528809Y-75207666D01*
X111766904Y-75207666D01*
X111862142Y-75255285D01*
X111909761Y-75302904D01*
X111957380Y-75398142D01*
X111957380Y-75636238D01*
X111909761Y-75731476D01*
X111862142Y-75779095D01*
X110957380Y-74350523D02*
X110957380Y-74541000D01*
X111005000Y-74636238D01*
X111052619Y-74683857D01*
X111195476Y-74779095D01*
X111385952Y-74826714D01*
X111766904Y-74826714D01*
X111862142Y-74779095D01*
X111909761Y-74731476D01*
X111957380Y-74636238D01*
X111957380Y-74445761D01*
X111909761Y-74350523D01*
X111862142Y-74302904D01*
X111766904Y-74255285D01*
X111528809Y-74255285D01*
X111433571Y-74302904D01*
X111385952Y-74350523D01*
X111338333Y-74445761D01*
X111338333Y-74636238D01*
X111385952Y-74731476D01*
X111433571Y-74779095D01*
X111528809Y-74826714D01*
X110957380Y-73636238D02*
X110957380Y-73541000D01*
X111005000Y-73445761D01*
X111052619Y-73398142D01*
X111147857Y-73350523D01*
X111338333Y-73302904D01*
X111576428Y-73302904D01*
X111766904Y-73350523D01*
X111862142Y-73398142D01*
X111909761Y-73445761D01*
X111957380Y-73541000D01*
X111957380Y-73636238D01*
X111909761Y-73731476D01*
X111862142Y-73779095D01*
X111766904Y-73826714D01*
X111576428Y-73874333D01*
X111338333Y-73874333D01*
X111147857Y-73826714D01*
X111052619Y-73779095D01*
X111005000Y-73731476D01*
X110957380Y-73636238D01*
X111957380Y-72302904D02*
X111481190Y-72636238D01*
X111957380Y-72874333D02*
X110957380Y-72874333D01*
X110957380Y-72493380D01*
X111005000Y-72398142D01*
X111052619Y-72350523D01*
X111147857Y-72302904D01*
X111290714Y-72302904D01*
X111385952Y-72350523D01*
X111433571Y-72398142D01*
X111481190Y-72493380D01*
X111481190Y-72874333D01*
%TO.C,U1*%
X89408095Y-73620380D02*
X89408095Y-74429904D01*
X89455714Y-74525142D01*
X89503333Y-74572761D01*
X89598571Y-74620380D01*
X89789047Y-74620380D01*
X89884285Y-74572761D01*
X89931904Y-74525142D01*
X89979523Y-74429904D01*
X89979523Y-73620380D01*
X90979523Y-74620380D02*
X90408095Y-74620380D01*
X90693809Y-74620380D02*
X90693809Y-73620380D01*
X90598571Y-73763238D01*
X90503333Y-73858476D01*
X90408095Y-73906095D01*
%TD*%
M02*
