%TF.GenerationSoftware,KiCad,Pcbnew,(5.1.10-1-10_14)*%
%TF.CreationDate,2021-10-22T00:21:01+02:00*%
%TF.ProjectId,breadboard-psu,62726561-6462-46f6-9172-642d7073752e,a*%
%TF.SameCoordinates,Original*%
%TF.FileFunction,Copper,L1,Top*%
%TF.FilePolarity,Positive*%
%FSLAX46Y46*%
G04 Gerber Fmt 4.6, Leading zero omitted, Abs format (unit mm)*
G04 Created by KiCad (PCBNEW (5.1.10-1-10_14)) date 2021-10-22 00:21:01*
%MOMM*%
%LPD*%
G01*
G04 APERTURE LIST*
%TA.AperFunction,NonConductor*%
%ADD10C,0.300000*%
%TD*%
%TA.AperFunction,ComponentPad*%
%ADD11C,1.900000*%
%TD*%
%TA.AperFunction,ComponentPad*%
%ADD12R,1.900000X1.900000*%
%TD*%
%TA.AperFunction,ComponentPad*%
%ADD13R,2.000000X2.000000*%
%TD*%
%TA.AperFunction,ComponentPad*%
%ADD14C,2.000000*%
%TD*%
%TA.AperFunction,ComponentPad*%
%ADD15R,1.600000X1.600000*%
%TD*%
%TA.AperFunction,ComponentPad*%
%ADD16C,1.600000*%
%TD*%
%TA.AperFunction,ComponentPad*%
%ADD17R,2.200000X2.200000*%
%TD*%
%TA.AperFunction,ComponentPad*%
%ADD18O,2.200000X2.200000*%
%TD*%
%TA.AperFunction,ComponentPad*%
%ADD19R,2.600000X2.600000*%
%TD*%
%TA.AperFunction,ComponentPad*%
%ADD20C,2.600000*%
%TD*%
%TA.AperFunction,ComponentPad*%
%ADD21R,1.700000X1.700000*%
%TD*%
%TA.AperFunction,ComponentPad*%
%ADD22O,1.700000X1.700000*%
%TD*%
%TA.AperFunction,ComponentPad*%
%ADD23R,1.905000X2.000000*%
%TD*%
%TA.AperFunction,ComponentPad*%
%ADD24O,1.905000X2.000000*%
%TD*%
%TA.AperFunction,Conductor*%
%ADD25C,0.500000*%
%TD*%
%TA.AperFunction,Conductor*%
%ADD26C,0.300000*%
%TD*%
%TA.AperFunction,Conductor*%
%ADD27C,0.250000*%
%TD*%
%TA.AperFunction,Conductor*%
%ADD28C,0.254000*%
%TD*%
%TA.AperFunction,Conductor*%
%ADD29C,0.100000*%
%TD*%
G04 APERTURE END LIST*
D10*
X102405571Y-88618000D02*
X101691285Y-89118000D01*
X102405571Y-89475142D02*
X100905571Y-89475142D01*
X100905571Y-88903714D01*
X100977000Y-88760857D01*
X101048428Y-88689428D01*
X101191285Y-88618000D01*
X101405571Y-88618000D01*
X101548428Y-88689428D01*
X101619857Y-88760857D01*
X101691285Y-88903714D01*
X101691285Y-89475142D01*
X102334142Y-87403714D02*
X102405571Y-87546571D01*
X102405571Y-87832285D01*
X102334142Y-87975142D01*
X102191285Y-88046571D01*
X101619857Y-88046571D01*
X101477000Y-87975142D01*
X101405571Y-87832285D01*
X101405571Y-87546571D01*
X101477000Y-87403714D01*
X101619857Y-87332285D01*
X101762714Y-87332285D01*
X101905571Y-88046571D01*
X101405571Y-86832285D02*
X102405571Y-86475142D01*
X101405571Y-86118000D01*
X102262714Y-85546571D02*
X102334142Y-85475142D01*
X102405571Y-85546571D01*
X102334142Y-85618000D01*
X102262714Y-85546571D01*
X102405571Y-85546571D01*
X101977000Y-84903714D02*
X101977000Y-84189428D01*
X102405571Y-85046571D02*
X100905571Y-84546571D01*
X102405571Y-84046571D01*
D11*
%TO.P,SW1,3*%
%TO.N,/VCC*%
X109982000Y-91995000D03*
%TO.P,SW1,2*%
%TO.N,/VOUT*%
X109982000Y-89495000D03*
D12*
%TO.P,SW1,1*%
%TO.N,Net-(SW1-Pad1)*%
X109982000Y-86995000D03*
%TD*%
D13*
%TO.P,C1,1*%
%TO.N,/VIN*%
X92329000Y-81661000D03*
D14*
%TO.P,C1,2*%
%TO.N,/GND*%
X97329000Y-81661000D03*
%TD*%
D15*
%TO.P,C2,1*%
%TO.N,/VOUT*%
X103251000Y-68834000D03*
D16*
%TO.P,C2,2*%
%TO.N,/GND*%
X105751000Y-68834000D03*
%TD*%
D17*
%TO.P,D1,1*%
%TO.N,/VIN*%
X91186000Y-92837000D03*
D18*
%TO.P,D1,2*%
%TO.N,/IN+*%
X101346000Y-92837000D03*
%TD*%
D17*
%TO.P,D2,1*%
%TO.N,/IN+*%
X107950000Y-103079001D03*
D18*
%TO.P,D2,2*%
%TO.N,/GND*%
X107950000Y-113239001D03*
%TD*%
%TO.P,D3,2*%
%TO.N,/IN-*%
X101324001Y-98109001D03*
D17*
%TO.P,D3,1*%
%TO.N,/VIN*%
X91164001Y-98109001D03*
%TD*%
D18*
%TO.P,D4,2*%
%TO.N,/GND*%
X103632000Y-113284000D03*
D17*
%TO.P,D4,1*%
%TO.N,/IN-*%
X103632000Y-103124000D03*
%TD*%
%TO.P,D5,1*%
%TO.N,/GND*%
%TA.AperFunction,SMDPad,CuDef*%
G36*
G01*
X106974251Y-80082999D02*
X106061751Y-80082999D01*
G75*
G02*
X105818001Y-79839249I0J243750D01*
G01*
X105818001Y-79351749D01*
G75*
G02*
X106061751Y-79107999I243750J0D01*
G01*
X106974251Y-79107999D01*
G75*
G02*
X107218001Y-79351749I0J-243750D01*
G01*
X107218001Y-79839249D01*
G75*
G02*
X106974251Y-80082999I-243750J0D01*
G01*
G37*
%TD.AperFunction*%
%TO.P,D5,2*%
%TO.N,Net-(D5-Pad2)*%
%TA.AperFunction,SMDPad,CuDef*%
G36*
G01*
X106974251Y-78207999D02*
X106061751Y-78207999D01*
G75*
G02*
X105818001Y-77964249I0J243750D01*
G01*
X105818001Y-77476749D01*
G75*
G02*
X106061751Y-77232999I243750J0D01*
G01*
X106974251Y-77232999D01*
G75*
G02*
X107218001Y-77476749I0J-243750D01*
G01*
X107218001Y-77964249D01*
G75*
G02*
X106974251Y-78207999I-243750J0D01*
G01*
G37*
%TD.AperFunction*%
%TD*%
%TO.P,D6,2*%
%TO.N,Net-(D6-Pad2)*%
%TA.AperFunction,SMDPad,CuDef*%
G36*
G01*
X107013251Y-73625999D02*
X106100751Y-73625999D01*
G75*
G02*
X105857001Y-73382249I0J243750D01*
G01*
X105857001Y-72894749D01*
G75*
G02*
X106100751Y-72650999I243750J0D01*
G01*
X107013251Y-72650999D01*
G75*
G02*
X107257001Y-72894749I0J-243750D01*
G01*
X107257001Y-73382249D01*
G75*
G02*
X107013251Y-73625999I-243750J0D01*
G01*
G37*
%TD.AperFunction*%
%TO.P,D6,1*%
%TO.N,/GND*%
%TA.AperFunction,SMDPad,CuDef*%
G36*
G01*
X107013251Y-75500999D02*
X106100751Y-75500999D01*
G75*
G02*
X105857001Y-75257249I0J243750D01*
G01*
X105857001Y-74769749D01*
G75*
G02*
X106100751Y-74525999I243750J0D01*
G01*
X107013251Y-74525999D01*
G75*
G02*
X107257001Y-74769749I0J-243750D01*
G01*
X107257001Y-75257249D01*
G75*
G02*
X107013251Y-75500999I-243750J0D01*
G01*
G37*
%TD.AperFunction*%
%TD*%
D19*
%TO.P,J1,1*%
%TO.N,/IN+*%
X99060000Y-108204000D03*
D20*
%TO.P,J1,2*%
%TO.N,/IN-*%
X93060000Y-108204000D03*
%TO.P,J1,3*%
%TO.N,Net-(J1-Pad3)*%
X96060000Y-112904000D03*
%TD*%
D21*
%TO.P,J2,1*%
%TO.N,/VCC*%
X114554000Y-111125000D03*
D22*
%TO.P,J2,2*%
X117094000Y-111125000D03*
%TO.P,J2,3*%
%TO.N,/GND*%
X114554000Y-113665000D03*
%TO.P,J2,4*%
X117094000Y-113665000D03*
%TD*%
%TO.P,J3,4*%
%TO.N,/GND*%
X117094000Y-67945000D03*
%TO.P,J3,3*%
X114554000Y-67945000D03*
%TO.P,J3,2*%
%TO.N,/VCC*%
X117094000Y-65405000D03*
D21*
%TO.P,J3,1*%
X114554000Y-65405000D03*
%TD*%
%TO.P,R1,1*%
%TO.N,/VOUT*%
%TA.AperFunction,SMDPad,CuDef*%
G36*
G01*
X110305001Y-80061500D02*
X109404999Y-80061500D01*
G75*
G02*
X109155000Y-79811501I0J249999D01*
G01*
X109155000Y-79286499D01*
G75*
G02*
X109404999Y-79036500I249999J0D01*
G01*
X110305001Y-79036500D01*
G75*
G02*
X110555000Y-79286499I0J-249999D01*
G01*
X110555000Y-79811501D01*
G75*
G02*
X110305001Y-80061500I-249999J0D01*
G01*
G37*
%TD.AperFunction*%
%TO.P,R1,2*%
%TO.N,Net-(D5-Pad2)*%
%TA.AperFunction,SMDPad,CuDef*%
G36*
G01*
X110305001Y-78236500D02*
X109404999Y-78236500D01*
G75*
G02*
X109155000Y-77986501I0J249999D01*
G01*
X109155000Y-77461499D01*
G75*
G02*
X109404999Y-77211500I249999J0D01*
G01*
X110305001Y-77211500D01*
G75*
G02*
X110555000Y-77461499I0J-249999D01*
G01*
X110555000Y-77986501D01*
G75*
G02*
X110305001Y-78236500I-249999J0D01*
G01*
G37*
%TD.AperFunction*%
%TD*%
%TO.P,R2,2*%
%TO.N,Net-(D6-Pad2)*%
%TA.AperFunction,SMDPad,CuDef*%
G36*
G01*
X110305001Y-73641000D02*
X109404999Y-73641000D01*
G75*
G02*
X109155000Y-73391001I0J249999D01*
G01*
X109155000Y-72865999D01*
G75*
G02*
X109404999Y-72616000I249999J0D01*
G01*
X110305001Y-72616000D01*
G75*
G02*
X110555000Y-72865999I0J-249999D01*
G01*
X110555000Y-73391001D01*
G75*
G02*
X110305001Y-73641000I-249999J0D01*
G01*
G37*
%TD.AperFunction*%
%TO.P,R2,1*%
%TO.N,/VCC*%
%TA.AperFunction,SMDPad,CuDef*%
G36*
G01*
X110305001Y-75466000D02*
X109404999Y-75466000D01*
G75*
G02*
X109155000Y-75216001I0J249999D01*
G01*
X109155000Y-74690999D01*
G75*
G02*
X109404999Y-74441000I249999J0D01*
G01*
X110305001Y-74441000D01*
G75*
G02*
X110555000Y-74690999I0J-249999D01*
G01*
X110555000Y-75216001D01*
G75*
G02*
X110305001Y-75466000I-249999J0D01*
G01*
G37*
%TD.AperFunction*%
%TD*%
D23*
%TO.P,U1,1*%
%TO.N,/VIN*%
X92075000Y-71628000D03*
D24*
%TO.P,U1,2*%
%TO.N,/GND*%
X94615000Y-71628000D03*
%TO.P,U1,3*%
%TO.N,/VOUT*%
X97155000Y-71628000D03*
%TD*%
D25*
%TO.N,/VIN*%
X91164001Y-82825999D02*
X92329000Y-81661000D01*
X91164001Y-98109001D02*
X91164001Y-82825999D01*
D26*
X92075000Y-81407000D02*
X92329000Y-81661000D01*
D25*
X92075000Y-71628000D02*
X92075000Y-81407000D01*
%TO.N,/VOUT*%
X107823000Y-85217000D02*
X107823000Y-88773000D01*
D27*
X109855000Y-83185000D02*
X107823000Y-85217000D01*
D25*
X108545000Y-89495000D02*
X109982000Y-89495000D01*
X107823000Y-88773000D02*
X108545000Y-89495000D01*
D27*
X109855000Y-79549000D02*
X109855000Y-83185000D01*
D25*
X100457000Y-71628000D02*
X103251000Y-68834000D01*
X97155000Y-71628000D02*
X100457000Y-71628000D01*
X100457000Y-77851000D02*
X107823000Y-85217000D01*
X100457000Y-71628000D02*
X100457000Y-77851000D01*
%TO.N,/IN+*%
X101346000Y-92837000D02*
X104902000Y-92837000D01*
X104648000Y-108204000D02*
X105283000Y-108204000D01*
X104648000Y-108204000D02*
X99060000Y-108204000D01*
X107950000Y-105537000D02*
X107950000Y-103079001D01*
X105283000Y-108204000D02*
X107950000Y-105537000D01*
X107950000Y-95885000D02*
X107124500Y-95059500D01*
X107950000Y-103079001D02*
X107950000Y-95885000D01*
X104902000Y-92837000D02*
X107124500Y-95059500D01*
%TO.N,/IN-*%
X93060000Y-108204000D02*
X93060000Y-103917000D01*
X98867999Y-98109001D02*
X101324001Y-98109001D01*
X93060000Y-103917000D02*
X98867999Y-98109001D01*
X101324001Y-98109001D02*
X102808001Y-98109001D01*
X103632000Y-98933000D02*
X103632000Y-103124000D01*
X102808001Y-98109001D02*
X103632000Y-98933000D01*
D27*
%TO.N,Net-(D5-Pad2)*%
X109851499Y-77720499D02*
X109855000Y-77724000D01*
X106518001Y-77720499D02*
X109851499Y-77720499D01*
%TO.N,Net-(D6-Pad2)*%
X109845001Y-73138499D02*
X109855000Y-73128500D01*
X106557001Y-73138499D02*
X109845001Y-73138499D01*
D25*
%TO.N,/VCC*%
X109982000Y-91995000D02*
X111633000Y-90344000D01*
X111633000Y-90344000D02*
X111633000Y-75565000D01*
D27*
X111021500Y-74953500D02*
X109855000Y-74953500D01*
X111633000Y-75565000D02*
X111021500Y-74953500D01*
D25*
X111633000Y-75565000D02*
X111633000Y-66548000D01*
X112776000Y-65405000D02*
X117094000Y-65405000D01*
X111633000Y-66548000D02*
X112776000Y-65405000D01*
X111633000Y-90344000D02*
X111633000Y-109855000D01*
X112903000Y-111125000D02*
X117094000Y-111125000D01*
X111633000Y-109855000D02*
X112903000Y-111125000D01*
%TD*%
D28*
%TO.N,/GND*%
X113173463Y-64200506D02*
X113114498Y-64310820D01*
X113078188Y-64430518D01*
X113069375Y-64520000D01*
X112819465Y-64520000D01*
X112775999Y-64515719D01*
X112732533Y-64520000D01*
X112732523Y-64520000D01*
X112602510Y-64532805D01*
X112435687Y-64583411D01*
X112281941Y-64665589D01*
X112281939Y-64665590D01*
X112281940Y-64665590D01*
X112180953Y-64748468D01*
X112180951Y-64748470D01*
X112147183Y-64776183D01*
X112119470Y-64809951D01*
X111037951Y-65891471D01*
X111004184Y-65919183D01*
X110976471Y-65952951D01*
X110976468Y-65952954D01*
X110893590Y-66053941D01*
X110811412Y-66207687D01*
X110760805Y-66374510D01*
X110743719Y-66548000D01*
X110748001Y-66591479D01*
X110748000Y-72100663D01*
X110644851Y-72045528D01*
X110478255Y-71994992D01*
X110305001Y-71977928D01*
X109404999Y-71977928D01*
X109231745Y-71994992D01*
X109065149Y-72045528D01*
X108911613Y-72127595D01*
X108777038Y-72238038D01*
X108666595Y-72372613D01*
X108663449Y-72378499D01*
X107724846Y-72378499D01*
X107636793Y-72271207D01*
X107503165Y-72161541D01*
X107350710Y-72080052D01*
X107185286Y-72029871D01*
X107013251Y-72012927D01*
X106100751Y-72012927D01*
X105928716Y-72029871D01*
X105763292Y-72080052D01*
X105610837Y-72161541D01*
X105477209Y-72271207D01*
X105367543Y-72404835D01*
X105286054Y-72557290D01*
X105235873Y-72722714D01*
X105218929Y-72894749D01*
X105218929Y-73382249D01*
X105235873Y-73554284D01*
X105286054Y-73719708D01*
X105367543Y-73872163D01*
X105477209Y-74005791D01*
X105483565Y-74011007D01*
X105405816Y-74074814D01*
X105326464Y-74171505D01*
X105267499Y-74281819D01*
X105231189Y-74401517D01*
X105218929Y-74525999D01*
X105222001Y-74727749D01*
X105380751Y-74886499D01*
X106430001Y-74886499D01*
X106430001Y-74866499D01*
X106684001Y-74866499D01*
X106684001Y-74886499D01*
X107733251Y-74886499D01*
X107892001Y-74727749D01*
X107895073Y-74525999D01*
X107882813Y-74401517D01*
X107846503Y-74281819D01*
X107787538Y-74171505D01*
X107708186Y-74074814D01*
X107630437Y-74011007D01*
X107636793Y-74005791D01*
X107724846Y-73898499D01*
X108678176Y-73898499D01*
X108777038Y-74018962D01*
X108803891Y-74041000D01*
X108777038Y-74063038D01*
X108666595Y-74197613D01*
X108584528Y-74351149D01*
X108533992Y-74517745D01*
X108516928Y-74690999D01*
X108516928Y-75216001D01*
X108533992Y-75389255D01*
X108584528Y-75555851D01*
X108666595Y-75709387D01*
X108777038Y-75843962D01*
X108911613Y-75954405D01*
X109065149Y-76036472D01*
X109231745Y-76087008D01*
X109404999Y-76104072D01*
X110305001Y-76104072D01*
X110478255Y-76087008D01*
X110644851Y-76036472D01*
X110748001Y-75981337D01*
X110748001Y-76696163D01*
X110644851Y-76641028D01*
X110478255Y-76590492D01*
X110305001Y-76573428D01*
X109404999Y-76573428D01*
X109231745Y-76590492D01*
X109065149Y-76641028D01*
X108911613Y-76723095D01*
X108777038Y-76833538D01*
X108672844Y-76960499D01*
X107685846Y-76960499D01*
X107597793Y-76853207D01*
X107464165Y-76743541D01*
X107311710Y-76662052D01*
X107146286Y-76611871D01*
X106974251Y-76594927D01*
X106061751Y-76594927D01*
X105889716Y-76611871D01*
X105724292Y-76662052D01*
X105571837Y-76743541D01*
X105438209Y-76853207D01*
X105328543Y-76986835D01*
X105247054Y-77139290D01*
X105196873Y-77304714D01*
X105179929Y-77476749D01*
X105179929Y-77964249D01*
X105196873Y-78136284D01*
X105247054Y-78301708D01*
X105328543Y-78454163D01*
X105438209Y-78587791D01*
X105444565Y-78593007D01*
X105366816Y-78656814D01*
X105287464Y-78753505D01*
X105228499Y-78863819D01*
X105192189Y-78983517D01*
X105179929Y-79107999D01*
X105183001Y-79309749D01*
X105341751Y-79468499D01*
X106391001Y-79468499D01*
X106391001Y-79448499D01*
X106645001Y-79448499D01*
X106645001Y-79468499D01*
X107694251Y-79468499D01*
X107853001Y-79309749D01*
X107856073Y-79107999D01*
X107843813Y-78983517D01*
X107807503Y-78863819D01*
X107748538Y-78753505D01*
X107669186Y-78656814D01*
X107591437Y-78593007D01*
X107597793Y-78587791D01*
X107685846Y-78480499D01*
X108667097Y-78480499D01*
X108777038Y-78614462D01*
X108803891Y-78636500D01*
X108777038Y-78658538D01*
X108666595Y-78793113D01*
X108584528Y-78946649D01*
X108533992Y-79113245D01*
X108516928Y-79286499D01*
X108516928Y-79811501D01*
X108533992Y-79984755D01*
X108584528Y-80151351D01*
X108666595Y-80304887D01*
X108777038Y-80439462D01*
X108911613Y-80549905D01*
X109065149Y-80631972D01*
X109095000Y-80641027D01*
X109095001Y-82870197D01*
X107911389Y-84053810D01*
X103940578Y-80082999D01*
X105179929Y-80082999D01*
X105192189Y-80207481D01*
X105228499Y-80327179D01*
X105287464Y-80437493D01*
X105366816Y-80534184D01*
X105463507Y-80613536D01*
X105573821Y-80672501D01*
X105693519Y-80708811D01*
X105818001Y-80721071D01*
X106232251Y-80717999D01*
X106391001Y-80559249D01*
X106391001Y-79722499D01*
X106645001Y-79722499D01*
X106645001Y-80559249D01*
X106803751Y-80717999D01*
X107218001Y-80721071D01*
X107342483Y-80708811D01*
X107462181Y-80672501D01*
X107572495Y-80613536D01*
X107669186Y-80534184D01*
X107748538Y-80437493D01*
X107807503Y-80327179D01*
X107843813Y-80207481D01*
X107856073Y-80082999D01*
X107853001Y-79881249D01*
X107694251Y-79722499D01*
X106645001Y-79722499D01*
X106391001Y-79722499D01*
X105341751Y-79722499D01*
X105183001Y-79881249D01*
X105179929Y-80082999D01*
X103940578Y-80082999D01*
X101342000Y-77484422D01*
X101342000Y-75500999D01*
X105218929Y-75500999D01*
X105231189Y-75625481D01*
X105267499Y-75745179D01*
X105326464Y-75855493D01*
X105405816Y-75952184D01*
X105502507Y-76031536D01*
X105612821Y-76090501D01*
X105732519Y-76126811D01*
X105857001Y-76139071D01*
X106271251Y-76135999D01*
X106430001Y-75977249D01*
X106430001Y-75140499D01*
X106684001Y-75140499D01*
X106684001Y-75977249D01*
X106842751Y-76135999D01*
X107257001Y-76139071D01*
X107381483Y-76126811D01*
X107501181Y-76090501D01*
X107611495Y-76031536D01*
X107708186Y-75952184D01*
X107787538Y-75855493D01*
X107846503Y-75745179D01*
X107882813Y-75625481D01*
X107895073Y-75500999D01*
X107892001Y-75299249D01*
X107733251Y-75140499D01*
X106684001Y-75140499D01*
X106430001Y-75140499D01*
X105380751Y-75140499D01*
X105222001Y-75299249D01*
X105218929Y-75500999D01*
X101342000Y-75500999D01*
X101342000Y-71994578D01*
X103064507Y-70272072D01*
X104051000Y-70272072D01*
X104175482Y-70259812D01*
X104295180Y-70223502D01*
X104405494Y-70164537D01*
X104502185Y-70085185D01*
X104581537Y-69988494D01*
X104640502Y-69878180D01*
X104656117Y-69826702D01*
X104937903Y-69826702D01*
X105009486Y-70070671D01*
X105264996Y-70191571D01*
X105539184Y-70260300D01*
X105821512Y-70274217D01*
X106101130Y-70232787D01*
X106367292Y-70137603D01*
X106492514Y-70070671D01*
X106564097Y-69826702D01*
X105751000Y-69013605D01*
X104937903Y-69826702D01*
X104656117Y-69826702D01*
X104676812Y-69758482D01*
X104689072Y-69634000D01*
X104689072Y-69626785D01*
X104758298Y-69647097D01*
X105571395Y-68834000D01*
X105930605Y-68834000D01*
X106743702Y-69647097D01*
X106987671Y-69575514D01*
X107108571Y-69320004D01*
X107177300Y-69045816D01*
X107191217Y-68763488D01*
X107149787Y-68483870D01*
X107054603Y-68217708D01*
X106987671Y-68092486D01*
X106743702Y-68020903D01*
X105930605Y-68834000D01*
X105571395Y-68834000D01*
X104758298Y-68020903D01*
X104689072Y-68041215D01*
X104689072Y-68034000D01*
X104676812Y-67909518D01*
X104656118Y-67841298D01*
X104937903Y-67841298D01*
X105751000Y-68654395D01*
X106564097Y-67841298D01*
X106492514Y-67597329D01*
X106237004Y-67476429D01*
X105962816Y-67407700D01*
X105680488Y-67393783D01*
X105400870Y-67435213D01*
X105134708Y-67530397D01*
X105009486Y-67597329D01*
X104937903Y-67841298D01*
X104656118Y-67841298D01*
X104640502Y-67789820D01*
X104581537Y-67679506D01*
X104502185Y-67582815D01*
X104405494Y-67503463D01*
X104295180Y-67444498D01*
X104175482Y-67408188D01*
X104051000Y-67395928D01*
X102451000Y-67395928D01*
X102326518Y-67408188D01*
X102206820Y-67444498D01*
X102096506Y-67503463D01*
X101999815Y-67582815D01*
X101920463Y-67679506D01*
X101861498Y-67789820D01*
X101825188Y-67909518D01*
X101812928Y-68034000D01*
X101812928Y-69020493D01*
X100090422Y-70743000D01*
X98507394Y-70743000D01*
X98481345Y-70694265D01*
X98282963Y-70452537D01*
X98041234Y-70254155D01*
X97765448Y-70106745D01*
X97466203Y-70015970D01*
X97155000Y-69985319D01*
X96843796Y-70015970D01*
X96544551Y-70106745D01*
X96268765Y-70254155D01*
X96027037Y-70452537D01*
X95879838Y-70631900D01*
X95724437Y-70446685D01*
X95481923Y-70252031D01*
X95206094Y-70108429D01*
X94987980Y-70037437D01*
X94742000Y-70157406D01*
X94742000Y-71501000D01*
X94762000Y-71501000D01*
X94762000Y-71755000D01*
X94742000Y-71755000D01*
X94742000Y-73098594D01*
X94987980Y-73218563D01*
X95206094Y-73147571D01*
X95481923Y-73003969D01*
X95724437Y-72809315D01*
X95879837Y-72624101D01*
X96027037Y-72803463D01*
X96268766Y-73001845D01*
X96544552Y-73149255D01*
X96843797Y-73240030D01*
X97155000Y-73270681D01*
X97466204Y-73240030D01*
X97765449Y-73149255D01*
X98041235Y-73001845D01*
X98282963Y-72803463D01*
X98481345Y-72561734D01*
X98507394Y-72513000D01*
X99572000Y-72513000D01*
X99572001Y-77807521D01*
X99567719Y-77851000D01*
X99584805Y-78024490D01*
X99635412Y-78191313D01*
X99717590Y-78345059D01*
X99800468Y-78446046D01*
X99800471Y-78446049D01*
X99828184Y-78479817D01*
X99861952Y-78507530D01*
X106938000Y-85583579D01*
X106938001Y-88729521D01*
X106933719Y-88773000D01*
X106950805Y-88946490D01*
X107001412Y-89113313D01*
X107083590Y-89267059D01*
X107166468Y-89368046D01*
X107166471Y-89368049D01*
X107194184Y-89401817D01*
X107227951Y-89429529D01*
X107888470Y-90090049D01*
X107916183Y-90123817D01*
X107949951Y-90151530D01*
X107949953Y-90151532D01*
X107973078Y-90170510D01*
X108050941Y-90234411D01*
X108204687Y-90316589D01*
X108371510Y-90367195D01*
X108501523Y-90380000D01*
X108501533Y-90380000D01*
X108544999Y-90384281D01*
X108588465Y-90380000D01*
X108667075Y-90380000D01*
X108750850Y-90505379D01*
X108971621Y-90726150D01*
X108999832Y-90745000D01*
X108971621Y-90763850D01*
X108750850Y-90984621D01*
X108577391Y-91244221D01*
X108457911Y-91532673D01*
X108397000Y-91838891D01*
X108397000Y-92151109D01*
X108457911Y-92457327D01*
X108577391Y-92745779D01*
X108750850Y-93005379D01*
X108971621Y-93226150D01*
X109231221Y-93399609D01*
X109519673Y-93519089D01*
X109825891Y-93580000D01*
X110138109Y-93580000D01*
X110444327Y-93519089D01*
X110732779Y-93399609D01*
X110748000Y-93389439D01*
X110748001Y-109811521D01*
X110743719Y-109855000D01*
X110760805Y-110028490D01*
X110811412Y-110195313D01*
X110893590Y-110349059D01*
X110976468Y-110450046D01*
X110976471Y-110450049D01*
X111004184Y-110483817D01*
X111037951Y-110511529D01*
X112246470Y-111720049D01*
X112274183Y-111753817D01*
X112307951Y-111781530D01*
X112307953Y-111781532D01*
X112365075Y-111828411D01*
X112408941Y-111864411D01*
X112562687Y-111946589D01*
X112729510Y-111997195D01*
X112859523Y-112010000D01*
X112859533Y-112010000D01*
X112902999Y-112014281D01*
X112946465Y-112010000D01*
X113069375Y-112010000D01*
X113078188Y-112099482D01*
X113114498Y-112219180D01*
X113173463Y-112329494D01*
X113252815Y-112426185D01*
X113349506Y-112505537D01*
X113459820Y-112564502D01*
X113540466Y-112588966D01*
X113456412Y-112664731D01*
X113282359Y-112898080D01*
X113157175Y-113160901D01*
X113112524Y-113308110D01*
X113233845Y-113538000D01*
X114427000Y-113538000D01*
X114427000Y-113518000D01*
X114681000Y-113518000D01*
X114681000Y-113538000D01*
X116967000Y-113538000D01*
X116967000Y-113518000D01*
X117221000Y-113518000D01*
X117221000Y-113538000D01*
X117241000Y-113538000D01*
X117241000Y-113792000D01*
X117221000Y-113792000D01*
X117221000Y-113812000D01*
X116967000Y-113812000D01*
X116967000Y-113792000D01*
X114681000Y-113792000D01*
X114681000Y-113812000D01*
X114427000Y-113812000D01*
X114427000Y-113792000D01*
X113233845Y-113792000D01*
X113112524Y-114021890D01*
X113157175Y-114169099D01*
X113282359Y-114431920D01*
X113456412Y-114665269D01*
X113672645Y-114860178D01*
X113756285Y-114910000D01*
X108406044Y-114910000D01*
X108559094Y-114863576D01*
X108864329Y-114713532D01*
X109134427Y-114506823D01*
X109359008Y-114251392D01*
X109529442Y-113957055D01*
X109639179Y-113635124D01*
X109521600Y-113366001D01*
X108077000Y-113366001D01*
X108077000Y-113386001D01*
X107823000Y-113386001D01*
X107823000Y-113366001D01*
X106378400Y-113366001D01*
X106260821Y-113635124D01*
X106370558Y-113957055D01*
X106540992Y-114251392D01*
X106765573Y-114506823D01*
X107035671Y-114713532D01*
X107340906Y-114863576D01*
X107493956Y-114910000D01*
X104236396Y-114910000D01*
X104241094Y-114908575D01*
X104546329Y-114758531D01*
X104816427Y-114551822D01*
X105041008Y-114296391D01*
X105211442Y-114002054D01*
X105321179Y-113680123D01*
X105203600Y-113411000D01*
X103759000Y-113411000D01*
X103759000Y-113431000D01*
X103505000Y-113431000D01*
X103505000Y-113411000D01*
X102060400Y-113411000D01*
X101942821Y-113680123D01*
X102052558Y-114002054D01*
X102222992Y-114296391D01*
X102447573Y-114551822D01*
X102717671Y-114758531D01*
X103022906Y-114908575D01*
X103027604Y-114910000D01*
X89560000Y-114910000D01*
X89560000Y-112713419D01*
X94125000Y-112713419D01*
X94125000Y-113094581D01*
X94199361Y-113468419D01*
X94345225Y-113820566D01*
X94556987Y-114137491D01*
X94826509Y-114407013D01*
X95143434Y-114618775D01*
X95495581Y-114764639D01*
X95869419Y-114839000D01*
X96250581Y-114839000D01*
X96624419Y-114764639D01*
X96976566Y-114618775D01*
X97293491Y-114407013D01*
X97563013Y-114137491D01*
X97774775Y-113820566D01*
X97920639Y-113468419D01*
X97995000Y-113094581D01*
X97995000Y-112887877D01*
X101942821Y-112887877D01*
X102060400Y-113157000D01*
X103505000Y-113157000D01*
X103505000Y-111712875D01*
X103759000Y-111712875D01*
X103759000Y-113157000D01*
X105203600Y-113157000D01*
X105321179Y-112887877D01*
X105305841Y-112842878D01*
X106260821Y-112842878D01*
X106378400Y-113112001D01*
X107823000Y-113112001D01*
X107823000Y-111667876D01*
X108077000Y-111667876D01*
X108077000Y-113112001D01*
X109521600Y-113112001D01*
X109639179Y-112842878D01*
X109529442Y-112520947D01*
X109359008Y-112226610D01*
X109134427Y-111971179D01*
X108864329Y-111764470D01*
X108559094Y-111614426D01*
X108346122Y-111549826D01*
X108077000Y-111667876D01*
X107823000Y-111667876D01*
X107553878Y-111549826D01*
X107340906Y-111614426D01*
X107035671Y-111764470D01*
X106765573Y-111971179D01*
X106540992Y-112226610D01*
X106370558Y-112520947D01*
X106260821Y-112842878D01*
X105305841Y-112842878D01*
X105211442Y-112565946D01*
X105041008Y-112271609D01*
X104816427Y-112016178D01*
X104546329Y-111809469D01*
X104241094Y-111659425D01*
X104028122Y-111594825D01*
X103759000Y-111712875D01*
X103505000Y-111712875D01*
X103235878Y-111594825D01*
X103022906Y-111659425D01*
X102717671Y-111809469D01*
X102447573Y-112016178D01*
X102222992Y-112271609D01*
X102052558Y-112565946D01*
X101942821Y-112887877D01*
X97995000Y-112887877D01*
X97995000Y-112713419D01*
X97920639Y-112339581D01*
X97774775Y-111987434D01*
X97563013Y-111670509D01*
X97293491Y-111400987D01*
X96976566Y-111189225D01*
X96624419Y-111043361D01*
X96250581Y-110969000D01*
X95869419Y-110969000D01*
X95495581Y-111043361D01*
X95143434Y-111189225D01*
X94826509Y-111400987D01*
X94556987Y-111670509D01*
X94345225Y-111987434D01*
X94199361Y-112339581D01*
X94125000Y-112713419D01*
X89560000Y-112713419D01*
X89560000Y-108013419D01*
X91125000Y-108013419D01*
X91125000Y-108394581D01*
X91199361Y-108768419D01*
X91345225Y-109120566D01*
X91556987Y-109437491D01*
X91826509Y-109707013D01*
X92143434Y-109918775D01*
X92495581Y-110064639D01*
X92869419Y-110139000D01*
X93250581Y-110139000D01*
X93624419Y-110064639D01*
X93976566Y-109918775D01*
X94293491Y-109707013D01*
X94563013Y-109437491D01*
X94774775Y-109120566D01*
X94920639Y-108768419D01*
X94995000Y-108394581D01*
X94995000Y-108013419D01*
X94920639Y-107639581D01*
X94774775Y-107287434D01*
X94563013Y-106970509D01*
X94496504Y-106904000D01*
X97121928Y-106904000D01*
X97121928Y-109504000D01*
X97134188Y-109628482D01*
X97170498Y-109748180D01*
X97229463Y-109858494D01*
X97308815Y-109955185D01*
X97405506Y-110034537D01*
X97515820Y-110093502D01*
X97635518Y-110129812D01*
X97760000Y-110142072D01*
X100360000Y-110142072D01*
X100484482Y-110129812D01*
X100604180Y-110093502D01*
X100714494Y-110034537D01*
X100811185Y-109955185D01*
X100890537Y-109858494D01*
X100949502Y-109748180D01*
X100985812Y-109628482D01*
X100998072Y-109504000D01*
X100998072Y-109089000D01*
X105239531Y-109089000D01*
X105283000Y-109093281D01*
X105326469Y-109089000D01*
X105326477Y-109089000D01*
X105456490Y-109076195D01*
X105623313Y-109025589D01*
X105777059Y-108943411D01*
X105911817Y-108832817D01*
X105939534Y-108799044D01*
X108545050Y-106193529D01*
X108578817Y-106165817D01*
X108689411Y-106031059D01*
X108689412Y-106031058D01*
X108771589Y-105877314D01*
X108822195Y-105710490D01*
X108822195Y-105710489D01*
X108835000Y-105580477D01*
X108835000Y-105580469D01*
X108839281Y-105537000D01*
X108835000Y-105493531D01*
X108835000Y-104817073D01*
X109050000Y-104817073D01*
X109174482Y-104804813D01*
X109294180Y-104768503D01*
X109404494Y-104709538D01*
X109501185Y-104630186D01*
X109580537Y-104533495D01*
X109639502Y-104423181D01*
X109675812Y-104303483D01*
X109688072Y-104179001D01*
X109688072Y-101979001D01*
X109675812Y-101854519D01*
X109639502Y-101734821D01*
X109580537Y-101624507D01*
X109501185Y-101527816D01*
X109404494Y-101448464D01*
X109294180Y-101389499D01*
X109174482Y-101353189D01*
X109050000Y-101340929D01*
X108835000Y-101340929D01*
X108835000Y-95928465D01*
X108839281Y-95884999D01*
X108835000Y-95841533D01*
X108835000Y-95841523D01*
X108822195Y-95711510D01*
X108771589Y-95544687D01*
X108689411Y-95390941D01*
X108578817Y-95256183D01*
X108545049Y-95228470D01*
X107781036Y-94464458D01*
X107781032Y-94464453D01*
X105558534Y-92241956D01*
X105530817Y-92208183D01*
X105396059Y-92097589D01*
X105242313Y-92015411D01*
X105075490Y-91964805D01*
X104945477Y-91952000D01*
X104945469Y-91952000D01*
X104902000Y-91947719D01*
X104858531Y-91952000D01*
X102841329Y-91952000D01*
X102693663Y-91731002D01*
X102451998Y-91489337D01*
X102167831Y-91299463D01*
X101852081Y-91168675D01*
X101516883Y-91102000D01*
X101175117Y-91102000D01*
X100839919Y-91168675D01*
X100524169Y-91299463D01*
X100240002Y-91489337D01*
X99998337Y-91731002D01*
X99808463Y-92015169D01*
X99677675Y-92330919D01*
X99611000Y-92666117D01*
X99611000Y-93007883D01*
X99677675Y-93343081D01*
X99808463Y-93658831D01*
X99998337Y-93942998D01*
X100240002Y-94184663D01*
X100524169Y-94374537D01*
X100839919Y-94505325D01*
X101175117Y-94572000D01*
X101516883Y-94572000D01*
X101852081Y-94505325D01*
X102167831Y-94374537D01*
X102451998Y-94184663D01*
X102693663Y-93942998D01*
X102841329Y-93722000D01*
X104535422Y-93722000D01*
X106529453Y-95716032D01*
X106529458Y-95716036D01*
X107065001Y-96251580D01*
X107065000Y-101340929D01*
X106850000Y-101340929D01*
X106725518Y-101353189D01*
X106605820Y-101389499D01*
X106495506Y-101448464D01*
X106398815Y-101527816D01*
X106319463Y-101624507D01*
X106260498Y-101734821D01*
X106224188Y-101854519D01*
X106211928Y-101979001D01*
X106211928Y-104179001D01*
X106224188Y-104303483D01*
X106260498Y-104423181D01*
X106319463Y-104533495D01*
X106398815Y-104630186D01*
X106495506Y-104709538D01*
X106605820Y-104768503D01*
X106725518Y-104804813D01*
X106850000Y-104817073D01*
X107065000Y-104817073D01*
X107065000Y-105170421D01*
X104916422Y-107319000D01*
X100998072Y-107319000D01*
X100998072Y-106904000D01*
X100985812Y-106779518D01*
X100949502Y-106659820D01*
X100890537Y-106549506D01*
X100811185Y-106452815D01*
X100714494Y-106373463D01*
X100604180Y-106314498D01*
X100484482Y-106278188D01*
X100360000Y-106265928D01*
X97760000Y-106265928D01*
X97635518Y-106278188D01*
X97515820Y-106314498D01*
X97405506Y-106373463D01*
X97308815Y-106452815D01*
X97229463Y-106549506D01*
X97170498Y-106659820D01*
X97134188Y-106779518D01*
X97121928Y-106904000D01*
X94496504Y-106904000D01*
X94293491Y-106700987D01*
X93976566Y-106489225D01*
X93945000Y-106476150D01*
X93945000Y-104283578D01*
X99234578Y-98994001D01*
X99828672Y-98994001D01*
X99976338Y-99214999D01*
X100218003Y-99456664D01*
X100502170Y-99646538D01*
X100817920Y-99777326D01*
X101153118Y-99844001D01*
X101494884Y-99844001D01*
X101830082Y-99777326D01*
X102145832Y-99646538D01*
X102429999Y-99456664D01*
X102667042Y-99219621D01*
X102747000Y-99299579D01*
X102747001Y-101385928D01*
X102532000Y-101385928D01*
X102407518Y-101398188D01*
X102287820Y-101434498D01*
X102177506Y-101493463D01*
X102080815Y-101572815D01*
X102001463Y-101669506D01*
X101942498Y-101779820D01*
X101906188Y-101899518D01*
X101893928Y-102024000D01*
X101893928Y-104224000D01*
X101906188Y-104348482D01*
X101942498Y-104468180D01*
X102001463Y-104578494D01*
X102080815Y-104675185D01*
X102177506Y-104754537D01*
X102287820Y-104813502D01*
X102407518Y-104849812D01*
X102532000Y-104862072D01*
X104732000Y-104862072D01*
X104856482Y-104849812D01*
X104976180Y-104813502D01*
X105086494Y-104754537D01*
X105183185Y-104675185D01*
X105262537Y-104578494D01*
X105321502Y-104468180D01*
X105357812Y-104348482D01*
X105370072Y-104224000D01*
X105370072Y-102024000D01*
X105357812Y-101899518D01*
X105321502Y-101779820D01*
X105262537Y-101669506D01*
X105183185Y-101572815D01*
X105086494Y-101493463D01*
X104976180Y-101434498D01*
X104856482Y-101398188D01*
X104732000Y-101385928D01*
X104517000Y-101385928D01*
X104517000Y-98976469D01*
X104521281Y-98933000D01*
X104517000Y-98889531D01*
X104517000Y-98889523D01*
X104504195Y-98759510D01*
X104456736Y-98603060D01*
X104453589Y-98592686D01*
X104371411Y-98438941D01*
X104288532Y-98337953D01*
X104288530Y-98337951D01*
X104260817Y-98304183D01*
X104227050Y-98276471D01*
X103464535Y-97513957D01*
X103436818Y-97480184D01*
X103302060Y-97369590D01*
X103148314Y-97287412D01*
X102981491Y-97236806D01*
X102851478Y-97224001D01*
X102851470Y-97224001D01*
X102817066Y-97220613D01*
X102671664Y-97003003D01*
X102429999Y-96761338D01*
X102145832Y-96571464D01*
X101830082Y-96440676D01*
X101494884Y-96374001D01*
X101153118Y-96374001D01*
X100817920Y-96440676D01*
X100502170Y-96571464D01*
X100218003Y-96761338D01*
X99976338Y-97003003D01*
X99828672Y-97224001D01*
X98911468Y-97224001D01*
X98867999Y-97219720D01*
X98824530Y-97224001D01*
X98824522Y-97224001D01*
X98709305Y-97235349D01*
X98694508Y-97236806D01*
X98643902Y-97252158D01*
X98527686Y-97287412D01*
X98373940Y-97369590D01*
X98373938Y-97369591D01*
X98373939Y-97369591D01*
X98272952Y-97452469D01*
X98272950Y-97452471D01*
X98239182Y-97480184D01*
X98211469Y-97513952D01*
X92464952Y-103260470D01*
X92431184Y-103288183D01*
X92403471Y-103321951D01*
X92403468Y-103321954D01*
X92320590Y-103422941D01*
X92238412Y-103576687D01*
X92187805Y-103743510D01*
X92170719Y-103917000D01*
X92175001Y-103960479D01*
X92175000Y-106476150D01*
X92143434Y-106489225D01*
X91826509Y-106700987D01*
X91556987Y-106970509D01*
X91345225Y-107287434D01*
X91199361Y-107639581D01*
X91125000Y-108013419D01*
X89560000Y-108013419D01*
X89560000Y-99595829D01*
X89612816Y-99660186D01*
X89709507Y-99739538D01*
X89819821Y-99798503D01*
X89939519Y-99834813D01*
X90064001Y-99847073D01*
X92264001Y-99847073D01*
X92388483Y-99834813D01*
X92508181Y-99798503D01*
X92618495Y-99739538D01*
X92715186Y-99660186D01*
X92794538Y-99563495D01*
X92853503Y-99453181D01*
X92889813Y-99333483D01*
X92902073Y-99209001D01*
X92902073Y-97009001D01*
X92889813Y-96884519D01*
X92853503Y-96764821D01*
X92794538Y-96654507D01*
X92715186Y-96557816D01*
X92618495Y-96478464D01*
X92508181Y-96419499D01*
X92388483Y-96383189D01*
X92264001Y-96370929D01*
X92049001Y-96370929D01*
X92049001Y-94575072D01*
X92286000Y-94575072D01*
X92410482Y-94562812D01*
X92530180Y-94526502D01*
X92640494Y-94467537D01*
X92737185Y-94388185D01*
X92816537Y-94291494D01*
X92875502Y-94181180D01*
X92911812Y-94061482D01*
X92924072Y-93937000D01*
X92924072Y-91737000D01*
X92911812Y-91612518D01*
X92875502Y-91492820D01*
X92816537Y-91382506D01*
X92737185Y-91285815D01*
X92640494Y-91206463D01*
X92530180Y-91147498D01*
X92410482Y-91111188D01*
X92286000Y-91098928D01*
X92049001Y-91098928D01*
X92049001Y-83299072D01*
X93329000Y-83299072D01*
X93453482Y-83286812D01*
X93573180Y-83250502D01*
X93683494Y-83191537D01*
X93780185Y-83112185D01*
X93859537Y-83015494D01*
X93918502Y-82905180D01*
X93951496Y-82796413D01*
X96373192Y-82796413D01*
X96468956Y-83060814D01*
X96758571Y-83201704D01*
X97070108Y-83283384D01*
X97391595Y-83302718D01*
X97710675Y-83258961D01*
X98015088Y-83153795D01*
X98080720Y-83118714D01*
X99937000Y-83118714D01*
X99937000Y-90617285D01*
X103757000Y-90617285D01*
X103757000Y-83118714D01*
X99937000Y-83118714D01*
X98080720Y-83118714D01*
X98189044Y-83060814D01*
X98284808Y-82796413D01*
X97329000Y-81840605D01*
X96373192Y-82796413D01*
X93951496Y-82796413D01*
X93954812Y-82785482D01*
X93967072Y-82661000D01*
X93967072Y-81723595D01*
X95687282Y-81723595D01*
X95731039Y-82042675D01*
X95836205Y-82347088D01*
X95929186Y-82521044D01*
X96193587Y-82616808D01*
X97149395Y-81661000D01*
X97508605Y-81661000D01*
X98464413Y-82616808D01*
X98728814Y-82521044D01*
X98869704Y-82231429D01*
X98951384Y-81919892D01*
X98970718Y-81598405D01*
X98926961Y-81279325D01*
X98821795Y-80974912D01*
X98728814Y-80800956D01*
X98464413Y-80705192D01*
X97508605Y-81661000D01*
X97149395Y-81661000D01*
X96193587Y-80705192D01*
X95929186Y-80800956D01*
X95788296Y-81090571D01*
X95706616Y-81402108D01*
X95687282Y-81723595D01*
X93967072Y-81723595D01*
X93967072Y-80661000D01*
X93954812Y-80536518D01*
X93951497Y-80525587D01*
X96373192Y-80525587D01*
X97329000Y-81481395D01*
X98284808Y-80525587D01*
X98189044Y-80261186D01*
X97899429Y-80120296D01*
X97587892Y-80038616D01*
X97266405Y-80019282D01*
X96947325Y-80063039D01*
X96642912Y-80168205D01*
X96468956Y-80261186D01*
X96373192Y-80525587D01*
X93951497Y-80525587D01*
X93918502Y-80416820D01*
X93859537Y-80306506D01*
X93780185Y-80209815D01*
X93683494Y-80130463D01*
X93573180Y-80071498D01*
X93453482Y-80035188D01*
X93329000Y-80022928D01*
X92960000Y-80022928D01*
X92960000Y-73266072D01*
X93027500Y-73266072D01*
X93151982Y-73253812D01*
X93271680Y-73217502D01*
X93381994Y-73158537D01*
X93478685Y-73079185D01*
X93558037Y-72982494D01*
X93607059Y-72890781D01*
X93748077Y-73003969D01*
X94023906Y-73147571D01*
X94242020Y-73218563D01*
X94488000Y-73098594D01*
X94488000Y-71755000D01*
X94468000Y-71755000D01*
X94468000Y-71501000D01*
X94488000Y-71501000D01*
X94488000Y-70157406D01*
X94242020Y-70037437D01*
X94023906Y-70108429D01*
X93748077Y-70252031D01*
X93607059Y-70365219D01*
X93558037Y-70273506D01*
X93478685Y-70176815D01*
X93381994Y-70097463D01*
X93271680Y-70038498D01*
X93151982Y-70002188D01*
X93027500Y-69989928D01*
X91122500Y-69989928D01*
X90998018Y-70002188D01*
X90878320Y-70038498D01*
X90768006Y-70097463D01*
X90671315Y-70176815D01*
X90591963Y-70273506D01*
X90532998Y-70383820D01*
X90496688Y-70503518D01*
X90484428Y-70628000D01*
X90484428Y-72628000D01*
X90496688Y-72752482D01*
X90532998Y-72872180D01*
X90591963Y-72982494D01*
X90671315Y-73079185D01*
X90768006Y-73158537D01*
X90878320Y-73217502D01*
X90998018Y-73253812D01*
X91122500Y-73266072D01*
X91190000Y-73266072D01*
X91190001Y-80039592D01*
X91084820Y-80071498D01*
X90974506Y-80130463D01*
X90877815Y-80209815D01*
X90798463Y-80306506D01*
X90739498Y-80416820D01*
X90703188Y-80536518D01*
X90690928Y-80661000D01*
X90690928Y-82047494D01*
X90568952Y-82169470D01*
X90535185Y-82197182D01*
X90507472Y-82230950D01*
X90507469Y-82230953D01*
X90424591Y-82331940D01*
X90342413Y-82485686D01*
X90291806Y-82652509D01*
X90274720Y-82825999D01*
X90279002Y-82869478D01*
X90279001Y-91098928D01*
X90086000Y-91098928D01*
X89961518Y-91111188D01*
X89841820Y-91147498D01*
X89731506Y-91206463D01*
X89634815Y-91285815D01*
X89560000Y-91376978D01*
X89560000Y-64160000D01*
X113206705Y-64160000D01*
X113173463Y-64200506D01*
%TA.AperFunction,Conductor*%
D29*
G36*
X113173463Y-64200506D02*
G01*
X113114498Y-64310820D01*
X113078188Y-64430518D01*
X113069375Y-64520000D01*
X112819465Y-64520000D01*
X112775999Y-64515719D01*
X112732533Y-64520000D01*
X112732523Y-64520000D01*
X112602510Y-64532805D01*
X112435687Y-64583411D01*
X112281941Y-64665589D01*
X112281939Y-64665590D01*
X112281940Y-64665590D01*
X112180953Y-64748468D01*
X112180951Y-64748470D01*
X112147183Y-64776183D01*
X112119470Y-64809951D01*
X111037951Y-65891471D01*
X111004184Y-65919183D01*
X110976471Y-65952951D01*
X110976468Y-65952954D01*
X110893590Y-66053941D01*
X110811412Y-66207687D01*
X110760805Y-66374510D01*
X110743719Y-66548000D01*
X110748001Y-66591479D01*
X110748000Y-72100663D01*
X110644851Y-72045528D01*
X110478255Y-71994992D01*
X110305001Y-71977928D01*
X109404999Y-71977928D01*
X109231745Y-71994992D01*
X109065149Y-72045528D01*
X108911613Y-72127595D01*
X108777038Y-72238038D01*
X108666595Y-72372613D01*
X108663449Y-72378499D01*
X107724846Y-72378499D01*
X107636793Y-72271207D01*
X107503165Y-72161541D01*
X107350710Y-72080052D01*
X107185286Y-72029871D01*
X107013251Y-72012927D01*
X106100751Y-72012927D01*
X105928716Y-72029871D01*
X105763292Y-72080052D01*
X105610837Y-72161541D01*
X105477209Y-72271207D01*
X105367543Y-72404835D01*
X105286054Y-72557290D01*
X105235873Y-72722714D01*
X105218929Y-72894749D01*
X105218929Y-73382249D01*
X105235873Y-73554284D01*
X105286054Y-73719708D01*
X105367543Y-73872163D01*
X105477209Y-74005791D01*
X105483565Y-74011007D01*
X105405816Y-74074814D01*
X105326464Y-74171505D01*
X105267499Y-74281819D01*
X105231189Y-74401517D01*
X105218929Y-74525999D01*
X105222001Y-74727749D01*
X105380751Y-74886499D01*
X106430001Y-74886499D01*
X106430001Y-74866499D01*
X106684001Y-74866499D01*
X106684001Y-74886499D01*
X107733251Y-74886499D01*
X107892001Y-74727749D01*
X107895073Y-74525999D01*
X107882813Y-74401517D01*
X107846503Y-74281819D01*
X107787538Y-74171505D01*
X107708186Y-74074814D01*
X107630437Y-74011007D01*
X107636793Y-74005791D01*
X107724846Y-73898499D01*
X108678176Y-73898499D01*
X108777038Y-74018962D01*
X108803891Y-74041000D01*
X108777038Y-74063038D01*
X108666595Y-74197613D01*
X108584528Y-74351149D01*
X108533992Y-74517745D01*
X108516928Y-74690999D01*
X108516928Y-75216001D01*
X108533992Y-75389255D01*
X108584528Y-75555851D01*
X108666595Y-75709387D01*
X108777038Y-75843962D01*
X108911613Y-75954405D01*
X109065149Y-76036472D01*
X109231745Y-76087008D01*
X109404999Y-76104072D01*
X110305001Y-76104072D01*
X110478255Y-76087008D01*
X110644851Y-76036472D01*
X110748001Y-75981337D01*
X110748001Y-76696163D01*
X110644851Y-76641028D01*
X110478255Y-76590492D01*
X110305001Y-76573428D01*
X109404999Y-76573428D01*
X109231745Y-76590492D01*
X109065149Y-76641028D01*
X108911613Y-76723095D01*
X108777038Y-76833538D01*
X108672844Y-76960499D01*
X107685846Y-76960499D01*
X107597793Y-76853207D01*
X107464165Y-76743541D01*
X107311710Y-76662052D01*
X107146286Y-76611871D01*
X106974251Y-76594927D01*
X106061751Y-76594927D01*
X105889716Y-76611871D01*
X105724292Y-76662052D01*
X105571837Y-76743541D01*
X105438209Y-76853207D01*
X105328543Y-76986835D01*
X105247054Y-77139290D01*
X105196873Y-77304714D01*
X105179929Y-77476749D01*
X105179929Y-77964249D01*
X105196873Y-78136284D01*
X105247054Y-78301708D01*
X105328543Y-78454163D01*
X105438209Y-78587791D01*
X105444565Y-78593007D01*
X105366816Y-78656814D01*
X105287464Y-78753505D01*
X105228499Y-78863819D01*
X105192189Y-78983517D01*
X105179929Y-79107999D01*
X105183001Y-79309749D01*
X105341751Y-79468499D01*
X106391001Y-79468499D01*
X106391001Y-79448499D01*
X106645001Y-79448499D01*
X106645001Y-79468499D01*
X107694251Y-79468499D01*
X107853001Y-79309749D01*
X107856073Y-79107999D01*
X107843813Y-78983517D01*
X107807503Y-78863819D01*
X107748538Y-78753505D01*
X107669186Y-78656814D01*
X107591437Y-78593007D01*
X107597793Y-78587791D01*
X107685846Y-78480499D01*
X108667097Y-78480499D01*
X108777038Y-78614462D01*
X108803891Y-78636500D01*
X108777038Y-78658538D01*
X108666595Y-78793113D01*
X108584528Y-78946649D01*
X108533992Y-79113245D01*
X108516928Y-79286499D01*
X108516928Y-79811501D01*
X108533992Y-79984755D01*
X108584528Y-80151351D01*
X108666595Y-80304887D01*
X108777038Y-80439462D01*
X108911613Y-80549905D01*
X109065149Y-80631972D01*
X109095000Y-80641027D01*
X109095001Y-82870197D01*
X107911389Y-84053810D01*
X103940578Y-80082999D01*
X105179929Y-80082999D01*
X105192189Y-80207481D01*
X105228499Y-80327179D01*
X105287464Y-80437493D01*
X105366816Y-80534184D01*
X105463507Y-80613536D01*
X105573821Y-80672501D01*
X105693519Y-80708811D01*
X105818001Y-80721071D01*
X106232251Y-80717999D01*
X106391001Y-80559249D01*
X106391001Y-79722499D01*
X106645001Y-79722499D01*
X106645001Y-80559249D01*
X106803751Y-80717999D01*
X107218001Y-80721071D01*
X107342483Y-80708811D01*
X107462181Y-80672501D01*
X107572495Y-80613536D01*
X107669186Y-80534184D01*
X107748538Y-80437493D01*
X107807503Y-80327179D01*
X107843813Y-80207481D01*
X107856073Y-80082999D01*
X107853001Y-79881249D01*
X107694251Y-79722499D01*
X106645001Y-79722499D01*
X106391001Y-79722499D01*
X105341751Y-79722499D01*
X105183001Y-79881249D01*
X105179929Y-80082999D01*
X103940578Y-80082999D01*
X101342000Y-77484422D01*
X101342000Y-75500999D01*
X105218929Y-75500999D01*
X105231189Y-75625481D01*
X105267499Y-75745179D01*
X105326464Y-75855493D01*
X105405816Y-75952184D01*
X105502507Y-76031536D01*
X105612821Y-76090501D01*
X105732519Y-76126811D01*
X105857001Y-76139071D01*
X106271251Y-76135999D01*
X106430001Y-75977249D01*
X106430001Y-75140499D01*
X106684001Y-75140499D01*
X106684001Y-75977249D01*
X106842751Y-76135999D01*
X107257001Y-76139071D01*
X107381483Y-76126811D01*
X107501181Y-76090501D01*
X107611495Y-76031536D01*
X107708186Y-75952184D01*
X107787538Y-75855493D01*
X107846503Y-75745179D01*
X107882813Y-75625481D01*
X107895073Y-75500999D01*
X107892001Y-75299249D01*
X107733251Y-75140499D01*
X106684001Y-75140499D01*
X106430001Y-75140499D01*
X105380751Y-75140499D01*
X105222001Y-75299249D01*
X105218929Y-75500999D01*
X101342000Y-75500999D01*
X101342000Y-71994578D01*
X103064507Y-70272072D01*
X104051000Y-70272072D01*
X104175482Y-70259812D01*
X104295180Y-70223502D01*
X104405494Y-70164537D01*
X104502185Y-70085185D01*
X104581537Y-69988494D01*
X104640502Y-69878180D01*
X104656117Y-69826702D01*
X104937903Y-69826702D01*
X105009486Y-70070671D01*
X105264996Y-70191571D01*
X105539184Y-70260300D01*
X105821512Y-70274217D01*
X106101130Y-70232787D01*
X106367292Y-70137603D01*
X106492514Y-70070671D01*
X106564097Y-69826702D01*
X105751000Y-69013605D01*
X104937903Y-69826702D01*
X104656117Y-69826702D01*
X104676812Y-69758482D01*
X104689072Y-69634000D01*
X104689072Y-69626785D01*
X104758298Y-69647097D01*
X105571395Y-68834000D01*
X105930605Y-68834000D01*
X106743702Y-69647097D01*
X106987671Y-69575514D01*
X107108571Y-69320004D01*
X107177300Y-69045816D01*
X107191217Y-68763488D01*
X107149787Y-68483870D01*
X107054603Y-68217708D01*
X106987671Y-68092486D01*
X106743702Y-68020903D01*
X105930605Y-68834000D01*
X105571395Y-68834000D01*
X104758298Y-68020903D01*
X104689072Y-68041215D01*
X104689072Y-68034000D01*
X104676812Y-67909518D01*
X104656118Y-67841298D01*
X104937903Y-67841298D01*
X105751000Y-68654395D01*
X106564097Y-67841298D01*
X106492514Y-67597329D01*
X106237004Y-67476429D01*
X105962816Y-67407700D01*
X105680488Y-67393783D01*
X105400870Y-67435213D01*
X105134708Y-67530397D01*
X105009486Y-67597329D01*
X104937903Y-67841298D01*
X104656118Y-67841298D01*
X104640502Y-67789820D01*
X104581537Y-67679506D01*
X104502185Y-67582815D01*
X104405494Y-67503463D01*
X104295180Y-67444498D01*
X104175482Y-67408188D01*
X104051000Y-67395928D01*
X102451000Y-67395928D01*
X102326518Y-67408188D01*
X102206820Y-67444498D01*
X102096506Y-67503463D01*
X101999815Y-67582815D01*
X101920463Y-67679506D01*
X101861498Y-67789820D01*
X101825188Y-67909518D01*
X101812928Y-68034000D01*
X101812928Y-69020493D01*
X100090422Y-70743000D01*
X98507394Y-70743000D01*
X98481345Y-70694265D01*
X98282963Y-70452537D01*
X98041234Y-70254155D01*
X97765448Y-70106745D01*
X97466203Y-70015970D01*
X97155000Y-69985319D01*
X96843796Y-70015970D01*
X96544551Y-70106745D01*
X96268765Y-70254155D01*
X96027037Y-70452537D01*
X95879838Y-70631900D01*
X95724437Y-70446685D01*
X95481923Y-70252031D01*
X95206094Y-70108429D01*
X94987980Y-70037437D01*
X94742000Y-70157406D01*
X94742000Y-71501000D01*
X94762000Y-71501000D01*
X94762000Y-71755000D01*
X94742000Y-71755000D01*
X94742000Y-73098594D01*
X94987980Y-73218563D01*
X95206094Y-73147571D01*
X95481923Y-73003969D01*
X95724437Y-72809315D01*
X95879837Y-72624101D01*
X96027037Y-72803463D01*
X96268766Y-73001845D01*
X96544552Y-73149255D01*
X96843797Y-73240030D01*
X97155000Y-73270681D01*
X97466204Y-73240030D01*
X97765449Y-73149255D01*
X98041235Y-73001845D01*
X98282963Y-72803463D01*
X98481345Y-72561734D01*
X98507394Y-72513000D01*
X99572000Y-72513000D01*
X99572001Y-77807521D01*
X99567719Y-77851000D01*
X99584805Y-78024490D01*
X99635412Y-78191313D01*
X99717590Y-78345059D01*
X99800468Y-78446046D01*
X99800471Y-78446049D01*
X99828184Y-78479817D01*
X99861952Y-78507530D01*
X106938000Y-85583579D01*
X106938001Y-88729521D01*
X106933719Y-88773000D01*
X106950805Y-88946490D01*
X107001412Y-89113313D01*
X107083590Y-89267059D01*
X107166468Y-89368046D01*
X107166471Y-89368049D01*
X107194184Y-89401817D01*
X107227951Y-89429529D01*
X107888470Y-90090049D01*
X107916183Y-90123817D01*
X107949951Y-90151530D01*
X107949953Y-90151532D01*
X107973078Y-90170510D01*
X108050941Y-90234411D01*
X108204687Y-90316589D01*
X108371510Y-90367195D01*
X108501523Y-90380000D01*
X108501533Y-90380000D01*
X108544999Y-90384281D01*
X108588465Y-90380000D01*
X108667075Y-90380000D01*
X108750850Y-90505379D01*
X108971621Y-90726150D01*
X108999832Y-90745000D01*
X108971621Y-90763850D01*
X108750850Y-90984621D01*
X108577391Y-91244221D01*
X108457911Y-91532673D01*
X108397000Y-91838891D01*
X108397000Y-92151109D01*
X108457911Y-92457327D01*
X108577391Y-92745779D01*
X108750850Y-93005379D01*
X108971621Y-93226150D01*
X109231221Y-93399609D01*
X109519673Y-93519089D01*
X109825891Y-93580000D01*
X110138109Y-93580000D01*
X110444327Y-93519089D01*
X110732779Y-93399609D01*
X110748000Y-93389439D01*
X110748001Y-109811521D01*
X110743719Y-109855000D01*
X110760805Y-110028490D01*
X110811412Y-110195313D01*
X110893590Y-110349059D01*
X110976468Y-110450046D01*
X110976471Y-110450049D01*
X111004184Y-110483817D01*
X111037951Y-110511529D01*
X112246470Y-111720049D01*
X112274183Y-111753817D01*
X112307951Y-111781530D01*
X112307953Y-111781532D01*
X112365075Y-111828411D01*
X112408941Y-111864411D01*
X112562687Y-111946589D01*
X112729510Y-111997195D01*
X112859523Y-112010000D01*
X112859533Y-112010000D01*
X112902999Y-112014281D01*
X112946465Y-112010000D01*
X113069375Y-112010000D01*
X113078188Y-112099482D01*
X113114498Y-112219180D01*
X113173463Y-112329494D01*
X113252815Y-112426185D01*
X113349506Y-112505537D01*
X113459820Y-112564502D01*
X113540466Y-112588966D01*
X113456412Y-112664731D01*
X113282359Y-112898080D01*
X113157175Y-113160901D01*
X113112524Y-113308110D01*
X113233845Y-113538000D01*
X114427000Y-113538000D01*
X114427000Y-113518000D01*
X114681000Y-113518000D01*
X114681000Y-113538000D01*
X116967000Y-113538000D01*
X116967000Y-113518000D01*
X117221000Y-113518000D01*
X117221000Y-113538000D01*
X117241000Y-113538000D01*
X117241000Y-113792000D01*
X117221000Y-113792000D01*
X117221000Y-113812000D01*
X116967000Y-113812000D01*
X116967000Y-113792000D01*
X114681000Y-113792000D01*
X114681000Y-113812000D01*
X114427000Y-113812000D01*
X114427000Y-113792000D01*
X113233845Y-113792000D01*
X113112524Y-114021890D01*
X113157175Y-114169099D01*
X113282359Y-114431920D01*
X113456412Y-114665269D01*
X113672645Y-114860178D01*
X113756285Y-114910000D01*
X108406044Y-114910000D01*
X108559094Y-114863576D01*
X108864329Y-114713532D01*
X109134427Y-114506823D01*
X109359008Y-114251392D01*
X109529442Y-113957055D01*
X109639179Y-113635124D01*
X109521600Y-113366001D01*
X108077000Y-113366001D01*
X108077000Y-113386001D01*
X107823000Y-113386001D01*
X107823000Y-113366001D01*
X106378400Y-113366001D01*
X106260821Y-113635124D01*
X106370558Y-113957055D01*
X106540992Y-114251392D01*
X106765573Y-114506823D01*
X107035671Y-114713532D01*
X107340906Y-114863576D01*
X107493956Y-114910000D01*
X104236396Y-114910000D01*
X104241094Y-114908575D01*
X104546329Y-114758531D01*
X104816427Y-114551822D01*
X105041008Y-114296391D01*
X105211442Y-114002054D01*
X105321179Y-113680123D01*
X105203600Y-113411000D01*
X103759000Y-113411000D01*
X103759000Y-113431000D01*
X103505000Y-113431000D01*
X103505000Y-113411000D01*
X102060400Y-113411000D01*
X101942821Y-113680123D01*
X102052558Y-114002054D01*
X102222992Y-114296391D01*
X102447573Y-114551822D01*
X102717671Y-114758531D01*
X103022906Y-114908575D01*
X103027604Y-114910000D01*
X89560000Y-114910000D01*
X89560000Y-112713419D01*
X94125000Y-112713419D01*
X94125000Y-113094581D01*
X94199361Y-113468419D01*
X94345225Y-113820566D01*
X94556987Y-114137491D01*
X94826509Y-114407013D01*
X95143434Y-114618775D01*
X95495581Y-114764639D01*
X95869419Y-114839000D01*
X96250581Y-114839000D01*
X96624419Y-114764639D01*
X96976566Y-114618775D01*
X97293491Y-114407013D01*
X97563013Y-114137491D01*
X97774775Y-113820566D01*
X97920639Y-113468419D01*
X97995000Y-113094581D01*
X97995000Y-112887877D01*
X101942821Y-112887877D01*
X102060400Y-113157000D01*
X103505000Y-113157000D01*
X103505000Y-111712875D01*
X103759000Y-111712875D01*
X103759000Y-113157000D01*
X105203600Y-113157000D01*
X105321179Y-112887877D01*
X105305841Y-112842878D01*
X106260821Y-112842878D01*
X106378400Y-113112001D01*
X107823000Y-113112001D01*
X107823000Y-111667876D01*
X108077000Y-111667876D01*
X108077000Y-113112001D01*
X109521600Y-113112001D01*
X109639179Y-112842878D01*
X109529442Y-112520947D01*
X109359008Y-112226610D01*
X109134427Y-111971179D01*
X108864329Y-111764470D01*
X108559094Y-111614426D01*
X108346122Y-111549826D01*
X108077000Y-111667876D01*
X107823000Y-111667876D01*
X107553878Y-111549826D01*
X107340906Y-111614426D01*
X107035671Y-111764470D01*
X106765573Y-111971179D01*
X106540992Y-112226610D01*
X106370558Y-112520947D01*
X106260821Y-112842878D01*
X105305841Y-112842878D01*
X105211442Y-112565946D01*
X105041008Y-112271609D01*
X104816427Y-112016178D01*
X104546329Y-111809469D01*
X104241094Y-111659425D01*
X104028122Y-111594825D01*
X103759000Y-111712875D01*
X103505000Y-111712875D01*
X103235878Y-111594825D01*
X103022906Y-111659425D01*
X102717671Y-111809469D01*
X102447573Y-112016178D01*
X102222992Y-112271609D01*
X102052558Y-112565946D01*
X101942821Y-112887877D01*
X97995000Y-112887877D01*
X97995000Y-112713419D01*
X97920639Y-112339581D01*
X97774775Y-111987434D01*
X97563013Y-111670509D01*
X97293491Y-111400987D01*
X96976566Y-111189225D01*
X96624419Y-111043361D01*
X96250581Y-110969000D01*
X95869419Y-110969000D01*
X95495581Y-111043361D01*
X95143434Y-111189225D01*
X94826509Y-111400987D01*
X94556987Y-111670509D01*
X94345225Y-111987434D01*
X94199361Y-112339581D01*
X94125000Y-112713419D01*
X89560000Y-112713419D01*
X89560000Y-108013419D01*
X91125000Y-108013419D01*
X91125000Y-108394581D01*
X91199361Y-108768419D01*
X91345225Y-109120566D01*
X91556987Y-109437491D01*
X91826509Y-109707013D01*
X92143434Y-109918775D01*
X92495581Y-110064639D01*
X92869419Y-110139000D01*
X93250581Y-110139000D01*
X93624419Y-110064639D01*
X93976566Y-109918775D01*
X94293491Y-109707013D01*
X94563013Y-109437491D01*
X94774775Y-109120566D01*
X94920639Y-108768419D01*
X94995000Y-108394581D01*
X94995000Y-108013419D01*
X94920639Y-107639581D01*
X94774775Y-107287434D01*
X94563013Y-106970509D01*
X94496504Y-106904000D01*
X97121928Y-106904000D01*
X97121928Y-109504000D01*
X97134188Y-109628482D01*
X97170498Y-109748180D01*
X97229463Y-109858494D01*
X97308815Y-109955185D01*
X97405506Y-110034537D01*
X97515820Y-110093502D01*
X97635518Y-110129812D01*
X97760000Y-110142072D01*
X100360000Y-110142072D01*
X100484482Y-110129812D01*
X100604180Y-110093502D01*
X100714494Y-110034537D01*
X100811185Y-109955185D01*
X100890537Y-109858494D01*
X100949502Y-109748180D01*
X100985812Y-109628482D01*
X100998072Y-109504000D01*
X100998072Y-109089000D01*
X105239531Y-109089000D01*
X105283000Y-109093281D01*
X105326469Y-109089000D01*
X105326477Y-109089000D01*
X105456490Y-109076195D01*
X105623313Y-109025589D01*
X105777059Y-108943411D01*
X105911817Y-108832817D01*
X105939534Y-108799044D01*
X108545050Y-106193529D01*
X108578817Y-106165817D01*
X108689411Y-106031059D01*
X108689412Y-106031058D01*
X108771589Y-105877314D01*
X108822195Y-105710490D01*
X108822195Y-105710489D01*
X108835000Y-105580477D01*
X108835000Y-105580469D01*
X108839281Y-105537000D01*
X108835000Y-105493531D01*
X108835000Y-104817073D01*
X109050000Y-104817073D01*
X109174482Y-104804813D01*
X109294180Y-104768503D01*
X109404494Y-104709538D01*
X109501185Y-104630186D01*
X109580537Y-104533495D01*
X109639502Y-104423181D01*
X109675812Y-104303483D01*
X109688072Y-104179001D01*
X109688072Y-101979001D01*
X109675812Y-101854519D01*
X109639502Y-101734821D01*
X109580537Y-101624507D01*
X109501185Y-101527816D01*
X109404494Y-101448464D01*
X109294180Y-101389499D01*
X109174482Y-101353189D01*
X109050000Y-101340929D01*
X108835000Y-101340929D01*
X108835000Y-95928465D01*
X108839281Y-95884999D01*
X108835000Y-95841533D01*
X108835000Y-95841523D01*
X108822195Y-95711510D01*
X108771589Y-95544687D01*
X108689411Y-95390941D01*
X108578817Y-95256183D01*
X108545049Y-95228470D01*
X107781036Y-94464458D01*
X107781032Y-94464453D01*
X105558534Y-92241956D01*
X105530817Y-92208183D01*
X105396059Y-92097589D01*
X105242313Y-92015411D01*
X105075490Y-91964805D01*
X104945477Y-91952000D01*
X104945469Y-91952000D01*
X104902000Y-91947719D01*
X104858531Y-91952000D01*
X102841329Y-91952000D01*
X102693663Y-91731002D01*
X102451998Y-91489337D01*
X102167831Y-91299463D01*
X101852081Y-91168675D01*
X101516883Y-91102000D01*
X101175117Y-91102000D01*
X100839919Y-91168675D01*
X100524169Y-91299463D01*
X100240002Y-91489337D01*
X99998337Y-91731002D01*
X99808463Y-92015169D01*
X99677675Y-92330919D01*
X99611000Y-92666117D01*
X99611000Y-93007883D01*
X99677675Y-93343081D01*
X99808463Y-93658831D01*
X99998337Y-93942998D01*
X100240002Y-94184663D01*
X100524169Y-94374537D01*
X100839919Y-94505325D01*
X101175117Y-94572000D01*
X101516883Y-94572000D01*
X101852081Y-94505325D01*
X102167831Y-94374537D01*
X102451998Y-94184663D01*
X102693663Y-93942998D01*
X102841329Y-93722000D01*
X104535422Y-93722000D01*
X106529453Y-95716032D01*
X106529458Y-95716036D01*
X107065001Y-96251580D01*
X107065000Y-101340929D01*
X106850000Y-101340929D01*
X106725518Y-101353189D01*
X106605820Y-101389499D01*
X106495506Y-101448464D01*
X106398815Y-101527816D01*
X106319463Y-101624507D01*
X106260498Y-101734821D01*
X106224188Y-101854519D01*
X106211928Y-101979001D01*
X106211928Y-104179001D01*
X106224188Y-104303483D01*
X106260498Y-104423181D01*
X106319463Y-104533495D01*
X106398815Y-104630186D01*
X106495506Y-104709538D01*
X106605820Y-104768503D01*
X106725518Y-104804813D01*
X106850000Y-104817073D01*
X107065000Y-104817073D01*
X107065000Y-105170421D01*
X104916422Y-107319000D01*
X100998072Y-107319000D01*
X100998072Y-106904000D01*
X100985812Y-106779518D01*
X100949502Y-106659820D01*
X100890537Y-106549506D01*
X100811185Y-106452815D01*
X100714494Y-106373463D01*
X100604180Y-106314498D01*
X100484482Y-106278188D01*
X100360000Y-106265928D01*
X97760000Y-106265928D01*
X97635518Y-106278188D01*
X97515820Y-106314498D01*
X97405506Y-106373463D01*
X97308815Y-106452815D01*
X97229463Y-106549506D01*
X97170498Y-106659820D01*
X97134188Y-106779518D01*
X97121928Y-106904000D01*
X94496504Y-106904000D01*
X94293491Y-106700987D01*
X93976566Y-106489225D01*
X93945000Y-106476150D01*
X93945000Y-104283578D01*
X99234578Y-98994001D01*
X99828672Y-98994001D01*
X99976338Y-99214999D01*
X100218003Y-99456664D01*
X100502170Y-99646538D01*
X100817920Y-99777326D01*
X101153118Y-99844001D01*
X101494884Y-99844001D01*
X101830082Y-99777326D01*
X102145832Y-99646538D01*
X102429999Y-99456664D01*
X102667042Y-99219621D01*
X102747000Y-99299579D01*
X102747001Y-101385928D01*
X102532000Y-101385928D01*
X102407518Y-101398188D01*
X102287820Y-101434498D01*
X102177506Y-101493463D01*
X102080815Y-101572815D01*
X102001463Y-101669506D01*
X101942498Y-101779820D01*
X101906188Y-101899518D01*
X101893928Y-102024000D01*
X101893928Y-104224000D01*
X101906188Y-104348482D01*
X101942498Y-104468180D01*
X102001463Y-104578494D01*
X102080815Y-104675185D01*
X102177506Y-104754537D01*
X102287820Y-104813502D01*
X102407518Y-104849812D01*
X102532000Y-104862072D01*
X104732000Y-104862072D01*
X104856482Y-104849812D01*
X104976180Y-104813502D01*
X105086494Y-104754537D01*
X105183185Y-104675185D01*
X105262537Y-104578494D01*
X105321502Y-104468180D01*
X105357812Y-104348482D01*
X105370072Y-104224000D01*
X105370072Y-102024000D01*
X105357812Y-101899518D01*
X105321502Y-101779820D01*
X105262537Y-101669506D01*
X105183185Y-101572815D01*
X105086494Y-101493463D01*
X104976180Y-101434498D01*
X104856482Y-101398188D01*
X104732000Y-101385928D01*
X104517000Y-101385928D01*
X104517000Y-98976469D01*
X104521281Y-98933000D01*
X104517000Y-98889531D01*
X104517000Y-98889523D01*
X104504195Y-98759510D01*
X104456736Y-98603060D01*
X104453589Y-98592686D01*
X104371411Y-98438941D01*
X104288532Y-98337953D01*
X104288530Y-98337951D01*
X104260817Y-98304183D01*
X104227050Y-98276471D01*
X103464535Y-97513957D01*
X103436818Y-97480184D01*
X103302060Y-97369590D01*
X103148314Y-97287412D01*
X102981491Y-97236806D01*
X102851478Y-97224001D01*
X102851470Y-97224001D01*
X102817066Y-97220613D01*
X102671664Y-97003003D01*
X102429999Y-96761338D01*
X102145832Y-96571464D01*
X101830082Y-96440676D01*
X101494884Y-96374001D01*
X101153118Y-96374001D01*
X100817920Y-96440676D01*
X100502170Y-96571464D01*
X100218003Y-96761338D01*
X99976338Y-97003003D01*
X99828672Y-97224001D01*
X98911468Y-97224001D01*
X98867999Y-97219720D01*
X98824530Y-97224001D01*
X98824522Y-97224001D01*
X98709305Y-97235349D01*
X98694508Y-97236806D01*
X98643902Y-97252158D01*
X98527686Y-97287412D01*
X98373940Y-97369590D01*
X98373938Y-97369591D01*
X98373939Y-97369591D01*
X98272952Y-97452469D01*
X98272950Y-97452471D01*
X98239182Y-97480184D01*
X98211469Y-97513952D01*
X92464952Y-103260470D01*
X92431184Y-103288183D01*
X92403471Y-103321951D01*
X92403468Y-103321954D01*
X92320590Y-103422941D01*
X92238412Y-103576687D01*
X92187805Y-103743510D01*
X92170719Y-103917000D01*
X92175001Y-103960479D01*
X92175000Y-106476150D01*
X92143434Y-106489225D01*
X91826509Y-106700987D01*
X91556987Y-106970509D01*
X91345225Y-107287434D01*
X91199361Y-107639581D01*
X91125000Y-108013419D01*
X89560000Y-108013419D01*
X89560000Y-99595829D01*
X89612816Y-99660186D01*
X89709507Y-99739538D01*
X89819821Y-99798503D01*
X89939519Y-99834813D01*
X90064001Y-99847073D01*
X92264001Y-99847073D01*
X92388483Y-99834813D01*
X92508181Y-99798503D01*
X92618495Y-99739538D01*
X92715186Y-99660186D01*
X92794538Y-99563495D01*
X92853503Y-99453181D01*
X92889813Y-99333483D01*
X92902073Y-99209001D01*
X92902073Y-97009001D01*
X92889813Y-96884519D01*
X92853503Y-96764821D01*
X92794538Y-96654507D01*
X92715186Y-96557816D01*
X92618495Y-96478464D01*
X92508181Y-96419499D01*
X92388483Y-96383189D01*
X92264001Y-96370929D01*
X92049001Y-96370929D01*
X92049001Y-94575072D01*
X92286000Y-94575072D01*
X92410482Y-94562812D01*
X92530180Y-94526502D01*
X92640494Y-94467537D01*
X92737185Y-94388185D01*
X92816537Y-94291494D01*
X92875502Y-94181180D01*
X92911812Y-94061482D01*
X92924072Y-93937000D01*
X92924072Y-91737000D01*
X92911812Y-91612518D01*
X92875502Y-91492820D01*
X92816537Y-91382506D01*
X92737185Y-91285815D01*
X92640494Y-91206463D01*
X92530180Y-91147498D01*
X92410482Y-91111188D01*
X92286000Y-91098928D01*
X92049001Y-91098928D01*
X92049001Y-83299072D01*
X93329000Y-83299072D01*
X93453482Y-83286812D01*
X93573180Y-83250502D01*
X93683494Y-83191537D01*
X93780185Y-83112185D01*
X93859537Y-83015494D01*
X93918502Y-82905180D01*
X93951496Y-82796413D01*
X96373192Y-82796413D01*
X96468956Y-83060814D01*
X96758571Y-83201704D01*
X97070108Y-83283384D01*
X97391595Y-83302718D01*
X97710675Y-83258961D01*
X98015088Y-83153795D01*
X98080720Y-83118714D01*
X99937000Y-83118714D01*
X99937000Y-90617285D01*
X103757000Y-90617285D01*
X103757000Y-83118714D01*
X99937000Y-83118714D01*
X98080720Y-83118714D01*
X98189044Y-83060814D01*
X98284808Y-82796413D01*
X97329000Y-81840605D01*
X96373192Y-82796413D01*
X93951496Y-82796413D01*
X93954812Y-82785482D01*
X93967072Y-82661000D01*
X93967072Y-81723595D01*
X95687282Y-81723595D01*
X95731039Y-82042675D01*
X95836205Y-82347088D01*
X95929186Y-82521044D01*
X96193587Y-82616808D01*
X97149395Y-81661000D01*
X97508605Y-81661000D01*
X98464413Y-82616808D01*
X98728814Y-82521044D01*
X98869704Y-82231429D01*
X98951384Y-81919892D01*
X98970718Y-81598405D01*
X98926961Y-81279325D01*
X98821795Y-80974912D01*
X98728814Y-80800956D01*
X98464413Y-80705192D01*
X97508605Y-81661000D01*
X97149395Y-81661000D01*
X96193587Y-80705192D01*
X95929186Y-80800956D01*
X95788296Y-81090571D01*
X95706616Y-81402108D01*
X95687282Y-81723595D01*
X93967072Y-81723595D01*
X93967072Y-80661000D01*
X93954812Y-80536518D01*
X93951497Y-80525587D01*
X96373192Y-80525587D01*
X97329000Y-81481395D01*
X98284808Y-80525587D01*
X98189044Y-80261186D01*
X97899429Y-80120296D01*
X97587892Y-80038616D01*
X97266405Y-80019282D01*
X96947325Y-80063039D01*
X96642912Y-80168205D01*
X96468956Y-80261186D01*
X96373192Y-80525587D01*
X93951497Y-80525587D01*
X93918502Y-80416820D01*
X93859537Y-80306506D01*
X93780185Y-80209815D01*
X93683494Y-80130463D01*
X93573180Y-80071498D01*
X93453482Y-80035188D01*
X93329000Y-80022928D01*
X92960000Y-80022928D01*
X92960000Y-73266072D01*
X93027500Y-73266072D01*
X93151982Y-73253812D01*
X93271680Y-73217502D01*
X93381994Y-73158537D01*
X93478685Y-73079185D01*
X93558037Y-72982494D01*
X93607059Y-72890781D01*
X93748077Y-73003969D01*
X94023906Y-73147571D01*
X94242020Y-73218563D01*
X94488000Y-73098594D01*
X94488000Y-71755000D01*
X94468000Y-71755000D01*
X94468000Y-71501000D01*
X94488000Y-71501000D01*
X94488000Y-70157406D01*
X94242020Y-70037437D01*
X94023906Y-70108429D01*
X93748077Y-70252031D01*
X93607059Y-70365219D01*
X93558037Y-70273506D01*
X93478685Y-70176815D01*
X93381994Y-70097463D01*
X93271680Y-70038498D01*
X93151982Y-70002188D01*
X93027500Y-69989928D01*
X91122500Y-69989928D01*
X90998018Y-70002188D01*
X90878320Y-70038498D01*
X90768006Y-70097463D01*
X90671315Y-70176815D01*
X90591963Y-70273506D01*
X90532998Y-70383820D01*
X90496688Y-70503518D01*
X90484428Y-70628000D01*
X90484428Y-72628000D01*
X90496688Y-72752482D01*
X90532998Y-72872180D01*
X90591963Y-72982494D01*
X90671315Y-73079185D01*
X90768006Y-73158537D01*
X90878320Y-73217502D01*
X90998018Y-73253812D01*
X91122500Y-73266072D01*
X91190000Y-73266072D01*
X91190001Y-80039592D01*
X91084820Y-80071498D01*
X90974506Y-80130463D01*
X90877815Y-80209815D01*
X90798463Y-80306506D01*
X90739498Y-80416820D01*
X90703188Y-80536518D01*
X90690928Y-80661000D01*
X90690928Y-82047494D01*
X90568952Y-82169470D01*
X90535185Y-82197182D01*
X90507472Y-82230950D01*
X90507469Y-82230953D01*
X90424591Y-82331940D01*
X90342413Y-82485686D01*
X90291806Y-82652509D01*
X90274720Y-82825999D01*
X90279002Y-82869478D01*
X90279001Y-91098928D01*
X90086000Y-91098928D01*
X89961518Y-91111188D01*
X89841820Y-91147498D01*
X89731506Y-91206463D01*
X89634815Y-91285815D01*
X89560000Y-91376978D01*
X89560000Y-64160000D01*
X113206705Y-64160000D01*
X113173463Y-64200506D01*
G37*
%TD.AperFunction*%
D28*
X113078188Y-66379482D02*
X113114498Y-66499180D01*
X113173463Y-66609494D01*
X113252815Y-66706185D01*
X113349506Y-66785537D01*
X113459820Y-66844502D01*
X113540466Y-66868966D01*
X113456412Y-66944731D01*
X113282359Y-67178080D01*
X113157175Y-67440901D01*
X113112524Y-67588110D01*
X113233845Y-67818000D01*
X114427000Y-67818000D01*
X114427000Y-67798000D01*
X114681000Y-67798000D01*
X114681000Y-67818000D01*
X116967000Y-67818000D01*
X116967000Y-67798000D01*
X117221000Y-67798000D01*
X117221000Y-67818000D01*
X117241000Y-67818000D01*
X117241000Y-68072000D01*
X117221000Y-68072000D01*
X117221000Y-68092000D01*
X116967000Y-68092000D01*
X116967000Y-68072000D01*
X114681000Y-68072000D01*
X114681000Y-68092000D01*
X114427000Y-68092000D01*
X114427000Y-68072000D01*
X113233845Y-68072000D01*
X113112524Y-68301890D01*
X113157175Y-68449099D01*
X113282359Y-68711920D01*
X113456412Y-68945269D01*
X113672645Y-69140178D01*
X113756285Y-69190000D01*
X112681419Y-69190000D01*
X112649000Y-69186807D01*
X112616581Y-69190000D01*
X112519617Y-69199550D01*
X112518000Y-69200041D01*
X112518000Y-66914578D01*
X113075938Y-66356640D01*
X113078188Y-66379482D01*
%TA.AperFunction,Conductor*%
D29*
G36*
X113078188Y-66379482D02*
G01*
X113114498Y-66499180D01*
X113173463Y-66609494D01*
X113252815Y-66706185D01*
X113349506Y-66785537D01*
X113459820Y-66844502D01*
X113540466Y-66868966D01*
X113456412Y-66944731D01*
X113282359Y-67178080D01*
X113157175Y-67440901D01*
X113112524Y-67588110D01*
X113233845Y-67818000D01*
X114427000Y-67818000D01*
X114427000Y-67798000D01*
X114681000Y-67798000D01*
X114681000Y-67818000D01*
X116967000Y-67818000D01*
X116967000Y-67798000D01*
X117221000Y-67798000D01*
X117221000Y-67818000D01*
X117241000Y-67818000D01*
X117241000Y-68072000D01*
X117221000Y-68072000D01*
X117221000Y-68092000D01*
X116967000Y-68092000D01*
X116967000Y-68072000D01*
X114681000Y-68072000D01*
X114681000Y-68092000D01*
X114427000Y-68092000D01*
X114427000Y-68072000D01*
X113233845Y-68072000D01*
X113112524Y-68301890D01*
X113157175Y-68449099D01*
X113282359Y-68711920D01*
X113456412Y-68945269D01*
X113672645Y-69140178D01*
X113756285Y-69190000D01*
X112681419Y-69190000D01*
X112649000Y-69186807D01*
X112616581Y-69190000D01*
X112519617Y-69199550D01*
X112518000Y-69200041D01*
X112518000Y-66914578D01*
X113075938Y-66356640D01*
X113078188Y-66379482D01*
G37*
%TD.AperFunction*%
%TD*%
M02*
