M48
; DRILL file {KiCad (5.1.10-1-10_14)} date Friday, October 22, 2021 at 12:21:32 AM
; FORMAT={-:-/ absolute / inch / decimal}
; #@! TF.CreationDate,2021-10-22T00:21:32+02:00
; #@! TF.GenerationSoftware,Kicad,Pcbnew,(5.1.10-1-10_14)
; #@! TF.FileFunction,Plated,1,2,PTH
FMAT,2
INCH
T1C0.0315
T2C0.0354
T3C0.0394
T4C0.0433
T5C0.0630
%
G90
G05
T1
X4.065Y-2.71
X4.1634Y-2.71
T2
X4.33Y-3.425
X4.33Y-3.5234
X4.33Y-3.6219
T3
X3.635Y-3.215
X3.8319Y-3.215
X4.51Y-2.575
X4.51Y-2.675
X4.51Y-4.375
X4.51Y-4.475
X4.61Y-2.575
X4.61Y-2.675
X4.61Y-4.375
X4.61Y-4.475
T4
X3.5891Y-3.8626
X3.59Y-3.655
X3.625Y-2.82
X3.725Y-2.82
X3.825Y-2.82
X3.9891Y-3.8626
X3.99Y-3.655
X4.08Y-4.06
X4.08Y-4.46
X4.25Y-4.0582
X4.25Y-4.4582
T5
X3.6638Y-4.26
X3.7819Y-4.445
X3.9Y-4.26
T0
M30
