%TF.GenerationSoftware,KiCad,Pcbnew,(5.1.10-1-10_14)*%
%TF.CreationDate,2021-10-22T00:21:01+02:00*%
%TF.ProjectId,breadboard-psu,62726561-6462-46f6-9172-642d7073752e,a*%
%TF.SameCoordinates,Original*%
%TF.FileFunction,Copper,L2,Bot*%
%TF.FilePolarity,Positive*%
%FSLAX46Y46*%
G04 Gerber Fmt 4.6, Leading zero omitted, Abs format (unit mm)*
G04 Created by KiCad (PCBNEW (5.1.10-1-10_14)) date 2021-10-22 00:21:01*
%MOMM*%
%LPD*%
G01*
G04 APERTURE LIST*
%TA.AperFunction,ComponentPad*%
%ADD10C,1.900000*%
%TD*%
%TA.AperFunction,ComponentPad*%
%ADD11R,1.900000X1.900000*%
%TD*%
%TA.AperFunction,ComponentPad*%
%ADD12R,2.000000X2.000000*%
%TD*%
%TA.AperFunction,ComponentPad*%
%ADD13C,2.000000*%
%TD*%
%TA.AperFunction,ComponentPad*%
%ADD14R,1.600000X1.600000*%
%TD*%
%TA.AperFunction,ComponentPad*%
%ADD15C,1.600000*%
%TD*%
%TA.AperFunction,ComponentPad*%
%ADD16R,2.200000X2.200000*%
%TD*%
%TA.AperFunction,ComponentPad*%
%ADD17O,2.200000X2.200000*%
%TD*%
%TA.AperFunction,ComponentPad*%
%ADD18R,2.600000X2.600000*%
%TD*%
%TA.AperFunction,ComponentPad*%
%ADD19C,2.600000*%
%TD*%
%TA.AperFunction,ComponentPad*%
%ADD20R,1.700000X1.700000*%
%TD*%
%TA.AperFunction,ComponentPad*%
%ADD21O,1.700000X1.700000*%
%TD*%
%TA.AperFunction,ComponentPad*%
%ADD22R,1.905000X2.000000*%
%TD*%
%TA.AperFunction,ComponentPad*%
%ADD23O,1.905000X2.000000*%
%TD*%
%TA.AperFunction,Conductor*%
%ADD24C,0.254000*%
%TD*%
%TA.AperFunction,Conductor*%
%ADD25C,0.100000*%
%TD*%
G04 APERTURE END LIST*
D10*
%TO.P,SW1,3*%
%TO.N,/VCC*%
X109982000Y-91995000D03*
%TO.P,SW1,2*%
%TO.N,/VOUT*%
X109982000Y-89495000D03*
D11*
%TO.P,SW1,1*%
%TO.N,Net-(SW1-Pad1)*%
X109982000Y-86995000D03*
%TD*%
D12*
%TO.P,C1,1*%
%TO.N,/VIN*%
X92329000Y-81661000D03*
D13*
%TO.P,C1,2*%
%TO.N,/GND*%
X97329000Y-81661000D03*
%TD*%
D14*
%TO.P,C2,1*%
%TO.N,/VOUT*%
X103251000Y-68834000D03*
D15*
%TO.P,C2,2*%
%TO.N,/GND*%
X105751000Y-68834000D03*
%TD*%
D16*
%TO.P,D1,1*%
%TO.N,/VIN*%
X91186000Y-92837000D03*
D17*
%TO.P,D1,2*%
%TO.N,/IN+*%
X101346000Y-92837000D03*
%TD*%
D16*
%TO.P,D2,1*%
%TO.N,/IN+*%
X107950000Y-103079001D03*
D17*
%TO.P,D2,2*%
%TO.N,/GND*%
X107950000Y-113239001D03*
%TD*%
%TO.P,D3,2*%
%TO.N,/IN-*%
X101324001Y-98109001D03*
D16*
%TO.P,D3,1*%
%TO.N,/VIN*%
X91164001Y-98109001D03*
%TD*%
D17*
%TO.P,D4,2*%
%TO.N,/GND*%
X103632000Y-113284000D03*
D16*
%TO.P,D4,1*%
%TO.N,/IN-*%
X103632000Y-103124000D03*
%TD*%
D18*
%TO.P,J1,1*%
%TO.N,/IN+*%
X99060000Y-108204000D03*
D19*
%TO.P,J1,2*%
%TO.N,/IN-*%
X93060000Y-108204000D03*
%TO.P,J1,3*%
%TO.N,Net-(J1-Pad3)*%
X96060000Y-112904000D03*
%TD*%
D20*
%TO.P,J2,1*%
%TO.N,/VCC*%
X114554000Y-111125000D03*
D21*
%TO.P,J2,2*%
X117094000Y-111125000D03*
%TO.P,J2,3*%
%TO.N,/GND*%
X114554000Y-113665000D03*
%TO.P,J2,4*%
X117094000Y-113665000D03*
%TD*%
%TO.P,J3,4*%
%TO.N,/GND*%
X117094000Y-67945000D03*
%TO.P,J3,3*%
X114554000Y-67945000D03*
%TO.P,J3,2*%
%TO.N,/VCC*%
X117094000Y-65405000D03*
D20*
%TO.P,J3,1*%
X114554000Y-65405000D03*
%TD*%
D22*
%TO.P,U1,1*%
%TO.N,/VIN*%
X92075000Y-71628000D03*
D23*
%TO.P,U1,2*%
%TO.N,/GND*%
X94615000Y-71628000D03*
%TO.P,U1,3*%
%TO.N,/VOUT*%
X97155000Y-71628000D03*
%TD*%
D24*
%TO.N,/GND*%
X113173463Y-64200506D02*
X113114498Y-64310820D01*
X113078188Y-64430518D01*
X113065928Y-64555000D01*
X113065928Y-66255000D01*
X113078188Y-66379482D01*
X113114498Y-66499180D01*
X113173463Y-66609494D01*
X113252815Y-66706185D01*
X113349506Y-66785537D01*
X113459820Y-66844502D01*
X113540466Y-66868966D01*
X113456412Y-66944731D01*
X113282359Y-67178080D01*
X113157175Y-67440901D01*
X113112524Y-67588110D01*
X113233845Y-67818000D01*
X114427000Y-67818000D01*
X114427000Y-67798000D01*
X114681000Y-67798000D01*
X114681000Y-67818000D01*
X116967000Y-67818000D01*
X116967000Y-67798000D01*
X117221000Y-67798000D01*
X117221000Y-67818000D01*
X117241000Y-67818000D01*
X117241000Y-68072000D01*
X117221000Y-68072000D01*
X117221000Y-68092000D01*
X116967000Y-68092000D01*
X116967000Y-68072000D01*
X114681000Y-68072000D01*
X114681000Y-68092000D01*
X114427000Y-68092000D01*
X114427000Y-68072000D01*
X113233845Y-68072000D01*
X113112524Y-68301890D01*
X113157175Y-68449099D01*
X113282359Y-68711920D01*
X113456412Y-68945269D01*
X113672645Y-69140178D01*
X113756285Y-69190000D01*
X112681419Y-69190000D01*
X112649000Y-69186807D01*
X112616581Y-69190000D01*
X112519617Y-69199550D01*
X112395207Y-69237290D01*
X112280550Y-69298575D01*
X112180052Y-69381052D01*
X112097575Y-69481550D01*
X112036290Y-69596207D01*
X111998550Y-69720617D01*
X111985807Y-69850000D01*
X111989001Y-69882429D01*
X111989000Y-109187581D01*
X111985807Y-109220000D01*
X111998550Y-109349383D01*
X112036290Y-109473793D01*
X112097575Y-109588450D01*
X112147422Y-109649188D01*
X112180052Y-109688948D01*
X112280550Y-109771425D01*
X112395207Y-109832710D01*
X112519617Y-109870450D01*
X112649000Y-109883193D01*
X112681419Y-109880000D01*
X113206705Y-109880000D01*
X113173463Y-109920506D01*
X113114498Y-110030820D01*
X113078188Y-110150518D01*
X113065928Y-110275000D01*
X113065928Y-111975000D01*
X113078188Y-112099482D01*
X113114498Y-112219180D01*
X113173463Y-112329494D01*
X113252815Y-112426185D01*
X113349506Y-112505537D01*
X113459820Y-112564502D01*
X113540466Y-112588966D01*
X113456412Y-112664731D01*
X113282359Y-112898080D01*
X113157175Y-113160901D01*
X113112524Y-113308110D01*
X113233845Y-113538000D01*
X114427000Y-113538000D01*
X114427000Y-113518000D01*
X114681000Y-113518000D01*
X114681000Y-113538000D01*
X116967000Y-113538000D01*
X116967000Y-113518000D01*
X117221000Y-113518000D01*
X117221000Y-113538000D01*
X117241000Y-113538000D01*
X117241000Y-113792000D01*
X117221000Y-113792000D01*
X117221000Y-113812000D01*
X116967000Y-113812000D01*
X116967000Y-113792000D01*
X114681000Y-113792000D01*
X114681000Y-113812000D01*
X114427000Y-113812000D01*
X114427000Y-113792000D01*
X113233845Y-113792000D01*
X113112524Y-114021890D01*
X113157175Y-114169099D01*
X113282359Y-114431920D01*
X113456412Y-114665269D01*
X113672645Y-114860178D01*
X113756285Y-114910000D01*
X108406044Y-114910000D01*
X108559094Y-114863576D01*
X108864329Y-114713532D01*
X109134427Y-114506823D01*
X109359008Y-114251392D01*
X109529442Y-113957055D01*
X109639179Y-113635124D01*
X109521600Y-113366001D01*
X108077000Y-113366001D01*
X108077000Y-113386001D01*
X107823000Y-113386001D01*
X107823000Y-113366001D01*
X106378400Y-113366001D01*
X106260821Y-113635124D01*
X106370558Y-113957055D01*
X106540992Y-114251392D01*
X106765573Y-114506823D01*
X107035671Y-114713532D01*
X107340906Y-114863576D01*
X107493956Y-114910000D01*
X104236396Y-114910000D01*
X104241094Y-114908575D01*
X104546329Y-114758531D01*
X104816427Y-114551822D01*
X105041008Y-114296391D01*
X105211442Y-114002054D01*
X105321179Y-113680123D01*
X105203600Y-113411000D01*
X103759000Y-113411000D01*
X103759000Y-113431000D01*
X103505000Y-113431000D01*
X103505000Y-113411000D01*
X102060400Y-113411000D01*
X101942821Y-113680123D01*
X102052558Y-114002054D01*
X102222992Y-114296391D01*
X102447573Y-114551822D01*
X102717671Y-114758531D01*
X103022906Y-114908575D01*
X103027604Y-114910000D01*
X89560000Y-114910000D01*
X89560000Y-112713419D01*
X94125000Y-112713419D01*
X94125000Y-113094581D01*
X94199361Y-113468419D01*
X94345225Y-113820566D01*
X94556987Y-114137491D01*
X94826509Y-114407013D01*
X95143434Y-114618775D01*
X95495581Y-114764639D01*
X95869419Y-114839000D01*
X96250581Y-114839000D01*
X96624419Y-114764639D01*
X96976566Y-114618775D01*
X97293491Y-114407013D01*
X97563013Y-114137491D01*
X97774775Y-113820566D01*
X97920639Y-113468419D01*
X97995000Y-113094581D01*
X97995000Y-112887877D01*
X101942821Y-112887877D01*
X102060400Y-113157000D01*
X103505000Y-113157000D01*
X103505000Y-111712875D01*
X103759000Y-111712875D01*
X103759000Y-113157000D01*
X105203600Y-113157000D01*
X105321179Y-112887877D01*
X105305841Y-112842878D01*
X106260821Y-112842878D01*
X106378400Y-113112001D01*
X107823000Y-113112001D01*
X107823000Y-111667876D01*
X108077000Y-111667876D01*
X108077000Y-113112001D01*
X109521600Y-113112001D01*
X109639179Y-112842878D01*
X109529442Y-112520947D01*
X109359008Y-112226610D01*
X109134427Y-111971179D01*
X108864329Y-111764470D01*
X108559094Y-111614426D01*
X108346122Y-111549826D01*
X108077000Y-111667876D01*
X107823000Y-111667876D01*
X107553878Y-111549826D01*
X107340906Y-111614426D01*
X107035671Y-111764470D01*
X106765573Y-111971179D01*
X106540992Y-112226610D01*
X106370558Y-112520947D01*
X106260821Y-112842878D01*
X105305841Y-112842878D01*
X105211442Y-112565946D01*
X105041008Y-112271609D01*
X104816427Y-112016178D01*
X104546329Y-111809469D01*
X104241094Y-111659425D01*
X104028122Y-111594825D01*
X103759000Y-111712875D01*
X103505000Y-111712875D01*
X103235878Y-111594825D01*
X103022906Y-111659425D01*
X102717671Y-111809469D01*
X102447573Y-112016178D01*
X102222992Y-112271609D01*
X102052558Y-112565946D01*
X101942821Y-112887877D01*
X97995000Y-112887877D01*
X97995000Y-112713419D01*
X97920639Y-112339581D01*
X97774775Y-111987434D01*
X97563013Y-111670509D01*
X97293491Y-111400987D01*
X96976566Y-111189225D01*
X96624419Y-111043361D01*
X96250581Y-110969000D01*
X95869419Y-110969000D01*
X95495581Y-111043361D01*
X95143434Y-111189225D01*
X94826509Y-111400987D01*
X94556987Y-111670509D01*
X94345225Y-111987434D01*
X94199361Y-112339581D01*
X94125000Y-112713419D01*
X89560000Y-112713419D01*
X89560000Y-108013419D01*
X91125000Y-108013419D01*
X91125000Y-108394581D01*
X91199361Y-108768419D01*
X91345225Y-109120566D01*
X91556987Y-109437491D01*
X91826509Y-109707013D01*
X92143434Y-109918775D01*
X92495581Y-110064639D01*
X92869419Y-110139000D01*
X93250581Y-110139000D01*
X93624419Y-110064639D01*
X93976566Y-109918775D01*
X94293491Y-109707013D01*
X94563013Y-109437491D01*
X94774775Y-109120566D01*
X94920639Y-108768419D01*
X94995000Y-108394581D01*
X94995000Y-108013419D01*
X94920639Y-107639581D01*
X94774775Y-107287434D01*
X94563013Y-106970509D01*
X94496504Y-106904000D01*
X97121928Y-106904000D01*
X97121928Y-109504000D01*
X97134188Y-109628482D01*
X97170498Y-109748180D01*
X97229463Y-109858494D01*
X97308815Y-109955185D01*
X97405506Y-110034537D01*
X97515820Y-110093502D01*
X97635518Y-110129812D01*
X97760000Y-110142072D01*
X100360000Y-110142072D01*
X100484482Y-110129812D01*
X100604180Y-110093502D01*
X100714494Y-110034537D01*
X100811185Y-109955185D01*
X100890537Y-109858494D01*
X100949502Y-109748180D01*
X100985812Y-109628482D01*
X100998072Y-109504000D01*
X100998072Y-106904000D01*
X100985812Y-106779518D01*
X100949502Y-106659820D01*
X100890537Y-106549506D01*
X100811185Y-106452815D01*
X100714494Y-106373463D01*
X100604180Y-106314498D01*
X100484482Y-106278188D01*
X100360000Y-106265928D01*
X97760000Y-106265928D01*
X97635518Y-106278188D01*
X97515820Y-106314498D01*
X97405506Y-106373463D01*
X97308815Y-106452815D01*
X97229463Y-106549506D01*
X97170498Y-106659820D01*
X97134188Y-106779518D01*
X97121928Y-106904000D01*
X94496504Y-106904000D01*
X94293491Y-106700987D01*
X93976566Y-106489225D01*
X93624419Y-106343361D01*
X93250581Y-106269000D01*
X92869419Y-106269000D01*
X92495581Y-106343361D01*
X92143434Y-106489225D01*
X91826509Y-106700987D01*
X91556987Y-106970509D01*
X91345225Y-107287434D01*
X91199361Y-107639581D01*
X91125000Y-108013419D01*
X89560000Y-108013419D01*
X89560000Y-102024000D01*
X101893928Y-102024000D01*
X101893928Y-104224000D01*
X101906188Y-104348482D01*
X101942498Y-104468180D01*
X102001463Y-104578494D01*
X102080815Y-104675185D01*
X102177506Y-104754537D01*
X102287820Y-104813502D01*
X102407518Y-104849812D01*
X102532000Y-104862072D01*
X104732000Y-104862072D01*
X104856482Y-104849812D01*
X104976180Y-104813502D01*
X105086494Y-104754537D01*
X105183185Y-104675185D01*
X105262537Y-104578494D01*
X105321502Y-104468180D01*
X105357812Y-104348482D01*
X105370072Y-104224000D01*
X105370072Y-102024000D01*
X105365641Y-101979001D01*
X106211928Y-101979001D01*
X106211928Y-104179001D01*
X106224188Y-104303483D01*
X106260498Y-104423181D01*
X106319463Y-104533495D01*
X106398815Y-104630186D01*
X106495506Y-104709538D01*
X106605820Y-104768503D01*
X106725518Y-104804813D01*
X106850000Y-104817073D01*
X109050000Y-104817073D01*
X109174482Y-104804813D01*
X109294180Y-104768503D01*
X109404494Y-104709538D01*
X109501185Y-104630186D01*
X109580537Y-104533495D01*
X109639502Y-104423181D01*
X109675812Y-104303483D01*
X109688072Y-104179001D01*
X109688072Y-101979001D01*
X109675812Y-101854519D01*
X109639502Y-101734821D01*
X109580537Y-101624507D01*
X109501185Y-101527816D01*
X109404494Y-101448464D01*
X109294180Y-101389499D01*
X109174482Y-101353189D01*
X109050000Y-101340929D01*
X106850000Y-101340929D01*
X106725518Y-101353189D01*
X106605820Y-101389499D01*
X106495506Y-101448464D01*
X106398815Y-101527816D01*
X106319463Y-101624507D01*
X106260498Y-101734821D01*
X106224188Y-101854519D01*
X106211928Y-101979001D01*
X105365641Y-101979001D01*
X105357812Y-101899518D01*
X105321502Y-101779820D01*
X105262537Y-101669506D01*
X105183185Y-101572815D01*
X105086494Y-101493463D01*
X104976180Y-101434498D01*
X104856482Y-101398188D01*
X104732000Y-101385928D01*
X102532000Y-101385928D01*
X102407518Y-101398188D01*
X102287820Y-101434498D01*
X102177506Y-101493463D01*
X102080815Y-101572815D01*
X102001463Y-101669506D01*
X101942498Y-101779820D01*
X101906188Y-101899518D01*
X101893928Y-102024000D01*
X89560000Y-102024000D01*
X89560000Y-99595829D01*
X89612816Y-99660186D01*
X89709507Y-99739538D01*
X89819821Y-99798503D01*
X89939519Y-99834813D01*
X90064001Y-99847073D01*
X92264001Y-99847073D01*
X92388483Y-99834813D01*
X92508181Y-99798503D01*
X92618495Y-99739538D01*
X92715186Y-99660186D01*
X92794538Y-99563495D01*
X92853503Y-99453181D01*
X92889813Y-99333483D01*
X92902073Y-99209001D01*
X92902073Y-97938118D01*
X99589001Y-97938118D01*
X99589001Y-98279884D01*
X99655676Y-98615082D01*
X99786464Y-98930832D01*
X99976338Y-99214999D01*
X100218003Y-99456664D01*
X100502170Y-99646538D01*
X100817920Y-99777326D01*
X101153118Y-99844001D01*
X101494884Y-99844001D01*
X101830082Y-99777326D01*
X102145832Y-99646538D01*
X102429999Y-99456664D01*
X102671664Y-99214999D01*
X102861538Y-98930832D01*
X102992326Y-98615082D01*
X103059001Y-98279884D01*
X103059001Y-97938118D01*
X102992326Y-97602920D01*
X102861538Y-97287170D01*
X102671664Y-97003003D01*
X102429999Y-96761338D01*
X102145832Y-96571464D01*
X101830082Y-96440676D01*
X101494884Y-96374001D01*
X101153118Y-96374001D01*
X100817920Y-96440676D01*
X100502170Y-96571464D01*
X100218003Y-96761338D01*
X99976338Y-97003003D01*
X99786464Y-97287170D01*
X99655676Y-97602920D01*
X99589001Y-97938118D01*
X92902073Y-97938118D01*
X92902073Y-97009001D01*
X92889813Y-96884519D01*
X92853503Y-96764821D01*
X92794538Y-96654507D01*
X92715186Y-96557816D01*
X92618495Y-96478464D01*
X92508181Y-96419499D01*
X92388483Y-96383189D01*
X92264001Y-96370929D01*
X90064001Y-96370929D01*
X89939519Y-96383189D01*
X89819821Y-96419499D01*
X89709507Y-96478464D01*
X89612816Y-96557816D01*
X89560000Y-96622173D01*
X89560000Y-94297022D01*
X89634815Y-94388185D01*
X89731506Y-94467537D01*
X89841820Y-94526502D01*
X89961518Y-94562812D01*
X90086000Y-94575072D01*
X92286000Y-94575072D01*
X92410482Y-94562812D01*
X92530180Y-94526502D01*
X92640494Y-94467537D01*
X92737185Y-94388185D01*
X92816537Y-94291494D01*
X92875502Y-94181180D01*
X92911812Y-94061482D01*
X92924072Y-93937000D01*
X92924072Y-92666117D01*
X99611000Y-92666117D01*
X99611000Y-93007883D01*
X99677675Y-93343081D01*
X99808463Y-93658831D01*
X99998337Y-93942998D01*
X100240002Y-94184663D01*
X100524169Y-94374537D01*
X100839919Y-94505325D01*
X101175117Y-94572000D01*
X101516883Y-94572000D01*
X101852081Y-94505325D01*
X102167831Y-94374537D01*
X102451998Y-94184663D01*
X102693663Y-93942998D01*
X102883537Y-93658831D01*
X103014325Y-93343081D01*
X103081000Y-93007883D01*
X103081000Y-92666117D01*
X103014325Y-92330919D01*
X102883537Y-92015169D01*
X102693663Y-91731002D01*
X102451998Y-91489337D01*
X102167831Y-91299463D01*
X101852081Y-91168675D01*
X101516883Y-91102000D01*
X101175117Y-91102000D01*
X100839919Y-91168675D01*
X100524169Y-91299463D01*
X100240002Y-91489337D01*
X99998337Y-91731002D01*
X99808463Y-92015169D01*
X99677675Y-92330919D01*
X99611000Y-92666117D01*
X92924072Y-92666117D01*
X92924072Y-91737000D01*
X92911812Y-91612518D01*
X92875502Y-91492820D01*
X92816537Y-91382506D01*
X92737185Y-91285815D01*
X92640494Y-91206463D01*
X92530180Y-91147498D01*
X92410482Y-91111188D01*
X92286000Y-91098928D01*
X90086000Y-91098928D01*
X89961518Y-91111188D01*
X89841820Y-91147498D01*
X89731506Y-91206463D01*
X89634815Y-91285815D01*
X89560000Y-91376978D01*
X89560000Y-86045000D01*
X108393928Y-86045000D01*
X108393928Y-87945000D01*
X108406188Y-88069482D01*
X108442498Y-88189180D01*
X108501463Y-88299494D01*
X108580815Y-88396185D01*
X108677506Y-88475537D01*
X108736021Y-88506814D01*
X108577391Y-88744221D01*
X108457911Y-89032673D01*
X108397000Y-89338891D01*
X108397000Y-89651109D01*
X108457911Y-89957327D01*
X108577391Y-90245779D01*
X108750850Y-90505379D01*
X108971621Y-90726150D01*
X108999832Y-90745000D01*
X108971621Y-90763850D01*
X108750850Y-90984621D01*
X108577391Y-91244221D01*
X108457911Y-91532673D01*
X108397000Y-91838891D01*
X108397000Y-92151109D01*
X108457911Y-92457327D01*
X108577391Y-92745779D01*
X108750850Y-93005379D01*
X108971621Y-93226150D01*
X109231221Y-93399609D01*
X109519673Y-93519089D01*
X109825891Y-93580000D01*
X110138109Y-93580000D01*
X110444327Y-93519089D01*
X110732779Y-93399609D01*
X110992379Y-93226150D01*
X111213150Y-93005379D01*
X111386609Y-92745779D01*
X111506089Y-92457327D01*
X111567000Y-92151109D01*
X111567000Y-91838891D01*
X111506089Y-91532673D01*
X111386609Y-91244221D01*
X111213150Y-90984621D01*
X110992379Y-90763850D01*
X110964168Y-90745000D01*
X110992379Y-90726150D01*
X111213150Y-90505379D01*
X111386609Y-90245779D01*
X111506089Y-89957327D01*
X111567000Y-89651109D01*
X111567000Y-89338891D01*
X111506089Y-89032673D01*
X111386609Y-88744221D01*
X111227979Y-88506814D01*
X111286494Y-88475537D01*
X111383185Y-88396185D01*
X111462537Y-88299494D01*
X111521502Y-88189180D01*
X111557812Y-88069482D01*
X111570072Y-87945000D01*
X111570072Y-86045000D01*
X111557812Y-85920518D01*
X111521502Y-85800820D01*
X111462537Y-85690506D01*
X111383185Y-85593815D01*
X111286494Y-85514463D01*
X111176180Y-85455498D01*
X111056482Y-85419188D01*
X110932000Y-85406928D01*
X109032000Y-85406928D01*
X108907518Y-85419188D01*
X108787820Y-85455498D01*
X108677506Y-85514463D01*
X108580815Y-85593815D01*
X108501463Y-85690506D01*
X108442498Y-85800820D01*
X108406188Y-85920518D01*
X108393928Y-86045000D01*
X89560000Y-86045000D01*
X89560000Y-80661000D01*
X90690928Y-80661000D01*
X90690928Y-82661000D01*
X90703188Y-82785482D01*
X90739498Y-82905180D01*
X90798463Y-83015494D01*
X90877815Y-83112185D01*
X90974506Y-83191537D01*
X91084820Y-83250502D01*
X91204518Y-83286812D01*
X91329000Y-83299072D01*
X93329000Y-83299072D01*
X93453482Y-83286812D01*
X93573180Y-83250502D01*
X93683494Y-83191537D01*
X93780185Y-83112185D01*
X93859537Y-83015494D01*
X93918502Y-82905180D01*
X93951496Y-82796413D01*
X96373192Y-82796413D01*
X96468956Y-83060814D01*
X96758571Y-83201704D01*
X97070108Y-83283384D01*
X97391595Y-83302718D01*
X97710675Y-83258961D01*
X98015088Y-83153795D01*
X98189044Y-83060814D01*
X98284808Y-82796413D01*
X97329000Y-81840605D01*
X96373192Y-82796413D01*
X93951496Y-82796413D01*
X93954812Y-82785482D01*
X93967072Y-82661000D01*
X93967072Y-81723595D01*
X95687282Y-81723595D01*
X95731039Y-82042675D01*
X95836205Y-82347088D01*
X95929186Y-82521044D01*
X96193587Y-82616808D01*
X97149395Y-81661000D01*
X97508605Y-81661000D01*
X98464413Y-82616808D01*
X98728814Y-82521044D01*
X98869704Y-82231429D01*
X98951384Y-81919892D01*
X98970718Y-81598405D01*
X98926961Y-81279325D01*
X98821795Y-80974912D01*
X98728814Y-80800956D01*
X98464413Y-80705192D01*
X97508605Y-81661000D01*
X97149395Y-81661000D01*
X96193587Y-80705192D01*
X95929186Y-80800956D01*
X95788296Y-81090571D01*
X95706616Y-81402108D01*
X95687282Y-81723595D01*
X93967072Y-81723595D01*
X93967072Y-80661000D01*
X93954812Y-80536518D01*
X93951497Y-80525587D01*
X96373192Y-80525587D01*
X97329000Y-81481395D01*
X98284808Y-80525587D01*
X98189044Y-80261186D01*
X97899429Y-80120296D01*
X97587892Y-80038616D01*
X97266405Y-80019282D01*
X96947325Y-80063039D01*
X96642912Y-80168205D01*
X96468956Y-80261186D01*
X96373192Y-80525587D01*
X93951497Y-80525587D01*
X93918502Y-80416820D01*
X93859537Y-80306506D01*
X93780185Y-80209815D01*
X93683494Y-80130463D01*
X93573180Y-80071498D01*
X93453482Y-80035188D01*
X93329000Y-80022928D01*
X91329000Y-80022928D01*
X91204518Y-80035188D01*
X91084820Y-80071498D01*
X90974506Y-80130463D01*
X90877815Y-80209815D01*
X90798463Y-80306506D01*
X90739498Y-80416820D01*
X90703188Y-80536518D01*
X90690928Y-80661000D01*
X89560000Y-80661000D01*
X89560000Y-70628000D01*
X90484428Y-70628000D01*
X90484428Y-72628000D01*
X90496688Y-72752482D01*
X90532998Y-72872180D01*
X90591963Y-72982494D01*
X90671315Y-73079185D01*
X90768006Y-73158537D01*
X90878320Y-73217502D01*
X90998018Y-73253812D01*
X91122500Y-73266072D01*
X93027500Y-73266072D01*
X93151982Y-73253812D01*
X93271680Y-73217502D01*
X93381994Y-73158537D01*
X93478685Y-73079185D01*
X93558037Y-72982494D01*
X93607059Y-72890781D01*
X93748077Y-73003969D01*
X94023906Y-73147571D01*
X94242020Y-73218563D01*
X94488000Y-73098594D01*
X94488000Y-71755000D01*
X94468000Y-71755000D01*
X94468000Y-71501000D01*
X94488000Y-71501000D01*
X94488000Y-70157406D01*
X94742000Y-70157406D01*
X94742000Y-71501000D01*
X94762000Y-71501000D01*
X94762000Y-71755000D01*
X94742000Y-71755000D01*
X94742000Y-73098594D01*
X94987980Y-73218563D01*
X95206094Y-73147571D01*
X95481923Y-73003969D01*
X95724437Y-72809315D01*
X95879837Y-72624101D01*
X96027037Y-72803463D01*
X96268766Y-73001845D01*
X96544552Y-73149255D01*
X96843797Y-73240030D01*
X97155000Y-73270681D01*
X97466204Y-73240030D01*
X97765449Y-73149255D01*
X98041235Y-73001845D01*
X98282963Y-72803463D01*
X98481345Y-72561734D01*
X98628755Y-72285948D01*
X98719530Y-71986703D01*
X98742500Y-71753485D01*
X98742500Y-71502514D01*
X98719530Y-71269296D01*
X98628755Y-70970051D01*
X98481345Y-70694265D01*
X98282963Y-70452537D01*
X98041234Y-70254155D01*
X97765448Y-70106745D01*
X97466203Y-70015970D01*
X97155000Y-69985319D01*
X96843796Y-70015970D01*
X96544551Y-70106745D01*
X96268765Y-70254155D01*
X96027037Y-70452537D01*
X95879838Y-70631900D01*
X95724437Y-70446685D01*
X95481923Y-70252031D01*
X95206094Y-70108429D01*
X94987980Y-70037437D01*
X94742000Y-70157406D01*
X94488000Y-70157406D01*
X94242020Y-70037437D01*
X94023906Y-70108429D01*
X93748077Y-70252031D01*
X93607059Y-70365219D01*
X93558037Y-70273506D01*
X93478685Y-70176815D01*
X93381994Y-70097463D01*
X93271680Y-70038498D01*
X93151982Y-70002188D01*
X93027500Y-69989928D01*
X91122500Y-69989928D01*
X90998018Y-70002188D01*
X90878320Y-70038498D01*
X90768006Y-70097463D01*
X90671315Y-70176815D01*
X90591963Y-70273506D01*
X90532998Y-70383820D01*
X90496688Y-70503518D01*
X90484428Y-70628000D01*
X89560000Y-70628000D01*
X89560000Y-68034000D01*
X101812928Y-68034000D01*
X101812928Y-69634000D01*
X101825188Y-69758482D01*
X101861498Y-69878180D01*
X101920463Y-69988494D01*
X101999815Y-70085185D01*
X102096506Y-70164537D01*
X102206820Y-70223502D01*
X102326518Y-70259812D01*
X102451000Y-70272072D01*
X104051000Y-70272072D01*
X104175482Y-70259812D01*
X104295180Y-70223502D01*
X104405494Y-70164537D01*
X104502185Y-70085185D01*
X104581537Y-69988494D01*
X104640502Y-69878180D01*
X104656117Y-69826702D01*
X104937903Y-69826702D01*
X105009486Y-70070671D01*
X105264996Y-70191571D01*
X105539184Y-70260300D01*
X105821512Y-70274217D01*
X106101130Y-70232787D01*
X106367292Y-70137603D01*
X106492514Y-70070671D01*
X106564097Y-69826702D01*
X105751000Y-69013605D01*
X104937903Y-69826702D01*
X104656117Y-69826702D01*
X104676812Y-69758482D01*
X104689072Y-69634000D01*
X104689072Y-69626785D01*
X104758298Y-69647097D01*
X105571395Y-68834000D01*
X105930605Y-68834000D01*
X106743702Y-69647097D01*
X106987671Y-69575514D01*
X107108571Y-69320004D01*
X107177300Y-69045816D01*
X107191217Y-68763488D01*
X107149787Y-68483870D01*
X107054603Y-68217708D01*
X106987671Y-68092486D01*
X106743702Y-68020903D01*
X105930605Y-68834000D01*
X105571395Y-68834000D01*
X104758298Y-68020903D01*
X104689072Y-68041215D01*
X104689072Y-68034000D01*
X104676812Y-67909518D01*
X104656118Y-67841298D01*
X104937903Y-67841298D01*
X105751000Y-68654395D01*
X106564097Y-67841298D01*
X106492514Y-67597329D01*
X106237004Y-67476429D01*
X105962816Y-67407700D01*
X105680488Y-67393783D01*
X105400870Y-67435213D01*
X105134708Y-67530397D01*
X105009486Y-67597329D01*
X104937903Y-67841298D01*
X104656118Y-67841298D01*
X104640502Y-67789820D01*
X104581537Y-67679506D01*
X104502185Y-67582815D01*
X104405494Y-67503463D01*
X104295180Y-67444498D01*
X104175482Y-67408188D01*
X104051000Y-67395928D01*
X102451000Y-67395928D01*
X102326518Y-67408188D01*
X102206820Y-67444498D01*
X102096506Y-67503463D01*
X101999815Y-67582815D01*
X101920463Y-67679506D01*
X101861498Y-67789820D01*
X101825188Y-67909518D01*
X101812928Y-68034000D01*
X89560000Y-68034000D01*
X89560000Y-64160000D01*
X113206705Y-64160000D01*
X113173463Y-64200506D01*
%TA.AperFunction,Conductor*%
D25*
G36*
X113173463Y-64200506D02*
G01*
X113114498Y-64310820D01*
X113078188Y-64430518D01*
X113065928Y-64555000D01*
X113065928Y-66255000D01*
X113078188Y-66379482D01*
X113114498Y-66499180D01*
X113173463Y-66609494D01*
X113252815Y-66706185D01*
X113349506Y-66785537D01*
X113459820Y-66844502D01*
X113540466Y-66868966D01*
X113456412Y-66944731D01*
X113282359Y-67178080D01*
X113157175Y-67440901D01*
X113112524Y-67588110D01*
X113233845Y-67818000D01*
X114427000Y-67818000D01*
X114427000Y-67798000D01*
X114681000Y-67798000D01*
X114681000Y-67818000D01*
X116967000Y-67818000D01*
X116967000Y-67798000D01*
X117221000Y-67798000D01*
X117221000Y-67818000D01*
X117241000Y-67818000D01*
X117241000Y-68072000D01*
X117221000Y-68072000D01*
X117221000Y-68092000D01*
X116967000Y-68092000D01*
X116967000Y-68072000D01*
X114681000Y-68072000D01*
X114681000Y-68092000D01*
X114427000Y-68092000D01*
X114427000Y-68072000D01*
X113233845Y-68072000D01*
X113112524Y-68301890D01*
X113157175Y-68449099D01*
X113282359Y-68711920D01*
X113456412Y-68945269D01*
X113672645Y-69140178D01*
X113756285Y-69190000D01*
X112681419Y-69190000D01*
X112649000Y-69186807D01*
X112616581Y-69190000D01*
X112519617Y-69199550D01*
X112395207Y-69237290D01*
X112280550Y-69298575D01*
X112180052Y-69381052D01*
X112097575Y-69481550D01*
X112036290Y-69596207D01*
X111998550Y-69720617D01*
X111985807Y-69850000D01*
X111989001Y-69882429D01*
X111989000Y-109187581D01*
X111985807Y-109220000D01*
X111998550Y-109349383D01*
X112036290Y-109473793D01*
X112097575Y-109588450D01*
X112147422Y-109649188D01*
X112180052Y-109688948D01*
X112280550Y-109771425D01*
X112395207Y-109832710D01*
X112519617Y-109870450D01*
X112649000Y-109883193D01*
X112681419Y-109880000D01*
X113206705Y-109880000D01*
X113173463Y-109920506D01*
X113114498Y-110030820D01*
X113078188Y-110150518D01*
X113065928Y-110275000D01*
X113065928Y-111975000D01*
X113078188Y-112099482D01*
X113114498Y-112219180D01*
X113173463Y-112329494D01*
X113252815Y-112426185D01*
X113349506Y-112505537D01*
X113459820Y-112564502D01*
X113540466Y-112588966D01*
X113456412Y-112664731D01*
X113282359Y-112898080D01*
X113157175Y-113160901D01*
X113112524Y-113308110D01*
X113233845Y-113538000D01*
X114427000Y-113538000D01*
X114427000Y-113518000D01*
X114681000Y-113518000D01*
X114681000Y-113538000D01*
X116967000Y-113538000D01*
X116967000Y-113518000D01*
X117221000Y-113518000D01*
X117221000Y-113538000D01*
X117241000Y-113538000D01*
X117241000Y-113792000D01*
X117221000Y-113792000D01*
X117221000Y-113812000D01*
X116967000Y-113812000D01*
X116967000Y-113792000D01*
X114681000Y-113792000D01*
X114681000Y-113812000D01*
X114427000Y-113812000D01*
X114427000Y-113792000D01*
X113233845Y-113792000D01*
X113112524Y-114021890D01*
X113157175Y-114169099D01*
X113282359Y-114431920D01*
X113456412Y-114665269D01*
X113672645Y-114860178D01*
X113756285Y-114910000D01*
X108406044Y-114910000D01*
X108559094Y-114863576D01*
X108864329Y-114713532D01*
X109134427Y-114506823D01*
X109359008Y-114251392D01*
X109529442Y-113957055D01*
X109639179Y-113635124D01*
X109521600Y-113366001D01*
X108077000Y-113366001D01*
X108077000Y-113386001D01*
X107823000Y-113386001D01*
X107823000Y-113366001D01*
X106378400Y-113366001D01*
X106260821Y-113635124D01*
X106370558Y-113957055D01*
X106540992Y-114251392D01*
X106765573Y-114506823D01*
X107035671Y-114713532D01*
X107340906Y-114863576D01*
X107493956Y-114910000D01*
X104236396Y-114910000D01*
X104241094Y-114908575D01*
X104546329Y-114758531D01*
X104816427Y-114551822D01*
X105041008Y-114296391D01*
X105211442Y-114002054D01*
X105321179Y-113680123D01*
X105203600Y-113411000D01*
X103759000Y-113411000D01*
X103759000Y-113431000D01*
X103505000Y-113431000D01*
X103505000Y-113411000D01*
X102060400Y-113411000D01*
X101942821Y-113680123D01*
X102052558Y-114002054D01*
X102222992Y-114296391D01*
X102447573Y-114551822D01*
X102717671Y-114758531D01*
X103022906Y-114908575D01*
X103027604Y-114910000D01*
X89560000Y-114910000D01*
X89560000Y-112713419D01*
X94125000Y-112713419D01*
X94125000Y-113094581D01*
X94199361Y-113468419D01*
X94345225Y-113820566D01*
X94556987Y-114137491D01*
X94826509Y-114407013D01*
X95143434Y-114618775D01*
X95495581Y-114764639D01*
X95869419Y-114839000D01*
X96250581Y-114839000D01*
X96624419Y-114764639D01*
X96976566Y-114618775D01*
X97293491Y-114407013D01*
X97563013Y-114137491D01*
X97774775Y-113820566D01*
X97920639Y-113468419D01*
X97995000Y-113094581D01*
X97995000Y-112887877D01*
X101942821Y-112887877D01*
X102060400Y-113157000D01*
X103505000Y-113157000D01*
X103505000Y-111712875D01*
X103759000Y-111712875D01*
X103759000Y-113157000D01*
X105203600Y-113157000D01*
X105321179Y-112887877D01*
X105305841Y-112842878D01*
X106260821Y-112842878D01*
X106378400Y-113112001D01*
X107823000Y-113112001D01*
X107823000Y-111667876D01*
X108077000Y-111667876D01*
X108077000Y-113112001D01*
X109521600Y-113112001D01*
X109639179Y-112842878D01*
X109529442Y-112520947D01*
X109359008Y-112226610D01*
X109134427Y-111971179D01*
X108864329Y-111764470D01*
X108559094Y-111614426D01*
X108346122Y-111549826D01*
X108077000Y-111667876D01*
X107823000Y-111667876D01*
X107553878Y-111549826D01*
X107340906Y-111614426D01*
X107035671Y-111764470D01*
X106765573Y-111971179D01*
X106540992Y-112226610D01*
X106370558Y-112520947D01*
X106260821Y-112842878D01*
X105305841Y-112842878D01*
X105211442Y-112565946D01*
X105041008Y-112271609D01*
X104816427Y-112016178D01*
X104546329Y-111809469D01*
X104241094Y-111659425D01*
X104028122Y-111594825D01*
X103759000Y-111712875D01*
X103505000Y-111712875D01*
X103235878Y-111594825D01*
X103022906Y-111659425D01*
X102717671Y-111809469D01*
X102447573Y-112016178D01*
X102222992Y-112271609D01*
X102052558Y-112565946D01*
X101942821Y-112887877D01*
X97995000Y-112887877D01*
X97995000Y-112713419D01*
X97920639Y-112339581D01*
X97774775Y-111987434D01*
X97563013Y-111670509D01*
X97293491Y-111400987D01*
X96976566Y-111189225D01*
X96624419Y-111043361D01*
X96250581Y-110969000D01*
X95869419Y-110969000D01*
X95495581Y-111043361D01*
X95143434Y-111189225D01*
X94826509Y-111400987D01*
X94556987Y-111670509D01*
X94345225Y-111987434D01*
X94199361Y-112339581D01*
X94125000Y-112713419D01*
X89560000Y-112713419D01*
X89560000Y-108013419D01*
X91125000Y-108013419D01*
X91125000Y-108394581D01*
X91199361Y-108768419D01*
X91345225Y-109120566D01*
X91556987Y-109437491D01*
X91826509Y-109707013D01*
X92143434Y-109918775D01*
X92495581Y-110064639D01*
X92869419Y-110139000D01*
X93250581Y-110139000D01*
X93624419Y-110064639D01*
X93976566Y-109918775D01*
X94293491Y-109707013D01*
X94563013Y-109437491D01*
X94774775Y-109120566D01*
X94920639Y-108768419D01*
X94995000Y-108394581D01*
X94995000Y-108013419D01*
X94920639Y-107639581D01*
X94774775Y-107287434D01*
X94563013Y-106970509D01*
X94496504Y-106904000D01*
X97121928Y-106904000D01*
X97121928Y-109504000D01*
X97134188Y-109628482D01*
X97170498Y-109748180D01*
X97229463Y-109858494D01*
X97308815Y-109955185D01*
X97405506Y-110034537D01*
X97515820Y-110093502D01*
X97635518Y-110129812D01*
X97760000Y-110142072D01*
X100360000Y-110142072D01*
X100484482Y-110129812D01*
X100604180Y-110093502D01*
X100714494Y-110034537D01*
X100811185Y-109955185D01*
X100890537Y-109858494D01*
X100949502Y-109748180D01*
X100985812Y-109628482D01*
X100998072Y-109504000D01*
X100998072Y-106904000D01*
X100985812Y-106779518D01*
X100949502Y-106659820D01*
X100890537Y-106549506D01*
X100811185Y-106452815D01*
X100714494Y-106373463D01*
X100604180Y-106314498D01*
X100484482Y-106278188D01*
X100360000Y-106265928D01*
X97760000Y-106265928D01*
X97635518Y-106278188D01*
X97515820Y-106314498D01*
X97405506Y-106373463D01*
X97308815Y-106452815D01*
X97229463Y-106549506D01*
X97170498Y-106659820D01*
X97134188Y-106779518D01*
X97121928Y-106904000D01*
X94496504Y-106904000D01*
X94293491Y-106700987D01*
X93976566Y-106489225D01*
X93624419Y-106343361D01*
X93250581Y-106269000D01*
X92869419Y-106269000D01*
X92495581Y-106343361D01*
X92143434Y-106489225D01*
X91826509Y-106700987D01*
X91556987Y-106970509D01*
X91345225Y-107287434D01*
X91199361Y-107639581D01*
X91125000Y-108013419D01*
X89560000Y-108013419D01*
X89560000Y-102024000D01*
X101893928Y-102024000D01*
X101893928Y-104224000D01*
X101906188Y-104348482D01*
X101942498Y-104468180D01*
X102001463Y-104578494D01*
X102080815Y-104675185D01*
X102177506Y-104754537D01*
X102287820Y-104813502D01*
X102407518Y-104849812D01*
X102532000Y-104862072D01*
X104732000Y-104862072D01*
X104856482Y-104849812D01*
X104976180Y-104813502D01*
X105086494Y-104754537D01*
X105183185Y-104675185D01*
X105262537Y-104578494D01*
X105321502Y-104468180D01*
X105357812Y-104348482D01*
X105370072Y-104224000D01*
X105370072Y-102024000D01*
X105365641Y-101979001D01*
X106211928Y-101979001D01*
X106211928Y-104179001D01*
X106224188Y-104303483D01*
X106260498Y-104423181D01*
X106319463Y-104533495D01*
X106398815Y-104630186D01*
X106495506Y-104709538D01*
X106605820Y-104768503D01*
X106725518Y-104804813D01*
X106850000Y-104817073D01*
X109050000Y-104817073D01*
X109174482Y-104804813D01*
X109294180Y-104768503D01*
X109404494Y-104709538D01*
X109501185Y-104630186D01*
X109580537Y-104533495D01*
X109639502Y-104423181D01*
X109675812Y-104303483D01*
X109688072Y-104179001D01*
X109688072Y-101979001D01*
X109675812Y-101854519D01*
X109639502Y-101734821D01*
X109580537Y-101624507D01*
X109501185Y-101527816D01*
X109404494Y-101448464D01*
X109294180Y-101389499D01*
X109174482Y-101353189D01*
X109050000Y-101340929D01*
X106850000Y-101340929D01*
X106725518Y-101353189D01*
X106605820Y-101389499D01*
X106495506Y-101448464D01*
X106398815Y-101527816D01*
X106319463Y-101624507D01*
X106260498Y-101734821D01*
X106224188Y-101854519D01*
X106211928Y-101979001D01*
X105365641Y-101979001D01*
X105357812Y-101899518D01*
X105321502Y-101779820D01*
X105262537Y-101669506D01*
X105183185Y-101572815D01*
X105086494Y-101493463D01*
X104976180Y-101434498D01*
X104856482Y-101398188D01*
X104732000Y-101385928D01*
X102532000Y-101385928D01*
X102407518Y-101398188D01*
X102287820Y-101434498D01*
X102177506Y-101493463D01*
X102080815Y-101572815D01*
X102001463Y-101669506D01*
X101942498Y-101779820D01*
X101906188Y-101899518D01*
X101893928Y-102024000D01*
X89560000Y-102024000D01*
X89560000Y-99595829D01*
X89612816Y-99660186D01*
X89709507Y-99739538D01*
X89819821Y-99798503D01*
X89939519Y-99834813D01*
X90064001Y-99847073D01*
X92264001Y-99847073D01*
X92388483Y-99834813D01*
X92508181Y-99798503D01*
X92618495Y-99739538D01*
X92715186Y-99660186D01*
X92794538Y-99563495D01*
X92853503Y-99453181D01*
X92889813Y-99333483D01*
X92902073Y-99209001D01*
X92902073Y-97938118D01*
X99589001Y-97938118D01*
X99589001Y-98279884D01*
X99655676Y-98615082D01*
X99786464Y-98930832D01*
X99976338Y-99214999D01*
X100218003Y-99456664D01*
X100502170Y-99646538D01*
X100817920Y-99777326D01*
X101153118Y-99844001D01*
X101494884Y-99844001D01*
X101830082Y-99777326D01*
X102145832Y-99646538D01*
X102429999Y-99456664D01*
X102671664Y-99214999D01*
X102861538Y-98930832D01*
X102992326Y-98615082D01*
X103059001Y-98279884D01*
X103059001Y-97938118D01*
X102992326Y-97602920D01*
X102861538Y-97287170D01*
X102671664Y-97003003D01*
X102429999Y-96761338D01*
X102145832Y-96571464D01*
X101830082Y-96440676D01*
X101494884Y-96374001D01*
X101153118Y-96374001D01*
X100817920Y-96440676D01*
X100502170Y-96571464D01*
X100218003Y-96761338D01*
X99976338Y-97003003D01*
X99786464Y-97287170D01*
X99655676Y-97602920D01*
X99589001Y-97938118D01*
X92902073Y-97938118D01*
X92902073Y-97009001D01*
X92889813Y-96884519D01*
X92853503Y-96764821D01*
X92794538Y-96654507D01*
X92715186Y-96557816D01*
X92618495Y-96478464D01*
X92508181Y-96419499D01*
X92388483Y-96383189D01*
X92264001Y-96370929D01*
X90064001Y-96370929D01*
X89939519Y-96383189D01*
X89819821Y-96419499D01*
X89709507Y-96478464D01*
X89612816Y-96557816D01*
X89560000Y-96622173D01*
X89560000Y-94297022D01*
X89634815Y-94388185D01*
X89731506Y-94467537D01*
X89841820Y-94526502D01*
X89961518Y-94562812D01*
X90086000Y-94575072D01*
X92286000Y-94575072D01*
X92410482Y-94562812D01*
X92530180Y-94526502D01*
X92640494Y-94467537D01*
X92737185Y-94388185D01*
X92816537Y-94291494D01*
X92875502Y-94181180D01*
X92911812Y-94061482D01*
X92924072Y-93937000D01*
X92924072Y-92666117D01*
X99611000Y-92666117D01*
X99611000Y-93007883D01*
X99677675Y-93343081D01*
X99808463Y-93658831D01*
X99998337Y-93942998D01*
X100240002Y-94184663D01*
X100524169Y-94374537D01*
X100839919Y-94505325D01*
X101175117Y-94572000D01*
X101516883Y-94572000D01*
X101852081Y-94505325D01*
X102167831Y-94374537D01*
X102451998Y-94184663D01*
X102693663Y-93942998D01*
X102883537Y-93658831D01*
X103014325Y-93343081D01*
X103081000Y-93007883D01*
X103081000Y-92666117D01*
X103014325Y-92330919D01*
X102883537Y-92015169D01*
X102693663Y-91731002D01*
X102451998Y-91489337D01*
X102167831Y-91299463D01*
X101852081Y-91168675D01*
X101516883Y-91102000D01*
X101175117Y-91102000D01*
X100839919Y-91168675D01*
X100524169Y-91299463D01*
X100240002Y-91489337D01*
X99998337Y-91731002D01*
X99808463Y-92015169D01*
X99677675Y-92330919D01*
X99611000Y-92666117D01*
X92924072Y-92666117D01*
X92924072Y-91737000D01*
X92911812Y-91612518D01*
X92875502Y-91492820D01*
X92816537Y-91382506D01*
X92737185Y-91285815D01*
X92640494Y-91206463D01*
X92530180Y-91147498D01*
X92410482Y-91111188D01*
X92286000Y-91098928D01*
X90086000Y-91098928D01*
X89961518Y-91111188D01*
X89841820Y-91147498D01*
X89731506Y-91206463D01*
X89634815Y-91285815D01*
X89560000Y-91376978D01*
X89560000Y-86045000D01*
X108393928Y-86045000D01*
X108393928Y-87945000D01*
X108406188Y-88069482D01*
X108442498Y-88189180D01*
X108501463Y-88299494D01*
X108580815Y-88396185D01*
X108677506Y-88475537D01*
X108736021Y-88506814D01*
X108577391Y-88744221D01*
X108457911Y-89032673D01*
X108397000Y-89338891D01*
X108397000Y-89651109D01*
X108457911Y-89957327D01*
X108577391Y-90245779D01*
X108750850Y-90505379D01*
X108971621Y-90726150D01*
X108999832Y-90745000D01*
X108971621Y-90763850D01*
X108750850Y-90984621D01*
X108577391Y-91244221D01*
X108457911Y-91532673D01*
X108397000Y-91838891D01*
X108397000Y-92151109D01*
X108457911Y-92457327D01*
X108577391Y-92745779D01*
X108750850Y-93005379D01*
X108971621Y-93226150D01*
X109231221Y-93399609D01*
X109519673Y-93519089D01*
X109825891Y-93580000D01*
X110138109Y-93580000D01*
X110444327Y-93519089D01*
X110732779Y-93399609D01*
X110992379Y-93226150D01*
X111213150Y-93005379D01*
X111386609Y-92745779D01*
X111506089Y-92457327D01*
X111567000Y-92151109D01*
X111567000Y-91838891D01*
X111506089Y-91532673D01*
X111386609Y-91244221D01*
X111213150Y-90984621D01*
X110992379Y-90763850D01*
X110964168Y-90745000D01*
X110992379Y-90726150D01*
X111213150Y-90505379D01*
X111386609Y-90245779D01*
X111506089Y-89957327D01*
X111567000Y-89651109D01*
X111567000Y-89338891D01*
X111506089Y-89032673D01*
X111386609Y-88744221D01*
X111227979Y-88506814D01*
X111286494Y-88475537D01*
X111383185Y-88396185D01*
X111462537Y-88299494D01*
X111521502Y-88189180D01*
X111557812Y-88069482D01*
X111570072Y-87945000D01*
X111570072Y-86045000D01*
X111557812Y-85920518D01*
X111521502Y-85800820D01*
X111462537Y-85690506D01*
X111383185Y-85593815D01*
X111286494Y-85514463D01*
X111176180Y-85455498D01*
X111056482Y-85419188D01*
X110932000Y-85406928D01*
X109032000Y-85406928D01*
X108907518Y-85419188D01*
X108787820Y-85455498D01*
X108677506Y-85514463D01*
X108580815Y-85593815D01*
X108501463Y-85690506D01*
X108442498Y-85800820D01*
X108406188Y-85920518D01*
X108393928Y-86045000D01*
X89560000Y-86045000D01*
X89560000Y-80661000D01*
X90690928Y-80661000D01*
X90690928Y-82661000D01*
X90703188Y-82785482D01*
X90739498Y-82905180D01*
X90798463Y-83015494D01*
X90877815Y-83112185D01*
X90974506Y-83191537D01*
X91084820Y-83250502D01*
X91204518Y-83286812D01*
X91329000Y-83299072D01*
X93329000Y-83299072D01*
X93453482Y-83286812D01*
X93573180Y-83250502D01*
X93683494Y-83191537D01*
X93780185Y-83112185D01*
X93859537Y-83015494D01*
X93918502Y-82905180D01*
X93951496Y-82796413D01*
X96373192Y-82796413D01*
X96468956Y-83060814D01*
X96758571Y-83201704D01*
X97070108Y-83283384D01*
X97391595Y-83302718D01*
X97710675Y-83258961D01*
X98015088Y-83153795D01*
X98189044Y-83060814D01*
X98284808Y-82796413D01*
X97329000Y-81840605D01*
X96373192Y-82796413D01*
X93951496Y-82796413D01*
X93954812Y-82785482D01*
X93967072Y-82661000D01*
X93967072Y-81723595D01*
X95687282Y-81723595D01*
X95731039Y-82042675D01*
X95836205Y-82347088D01*
X95929186Y-82521044D01*
X96193587Y-82616808D01*
X97149395Y-81661000D01*
X97508605Y-81661000D01*
X98464413Y-82616808D01*
X98728814Y-82521044D01*
X98869704Y-82231429D01*
X98951384Y-81919892D01*
X98970718Y-81598405D01*
X98926961Y-81279325D01*
X98821795Y-80974912D01*
X98728814Y-80800956D01*
X98464413Y-80705192D01*
X97508605Y-81661000D01*
X97149395Y-81661000D01*
X96193587Y-80705192D01*
X95929186Y-80800956D01*
X95788296Y-81090571D01*
X95706616Y-81402108D01*
X95687282Y-81723595D01*
X93967072Y-81723595D01*
X93967072Y-80661000D01*
X93954812Y-80536518D01*
X93951497Y-80525587D01*
X96373192Y-80525587D01*
X97329000Y-81481395D01*
X98284808Y-80525587D01*
X98189044Y-80261186D01*
X97899429Y-80120296D01*
X97587892Y-80038616D01*
X97266405Y-80019282D01*
X96947325Y-80063039D01*
X96642912Y-80168205D01*
X96468956Y-80261186D01*
X96373192Y-80525587D01*
X93951497Y-80525587D01*
X93918502Y-80416820D01*
X93859537Y-80306506D01*
X93780185Y-80209815D01*
X93683494Y-80130463D01*
X93573180Y-80071498D01*
X93453482Y-80035188D01*
X93329000Y-80022928D01*
X91329000Y-80022928D01*
X91204518Y-80035188D01*
X91084820Y-80071498D01*
X90974506Y-80130463D01*
X90877815Y-80209815D01*
X90798463Y-80306506D01*
X90739498Y-80416820D01*
X90703188Y-80536518D01*
X90690928Y-80661000D01*
X89560000Y-80661000D01*
X89560000Y-70628000D01*
X90484428Y-70628000D01*
X90484428Y-72628000D01*
X90496688Y-72752482D01*
X90532998Y-72872180D01*
X90591963Y-72982494D01*
X90671315Y-73079185D01*
X90768006Y-73158537D01*
X90878320Y-73217502D01*
X90998018Y-73253812D01*
X91122500Y-73266072D01*
X93027500Y-73266072D01*
X93151982Y-73253812D01*
X93271680Y-73217502D01*
X93381994Y-73158537D01*
X93478685Y-73079185D01*
X93558037Y-72982494D01*
X93607059Y-72890781D01*
X93748077Y-73003969D01*
X94023906Y-73147571D01*
X94242020Y-73218563D01*
X94488000Y-73098594D01*
X94488000Y-71755000D01*
X94468000Y-71755000D01*
X94468000Y-71501000D01*
X94488000Y-71501000D01*
X94488000Y-70157406D01*
X94742000Y-70157406D01*
X94742000Y-71501000D01*
X94762000Y-71501000D01*
X94762000Y-71755000D01*
X94742000Y-71755000D01*
X94742000Y-73098594D01*
X94987980Y-73218563D01*
X95206094Y-73147571D01*
X95481923Y-73003969D01*
X95724437Y-72809315D01*
X95879837Y-72624101D01*
X96027037Y-72803463D01*
X96268766Y-73001845D01*
X96544552Y-73149255D01*
X96843797Y-73240030D01*
X97155000Y-73270681D01*
X97466204Y-73240030D01*
X97765449Y-73149255D01*
X98041235Y-73001845D01*
X98282963Y-72803463D01*
X98481345Y-72561734D01*
X98628755Y-72285948D01*
X98719530Y-71986703D01*
X98742500Y-71753485D01*
X98742500Y-71502514D01*
X98719530Y-71269296D01*
X98628755Y-70970051D01*
X98481345Y-70694265D01*
X98282963Y-70452537D01*
X98041234Y-70254155D01*
X97765448Y-70106745D01*
X97466203Y-70015970D01*
X97155000Y-69985319D01*
X96843796Y-70015970D01*
X96544551Y-70106745D01*
X96268765Y-70254155D01*
X96027037Y-70452537D01*
X95879838Y-70631900D01*
X95724437Y-70446685D01*
X95481923Y-70252031D01*
X95206094Y-70108429D01*
X94987980Y-70037437D01*
X94742000Y-70157406D01*
X94488000Y-70157406D01*
X94242020Y-70037437D01*
X94023906Y-70108429D01*
X93748077Y-70252031D01*
X93607059Y-70365219D01*
X93558037Y-70273506D01*
X93478685Y-70176815D01*
X93381994Y-70097463D01*
X93271680Y-70038498D01*
X93151982Y-70002188D01*
X93027500Y-69989928D01*
X91122500Y-69989928D01*
X90998018Y-70002188D01*
X90878320Y-70038498D01*
X90768006Y-70097463D01*
X90671315Y-70176815D01*
X90591963Y-70273506D01*
X90532998Y-70383820D01*
X90496688Y-70503518D01*
X90484428Y-70628000D01*
X89560000Y-70628000D01*
X89560000Y-68034000D01*
X101812928Y-68034000D01*
X101812928Y-69634000D01*
X101825188Y-69758482D01*
X101861498Y-69878180D01*
X101920463Y-69988494D01*
X101999815Y-70085185D01*
X102096506Y-70164537D01*
X102206820Y-70223502D01*
X102326518Y-70259812D01*
X102451000Y-70272072D01*
X104051000Y-70272072D01*
X104175482Y-70259812D01*
X104295180Y-70223502D01*
X104405494Y-70164537D01*
X104502185Y-70085185D01*
X104581537Y-69988494D01*
X104640502Y-69878180D01*
X104656117Y-69826702D01*
X104937903Y-69826702D01*
X105009486Y-70070671D01*
X105264996Y-70191571D01*
X105539184Y-70260300D01*
X105821512Y-70274217D01*
X106101130Y-70232787D01*
X106367292Y-70137603D01*
X106492514Y-70070671D01*
X106564097Y-69826702D01*
X105751000Y-69013605D01*
X104937903Y-69826702D01*
X104656117Y-69826702D01*
X104676812Y-69758482D01*
X104689072Y-69634000D01*
X104689072Y-69626785D01*
X104758298Y-69647097D01*
X105571395Y-68834000D01*
X105930605Y-68834000D01*
X106743702Y-69647097D01*
X106987671Y-69575514D01*
X107108571Y-69320004D01*
X107177300Y-69045816D01*
X107191217Y-68763488D01*
X107149787Y-68483870D01*
X107054603Y-68217708D01*
X106987671Y-68092486D01*
X106743702Y-68020903D01*
X105930605Y-68834000D01*
X105571395Y-68834000D01*
X104758298Y-68020903D01*
X104689072Y-68041215D01*
X104689072Y-68034000D01*
X104676812Y-67909518D01*
X104656118Y-67841298D01*
X104937903Y-67841298D01*
X105751000Y-68654395D01*
X106564097Y-67841298D01*
X106492514Y-67597329D01*
X106237004Y-67476429D01*
X105962816Y-67407700D01*
X105680488Y-67393783D01*
X105400870Y-67435213D01*
X105134708Y-67530397D01*
X105009486Y-67597329D01*
X104937903Y-67841298D01*
X104656118Y-67841298D01*
X104640502Y-67789820D01*
X104581537Y-67679506D01*
X104502185Y-67582815D01*
X104405494Y-67503463D01*
X104295180Y-67444498D01*
X104175482Y-67408188D01*
X104051000Y-67395928D01*
X102451000Y-67395928D01*
X102326518Y-67408188D01*
X102206820Y-67444498D01*
X102096506Y-67503463D01*
X101999815Y-67582815D01*
X101920463Y-67679506D01*
X101861498Y-67789820D01*
X101825188Y-67909518D01*
X101812928Y-68034000D01*
X89560000Y-68034000D01*
X89560000Y-64160000D01*
X113206705Y-64160000D01*
X113173463Y-64200506D01*
G37*
%TD.AperFunction*%
%TD*%
M02*
