%TF.GenerationSoftware,KiCad,Pcbnew,(5.1.10-1-10_14)*%
%TF.CreationDate,2021-10-22T00:21:01+02:00*%
%TF.ProjectId,breadboard-psu,62726561-6462-46f6-9172-642d7073752e,a*%
%TF.SameCoordinates,Original*%
%TF.FileFunction,Soldermask,Top*%
%TF.FilePolarity,Negative*%
%FSLAX46Y46*%
G04 Gerber Fmt 4.6, Leading zero omitted, Abs format (unit mm)*
G04 Created by KiCad (PCBNEW (5.1.10-1-10_14)) date 2021-10-22 00:21:01*
%MOMM*%
%LPD*%
G01*
G04 APERTURE LIST*
%ADD10C,1.900000*%
%ADD11R,1.900000X1.900000*%
%ADD12R,2.000000X2.000000*%
%ADD13C,2.000000*%
%ADD14R,1.600000X1.600000*%
%ADD15C,1.600000*%
%ADD16R,2.200000X2.200000*%
%ADD17O,2.200000X2.200000*%
%ADD18R,2.600000X2.600000*%
%ADD19C,2.600000*%
%ADD20R,1.700000X1.700000*%
%ADD21O,1.700000X1.700000*%
%ADD22R,1.905000X2.000000*%
%ADD23O,1.905000X2.000000*%
G04 APERTURE END LIST*
D10*
%TO.C,SW1*%
X109982000Y-91995000D03*
X109982000Y-89495000D03*
D11*
X109982000Y-86995000D03*
%TD*%
D12*
%TO.C,C1*%
X92329000Y-81661000D03*
D13*
X97329000Y-81661000D03*
%TD*%
D14*
%TO.C,C2*%
X103251000Y-68834000D03*
D15*
X105751000Y-68834000D03*
%TD*%
D16*
%TO.C,D1*%
X91186000Y-92837000D03*
D17*
X101346000Y-92837000D03*
%TD*%
D16*
%TO.C,D2*%
X107950000Y-103079001D03*
D17*
X107950000Y-113239001D03*
%TD*%
%TO.C,D3*%
X101324001Y-98109001D03*
D16*
X91164001Y-98109001D03*
%TD*%
D17*
%TO.C,D4*%
X103632000Y-113284000D03*
D16*
X103632000Y-103124000D03*
%TD*%
%TO.C,D5*%
G36*
G01*
X106974251Y-80082999D02*
X106061751Y-80082999D01*
G75*
G02*
X105818001Y-79839249I0J243750D01*
G01*
X105818001Y-79351749D01*
G75*
G02*
X106061751Y-79107999I243750J0D01*
G01*
X106974251Y-79107999D01*
G75*
G02*
X107218001Y-79351749I0J-243750D01*
G01*
X107218001Y-79839249D01*
G75*
G02*
X106974251Y-80082999I-243750J0D01*
G01*
G37*
G36*
G01*
X106974251Y-78207999D02*
X106061751Y-78207999D01*
G75*
G02*
X105818001Y-77964249I0J243750D01*
G01*
X105818001Y-77476749D01*
G75*
G02*
X106061751Y-77232999I243750J0D01*
G01*
X106974251Y-77232999D01*
G75*
G02*
X107218001Y-77476749I0J-243750D01*
G01*
X107218001Y-77964249D01*
G75*
G02*
X106974251Y-78207999I-243750J0D01*
G01*
G37*
%TD*%
%TO.C,D6*%
G36*
G01*
X107013251Y-73625999D02*
X106100751Y-73625999D01*
G75*
G02*
X105857001Y-73382249I0J243750D01*
G01*
X105857001Y-72894749D01*
G75*
G02*
X106100751Y-72650999I243750J0D01*
G01*
X107013251Y-72650999D01*
G75*
G02*
X107257001Y-72894749I0J-243750D01*
G01*
X107257001Y-73382249D01*
G75*
G02*
X107013251Y-73625999I-243750J0D01*
G01*
G37*
G36*
G01*
X107013251Y-75500999D02*
X106100751Y-75500999D01*
G75*
G02*
X105857001Y-75257249I0J243750D01*
G01*
X105857001Y-74769749D01*
G75*
G02*
X106100751Y-74525999I243750J0D01*
G01*
X107013251Y-74525999D01*
G75*
G02*
X107257001Y-74769749I0J-243750D01*
G01*
X107257001Y-75257249D01*
G75*
G02*
X107013251Y-75500999I-243750J0D01*
G01*
G37*
%TD*%
D18*
%TO.C,J1*%
X99060000Y-108204000D03*
D19*
X93060000Y-108204000D03*
X96060000Y-112904000D03*
%TD*%
D20*
%TO.C,J2*%
X114554000Y-111125000D03*
D21*
X117094000Y-111125000D03*
X114554000Y-113665000D03*
X117094000Y-113665000D03*
%TD*%
%TO.C,J3*%
X117094000Y-67945000D03*
X114554000Y-67945000D03*
X117094000Y-65405000D03*
D20*
X114554000Y-65405000D03*
%TD*%
%TO.C,R1*%
G36*
G01*
X110305001Y-80061500D02*
X109404999Y-80061500D01*
G75*
G02*
X109155000Y-79811501I0J249999D01*
G01*
X109155000Y-79286499D01*
G75*
G02*
X109404999Y-79036500I249999J0D01*
G01*
X110305001Y-79036500D01*
G75*
G02*
X110555000Y-79286499I0J-249999D01*
G01*
X110555000Y-79811501D01*
G75*
G02*
X110305001Y-80061500I-249999J0D01*
G01*
G37*
G36*
G01*
X110305001Y-78236500D02*
X109404999Y-78236500D01*
G75*
G02*
X109155000Y-77986501I0J249999D01*
G01*
X109155000Y-77461499D01*
G75*
G02*
X109404999Y-77211500I249999J0D01*
G01*
X110305001Y-77211500D01*
G75*
G02*
X110555000Y-77461499I0J-249999D01*
G01*
X110555000Y-77986501D01*
G75*
G02*
X110305001Y-78236500I-249999J0D01*
G01*
G37*
%TD*%
%TO.C,R2*%
G36*
G01*
X110305001Y-73641000D02*
X109404999Y-73641000D01*
G75*
G02*
X109155000Y-73391001I0J249999D01*
G01*
X109155000Y-72865999D01*
G75*
G02*
X109404999Y-72616000I249999J0D01*
G01*
X110305001Y-72616000D01*
G75*
G02*
X110555000Y-72865999I0J-249999D01*
G01*
X110555000Y-73391001D01*
G75*
G02*
X110305001Y-73641000I-249999J0D01*
G01*
G37*
G36*
G01*
X110305001Y-75466000D02*
X109404999Y-75466000D01*
G75*
G02*
X109155000Y-75216001I0J249999D01*
G01*
X109155000Y-74690999D01*
G75*
G02*
X109404999Y-74441000I249999J0D01*
G01*
X110305001Y-74441000D01*
G75*
G02*
X110555000Y-74690999I0J-249999D01*
G01*
X110555000Y-75216001D01*
G75*
G02*
X110305001Y-75466000I-249999J0D01*
G01*
G37*
%TD*%
D22*
%TO.C,U1*%
X92075000Y-71628000D03*
D23*
X94615000Y-71628000D03*
X97155000Y-71628000D03*
%TD*%
M02*
